SplineFontDB: 3.2
FontName: weather_iconsregular
FullName: weather_iconsregular
FamilyName: weather_iconsregular
Weight: Regular
ItalicAngle: 0
UnderlinePosition: 0
UnderlineWidth: 0
Ascent: 1638
Descent: 410
InvalidEm: 0
LayerCount: 2
Layer: 0 1 "Back" 1
Layer: 1 1 "Fore" 0
XUID: [1021 597 1190533084 31402]
OS2Version: 0
OS2_WeightWidthSlopeOnly: 0
OS2_UseTypoMetrics: 0
CreationTime: 1746470148
ModificationTime: 1747903054
PfmFamily: 17
TTFWeight: 400
TTFWidth: 5
LineGap: 184
VLineGap: 184
OS2TypoAscent: 0
OS2TypoAOffset: 1
OS2TypoDescent: 0
OS2TypoDOffset: 1
OS2TypoLinegap: 184
OS2WinAscent: 0
OS2WinAOffset: 1
OS2WinDescent: 0
OS2WinDOffset: 1
HheadAscent: 0
HheadAOffset: 1
HheadDescent: 0
HheadDOffset: 1
OS2Vendor: 'PfEd'
DEI: 91125
Encoding: Original
UnicodeInterp: none
NameList: AGL For New Fonts
DisplaySize: -48
AntiAlias: 1
FitToEm: 0
WinInfo: 0 38 12
BeginChars: 248 248

StartChar: uni25FC
Encoding: 19 9724 19
Width: 571
Flags: W
LayerCount: 2
Fore
SplineSet
0 0 m 1024
EndSplineSet
EndChar

StartChar: uniF000
Encoding: 20 61440 20
Width: 3126
Flags: W
LayerCount: 2
Fore
SplineSet
0 90 m 0
 0 52 0 52 29 26 c 0
 56 -1 56 -1 94 -1 c 2
 721 -1 l 2
 762 -1 762 -1 793.5 -31 c 0
 825 -61 825 -61 825 -104 c 0
 825 -147 825 -147 793.5 -178 c 0
 762 -209 762 -209 721 -209 c 0
 680 -209 680 -209 648 -177 c 0
 619 -151 619 -151 583 -151 c 0
 545 -151 545 -151 519 -176.5 c 0
 493 -202 493 -202 493 -240 c 0
 493 -278 493 -278 519 -304 c 0
 604 -389 604 -389 721 -389 c 0
 839 -389 839 -389 922 -305.5 c 0
 1005 -222 1005 -222 1005 -104 c 0
 1005 14 1005 14 922 98 c 0
 839 182 839 182 721 182 c 2
 94 182 l 2
 56 182 56 182 28 154.5 c 0
 0 127 0 127 0 90 c 0
0 411 m 0
 0 376 0 376 29 350 c 0
 56 323 56 323 94 323 c 2
 1264 323 l 2
 1382 323 1382 323 1465.5 406.5 c 0
 1549 490 1549 490 1549 608 c 0
 1549 726 1549 726 1466 808 c 0
 1383 890 1383 890 1264 890 c 0
 1143 890 1143 890 1063 809 c 0
 1038 783 1038 783 1038 744 c 0
 1038 705 1038 705 1062.5 680.5 c 0
 1087 656 1087 656 1126 656 c 0
 1164 656 1164 656 1192 681 c 0
 1222 711 1222 711 1264 711 c 0
 1306 711 1306 711 1336.5 681 c 0
 1367 651 1367 651 1367 608 c 0
 1367 565 1367 565 1336.5 534 c 0
 1306 503 1306 503 1264 503 c 2
 94 503 l 2
 56 503 56 503 28 475.5 c 0
 0 448 0 448 0 411 c 0
283 662 m 0
 283 649 283 649 301 649 c 2
 454 649 l 2
 465 649 465 649 475 664 c 0
 511 751 511 751 586.5 807.5 c 0
 662 864 662 864 757 871 c 1
 813 879 l 2
 833 879 833 879 833 897 c 2
 840 952 l 1
 857 1125 857 1125 986 1241 c 0
 1115 1357 1115 1357 1290 1357 c 0
 1466 1357 1466 1357 1595.5 1241.5 c 0
 1725 1126 1725 1126 1743 952 c 2
 1750 890 l 2
 1750 871 1750 871 1769 871 c 2
 1943 871 l 2
 2087 871 2087 871 2188.5 770.5 c 0
 2290 670 2290 670 2290 528 c 0
 2290 385 2290 385 2188.5 283.5 c 0
 2087 182 2087 182 1943 182 c 2
 1207 182 l 2
 1187 182 1187 182 1187 163 c 2
 1187 17 l 2
 1187 -1 1187 -1 1207 -1 c 2
 1943 -1 l 2
 2086 -1 2086 -1 2207.5 70 c 0
 2329 141 2329 141 2399.5 263 c 0
 2470 385 2470 385 2470 528 c 0
 2470 646 2470 646 2425 744 c 1
 2546 903 2546 903 2546 1097 c 0
 2546 1247 2546 1247 2470.5 1376 c 0
 2395 1505 2395 1505 2266 1580.5 c 0
 2137 1656 2137 1656 1987 1656 c 0
 1740 1656 1740 1656 1575 1471 c 1
 1447 1536 1447 1536 1290 1536 c 0
 1065 1536 1065 1536 892 1396.5 c 0
 719 1257 719 1257 672 1040 c 1
 536 1008 536 1008 431.5 909 c 0
 327 810 327 810 286 675 c 1
 286 671 l 2
 283 666 283 666 283 662 c 0
1155 1838 m 0
 1155 1801 1155 1801 1184 1774 c 2
 1249 1705 l 2
 1275 1679 1275 1679 1314 1679 c 0
 1354 1679 1354 1679 1379.5 1703.5 c 0
 1405 1728 1405 1728 1405 1768 c 0
 1405 1806 1405 1806 1381 1832 c 2
 1311 1901 l 2
 1286 1929 1286 1929 1248 1929 c 0
 1210 1929 1210 1929 1182.5 1902 c 0
 1155 1875 1155 1875 1155 1838 c 0
1723 1368 m 1
 1838 1477 1838 1477 1987 1477 c 0
 2142 1477 2142 1477 2254.5 1365 c 0
 2367 1253 2367 1253 2367 1097 c 0
 2367 993 2367 993 2312 902 c 1
 2159 1055 2159 1055 1943 1055 c 2
 1907 1055 l 1
 1869 1228 1869 1228 1723 1368 c 1
1896 1927 m 2
 1896 1890 1896 1890 1922.5 1864.5 c 0
 1949 1839 1949 1839 1987 1839 c 0
 2025 1839 2025 1839 2052 1864.5 c 0
 2079 1890 2079 1890 2079 1927 c 2
 2079 2145 l 2
 2079 2183 2079 2183 2052 2210 c 0
 2025 2237 2025 2237 1987 2237 c 0
 1949 2237 1949 2237 1922.5 2210 c 0
 1896 2183 1896 2183 1896 2145 c 2
 1896 1927 l 2
2488 1685 m 0
 2488 1646 2488 1646 2512 1621 c 0
 2539 1594 2539 1594 2577 1593.5 c 0
 2615 1593 2615 1593 2638 1621 c 2
 2794 1774 l 2
 2821 1801 2821 1801 2821 1839 c 0
 2821 1876 2821 1876 2794 1903 c 0
 2767 1930 2767 1930 2729 1930 c 0
 2691 1930 2691 1930 2665 1904 c 2
 2512 1747 l 2
 2488 1722 2488 1722 2488 1685 c 0
2570 423 m 0
 2570 386 2570 386 2597 359 c 2
 2665 290 l 1
 2697 264 2697 264 2731 264 c 0
 2762 264 2762 264 2794 290 c 0
 2821 317 2821 317 2821 354 c 0
 2821 389 2821 389 2794 419 c 2
 2726 488 l 2
 2700 514 2700 514 2664 514 c 0
 2624 514 2624 514 2597 487.5 c 0
 2570 461 2570 461 2570 423 c 0
2731 1097 m 0
 2731 1059 2731 1059 2758 1034 c 1
 2782 1006 2782 1006 2819 1006 c 2
 3035 1006 l 2
 3073 1006 3073 1006 3100 1033 c 0
 3127 1060 3127 1060 3127 1097 c 0
 3127 1134 3127 1134 3099.5 1161.5 c 0
 3072 1189 3072 1189 3035 1189 c 2
 2819 1189 l 2
 2781 1189 2781 1189 2756 1162 c 0
 2731 1135 2731 1135 2731 1097 c 0
EndSplineSet
EndChar

StartChar: uniF001
Encoding: 21 61441 21
Width: 3105
Flags: W
LayerCount: 2
Fore
SplineSet
0 94 m 0
 0 55 0 55 26 29 c 1
 96 0 96 0 120 0 c 2
 960 0 l 2
 998 0 998 0 1024.5 27.5 c 0
 1051 55 1051 55 1051 93 c 0
 1051 130 1051 130 1024.5 155.5 c 0
 998 181 998 181 960 181 c 2
 120 181 l 2
 78 181 78 181 39 155.5 c 0
 0 130 0 130 0 94 c 0
149 414 m 0
 149 376 149 376 176 351 c 1
 200 323 200 323 238 323 c 2
 1241 323 l 2
 1279 323 1279 323 1306 349.5 c 0
 1333 376 1333 376 1333 414 c 0
 1333 452 1333 452 1306 479 c 0
 1279 506 1279 506 1241 506 c 2
 238 506 l 2
 201 506 201 506 175 479 c 0
 149 452 149 452 149 414 c 0
261 667 m 0
 261 653 261 653 279 653 c 2
 427 653 l 2
 446 653 446 653 450 667 c 0
 491 752 491 752 566 807.5 c 0
 641 863 641 863 735 874 c 1
 793 874 l 2
 810 874 810 874 810 894 c 2
 818 954 l 1
 829 1068 829 1068 892 1161.5 c 0
 955 1255 955 1255 1055.5 1308 c 0
 1156 1361 1156 1361 1271 1361 c 0
 1445 1361 1445 1361 1575 1244 c 0
 1705 1127 1705 1127 1723 954 c 1
 1731 894 l 2
 1731 874 1731 874 1750 874 c 2
 1921 874 l 2
 2063 874 2063 874 2166.5 772 c 0
 2270 670 2270 670 2270 530 c 0
 2270 386 2270 386 2167 283.5 c 0
 2064 181 2064 181 1921 181 c 2
 1186 181 l 2
 1168 181 1168 181 1168 161 c 2
 1168 19 l 2
 1168 0 1168 0 1186 0 c 2
 1921 0 l 2
 2065 0 2065 0 2187 71 c 0
 2309 142 2309 142 2380 264 c 0
 2451 386 2451 386 2451 530 c 0
 2451 646 2451 646 2405 744 c 1
 2529 898 2529 898 2529 1094 c 0
 2529 1244 2529 1244 2453.5 1373 c 0
 2378 1502 2378 1502 2248.5 1577.5 c 0
 2119 1653 2119 1653 1968 1653 c 0
 1851 1653 1851 1653 1744.5 1605.5 c 0
 1638 1558 1638 1558 1559 1472 c 1
 1427 1541 1427 1541 1271 1541 c 0
 1045 1541 1045 1541 870 1401 c 0
 695 1261 695 1261 647 1043 c 1
 511 1009 511 1009 407.5 909.5 c 0
 304 810 304 810 263 674 c 0
 261 672 261 672 261 667 c 0
337 -246 m 0
 337 -284 337 -284 365 -309 c 0
 390 -336 390 -336 427 -336 c 2
 1432 -336 l 2
 1469 -336 1469 -336 1495 -309.5 c 0
 1521 -283 1521 -283 1521 -246 c 0
 1521 -206 1521 -206 1495.5 -179.5 c 0
 1470 -153 1470 -153 1432 -153 c 2
 427 -153 l 2
 389 -153 389 -153 363 -179.5 c 0
 337 -206 337 -206 337 -246 c 0
1135 1835 m 0
 1135 1795 1135 1795 1161 1771 c 2
 1229 1701 l 2
 1255 1675 1255 1675 1293 1675 c 0
 1334 1675 1334 1675 1359.5 1700.5 c 0
 1385 1726 1385 1726 1385 1766 c 0
 1385 1803 1385 1803 1359 1829 c 2
 1290 1898 l 2
 1263 1925 1263 1925 1229 1925 c 0
 1189 1925 1189 1925 1162 1898.5 c 0
 1135 1872 1135 1872 1135 1835 c 0
1707 1368 m 1
 1813 1469 1813 1469 1968 1469 c 0
 2124 1469 2124 1469 2233.5 1359.5 c 0
 2343 1250 2343 1250 2343 1094 c 0
 2343 987 2343 987 2294 901 c 1
 2143 1053 2143 1053 1921 1053 c 2
 1889 1053 l 1
 1843 1237 1843 1237 1707 1368 c 1
1878 1925 m 2
 1878 1887 1878 1887 1904.5 1862 c 0
 1931 1837 1931 1837 1968 1837 c 0
 2008 1837 2008 1837 2032.5 1861.5 c 0
 2057 1886 2057 1886 2057 1925 c 2
 2057 2143 l 2
 2057 2182 2057 2182 2032 2208.5 c 0
 2007 2235 2007 2235 1968 2235 c 0
 1931 2235 1931 2235 1904.5 2208 c 0
 1878 2181 1878 2181 1878 2143 c 2
 1878 1925 l 2
2467 1681 m 0
 2467 1642 2467 1642 2494 1617 c 1
 2514 1591 2514 1591 2558 1591 c 0
 2601 1591 2601 1591 2621 1617 c 1
 2777 1771 l 2
 2803 1795 2803 1795 2803 1837 c 0
 2803 1874 2803 1874 2776.5 1900.5 c 0
 2750 1927 2750 1927 2712 1927 c 0
 2674 1927 2674 1927 2647 1902 c 2
 2494 1744 l 2
 2467 1718 2467 1718 2467 1681 c 0
2552 416 m 0
 2552 377 2552 377 2577 352 c 2
 2647 285 l 1
 2686 256 2686 256 2712 256 c 0
 2738 256 2738 256 2777 285 c 1
 2803 311 2803 311 2803 349 c 0
 2803 386 2803 386 2777 414 c 2
 2709 479 l 2
 2679 507 2679 507 2640 507 c 0
 2602 507 2602 507 2577 481 c 0
 2552 455 2552 455 2552 416 c 0
2706 1090 m 0
 2706 1051 2706 1051 2735 1025 c 0
 2764 998 2764 998 2799 998 c 2
 3016 998 l 2
 3052 998 3052 998 3078.5 1025 c 0
 3105 1052 3105 1052 3105 1090 c 0
 3105 1126 3105 1126 3079 1150.5 c 0
 3053 1175 3053 1175 3016 1175 c 2
 2799 1175 l 2
 2760 1175 2760 1175 2733 1150.5 c 0
 2706 1126 2706 1126 2706 1090 c 0
EndSplineSet
EndChar

StartChar: uniF002
Encoding: 22 61442 22
Width: 2867
Flags: W
LayerCount: 2
Fore
SplineSet
0 528 m 0
 0 384 0 384 70.5 262 c 0
 141 140 141 140 262 69.5 c 0
 383 -1 383 -1 526 -1 c 2
 1681 -1 l 2
 1824 -1 1824 -1 1946 69.5 c 0
 2068 140 2068 140 2139 262 c 0
 2210 384 2210 384 2210 528 c 0
 2210 634 2210 634 2165 741 c 1
 2287 890 2287 890 2287 1094 c 0
 2287 1208 2287 1208 2243 1311.5 c 0
 2199 1415 2199 1415 2124 1490 c 0
 2049 1565 2049 1565 1945.5 1609 c 0
 1842 1653 1842 1653 1728 1653 c 0
 1491 1653 1491 1653 1314 1467 c 1
 1190 1537 1190 1537 1026 1537 c 0
 801 1537 801 1537 628 1397.5 c 0
 455 1258 455 1258 406 1040 c 1
 227 999 227 999 113.5 856 c 0
 0 713 0 713 0 528 c 0
182 528 m 0
 182 662 182 662 271.5 759 c 0
 361 856 361 856 496 872 c 1
 549 875 l 2
 569 875 569 875 569 894 c 2
 576 952 l 2
 598 1125 598 1125 726 1241.5 c 0
 854 1358 854 1358 1026 1358 c 0
 1202 1358 1202 1358 1332.5 1241 c 0
 1463 1124 1463 1124 1479 952 c 1
 1487 890 l 2
 1491 872 1491 872 1509 872 c 2
 1681 872 l 2
 1822 872 1822 872 1924 770 c 0
 2026 668 2026 668 2026 528 c 0
 2026 383 2026 383 1924.5 280.5 c 0
 1823 178 1823 178 1681 178 c 2
 526 178 l 2
 386 178 386 178 284 281.5 c 0
 182 385 182 385 182 528 c 0
897 1837 m 0
 897 1798 897 1798 923 1770 c 2
 993 1702 l 1
 1033 1672 1033 1672 1061 1675 c 0
 1094 1675 1094 1675 1120 1702.5 c 0
 1146 1730 1146 1730 1146 1769 c 0
 1146 1808 1146 1808 1118 1832 c 1
 1055 1902 l 1
 1026 1928 1026 1928 990 1928 c 0
 951 1928 951 1928 924 1901.5 c 0
 897 1875 897 1875 897 1837 c 0
1467 1365 m 1
 1578 1472 1578 1472 1728 1472 c 0
 1886 1472 1886 1472 1996.5 1362 c 0
 2107 1252 2107 1252 2107 1094 c 0
 2107 994 2107 994 2053 898 c 1
 1898 1051 1898 1051 1681 1051 c 2
 1647 1051 l 1
 1607 1225 1607 1225 1467 1365 c 1
1640 1928 m 2
 1640 1887 1640 1887 1665 1862 c 0
 1690 1837 1690 1837 1728 1837 c 0
 1769 1837 1769 1837 1794 1862 c 0
 1819 1887 1819 1887 1819 1928 c 2
 1819 2146 l 2
 1819 2184 1819 2184 1793.5 2209 c 0
 1768 2234 1768 2234 1728 2234 c 0
 1690 2234 1690 2234 1665 2209 c 0
 1640 2184 1640 2184 1640 2146 c 2
 1640 1928 l 2
2229 1683 m 0
 2229 1642 2229 1642 2253 1617 c 1
 2287 1591 2287 1591 2319 1591 c 0
 2348 1591 2348 1591 2382 1617 c 1
 2535 1770 l 2
 2561 1799 2561 1799 2561 1838 c 0
 2561 1876 2561 1876 2535 1902 c 0
 2509 1928 2509 1928 2472 1928 c 0
 2434 1928 2434 1928 2410 1902 c 2
 2253 1749 l 1
 2229 1720 2229 1720 2229 1683 c 0
2314 421 m 0
 2314 383 2314 383 2341 354 c 2
 2410 287 l 2
 2434 261 2434 261 2472 261 c 0
 2510 261 2510 261 2535.5 287.5 c 0
 2561 314 2561 314 2561 354 c 0
 2561 390 2561 390 2535 416 c 2
 2466 485 l 2
 2440 511 2440 511 2405 511 c 0
 2367 511 2367 511 2340.5 485 c 0
 2314 459 2314 459 2314 421 c 0
2470 1094 m 0
 2470 1057 2470 1057 2498 1032 c 0
 2524 1006 2524 1006 2563 1006 c 2
 2781 1006 l 2
 2818 1006 2818 1006 2842.5 1031 c 0
 2867 1056 2867 1056 2867 1094 c 0
 2867 1132 2867 1132 2842.5 1158.5 c 0
 2818 1185 2818 1185 2781 1185 c 2
 2563 1185 l 2
 2525 1185 2525 1185 2497.5 1158 c 0
 2470 1131 2470 1131 2470 1094 c 0
EndSplineSet
EndChar

StartChar: uniF003
Encoding: 23 61443 23
Width: 3132
Flags: W
LayerCount: 2
Fore
SplineSet
0 85 m 0
 0 48 0 48 27 22.5 c 0
 54 -3 54 -3 94 -3 c 2
 2090 -3 l 2
 2128 -3 2128 -3 2155 22.5 c 0
 2182 48 2182 48 2182 85 c 0
 2182 123 2182 123 2155 149.5 c 0
 2128 176 2128 176 2090 176 c 2
 94 176 l 2
 54 176 54 176 27 149.5 c 0
 0 123 0 123 0 85 c 0
280 419 m 0
 280 382 280 382 307 357 c 0
 334 328 334 328 371 328 c 2
 2368 328 l 2
 2405 328 2405 328 2430.5 354.5 c 0
 2456 381 2456 381 2456 419 c 0
 2456 456 2456 456 2431 481.5 c 0
 2406 507 2406 507 2368 507 c 2
 371 507 l 2
 333 507 333 507 306.5 481.5 c 0
 280 456 280 456 280 419 c 0
293 675 m 0
 293 661 293 661 310 661 c 2
 463 661 l 2
 474 661 474 661 485 678 c 0
 523 761 523 761 598.5 814 c 0
 674 867 674 867 765 874 c 1
 823 882 l 2
 841 882 841 882 841 901 c 2
 848 955 l 1
 865 1128 865 1128 994.5 1244 c 0
 1124 1360 1124 1360 1299 1360 c 0
 1472 1360 1472 1360 1601.5 1245 c 0
 1731 1130 1731 1130 1749 959 c 1
 1757 897 l 2
 1757 879 1757 879 1777 879 c 2
 1949 879 l 2
 2052 879 2052 879 2136.5 824 c 0
 2221 769 2221 769 2262 678 c 0
 2273 661 2273 661 2283 661 c 2
 2437 661 l 2
 2458 661 2458 661 2451 685 c 2
 2430 744 l 1
 2551 894 2551 894 2551 1097 c 0
 2551 1210 2551 1210 2507 1313 c 0
 2463 1416 2463 1416 2389 1491 c 0
 2315 1566 2315 1566 2211 1610 c 0
 2107 1654 2107 1654 1993 1654 c 0
 1746 1654 1746 1654 1585 1475 c 1
 1450 1542 1450 1542 1299 1542 c 0
 1075 1542 1075 1542 900.5 1401.5 c 0
 726 1261 726 1261 677 1042 c 1
 392 967 392 967 295 685 c 0
 293 682 293 682 293 675 c 0
466 -243 m 0
 466 -281 466 -281 495 -307 c 1
 520 -335 520 -335 558 -335 c 2
 2557 -335 l 2
 2594 -335 2594 -335 2621 -308 c 0
 2648 -281 2648 -281 2648 -243 c 0
 2648 -206 2648 -206 2621.5 -181.5 c 0
 2595 -157 2595 -157 2557 -157 c 2
 558 -157 l 2
 520 -157 520 -157 493 -181.5 c 0
 466 -206 466 -206 466 -243 c 0
1167 1834 m 0
 1167 1796 1167 1796 1192 1771 c 2
 1261 1703 l 2
 1288 1674 1288 1674 1323 1674 c 0
 1359 1674 1359 1674 1386.5 1700.5 c 0
 1414 1727 1414 1727 1414 1766 c 0
 1414 1804 1414 1804 1387 1833 c 2
 1319 1898 l 2
 1293 1926 1293 1926 1255 1926 c 0
 1216 1926 1216 1926 1191.5 1899.5 c 0
 1167 1873 1167 1873 1167 1834 c 0
1734 1367 m 1
 1842 1475 1842 1475 1993 1475 c 0
 2150 1475 2150 1475 2260.5 1364 c 0
 2371 1253 2371 1253 2371 1097 c 0
 2371 993 2371 993 2319 905 c 1
 2167 1057 2167 1057 1949 1057 c 2
 1913 1057 l 1
 1868 1245 1868 1245 1734 1367 c 1
1905 1925 m 2
 1905 1888 1905 1888 1930.5 1862.5 c 0
 1956 1837 1956 1837 1993 1837 c 0
 2033 1837 2033 1837 2060 1862.5 c 0
 2087 1888 2087 1888 2087 1925 c 2
 2087 2143 l 2
 2087 2180 2087 2180 2059 2207 c 0
 2031 2234 2031 2234 1993 2234 c 0
 1956 2234 1956 2234 1930.5 2207.5 c 0
 1905 2181 1905 2181 1905 2143 c 2
 1905 1925 l 2
2491 1682 m 0
 2491 1646 2491 1646 2517 1618 c 0
 2576 1561 2576 1561 2648 1618 c 1
 2800 1771 l 2
 2826 1799 2826 1799 2826 1839 c 0
 2826 1876 2826 1876 2800 1902 c 0
 2774 1928 2774 1928 2737 1928 c 0
 2699 1928 2699 1928 2673 1902 c 2
 2517 1745 l 2
 2491 1717 2491 1717 2491 1682 c 0
2577 424 m 0
 2577 386 2577 386 2605 360 c 2
 2673 291 l 2
 2699 265 2699 265 2735 265 c 0
 2768 265 2768 265 2800 291 c 1
 2826 319 2826 319 2826 359 c 0
 2826 395 2826 395 2800 419 c 2
 2731 489 l 2
 2703 515 2703 515 2667 515 c 0
 2629 515 2629 515 2603 488.5 c 0
 2577 462 2577 462 2577 424 c 0
2735 1097 m 0
 2735 1058 2735 1058 2763 1033 c 1
 2787 1006 2787 1006 2826 1006 c 2
 3045 1006 l 2
 3082 1006 3082 1006 3107.5 1032.5 c 0
 3133 1059 3133 1059 3133 1097 c 0
 3133 1135 3133 1135 3107.5 1161 c 0
 3082 1187 3082 1187 3045 1187 c 2
 2826 1187 l 2
 2788 1187 2788 1187 2761.5 1160.5 c 0
 2735 1134 2735 1134 2735 1097 c 0
EndSplineSet
EndChar

StartChar: uniF004
Encoding: 24 61444 24
Width: 2884
Flags: W
LayerCount: 2
Fore
SplineSet
0 530 m 0
 0 316 0 316 149 162.5 c 0
 298 9 298 9 512 -1 c 0
 531 -1 531 -1 531 17 c 2
 531 160 l 2
 531 179 531 179 512 179 c 0
 375 186 375 186 278.5 288.5 c 0
 182 391 182 391 182 530 c 0
 182 663 182 663 272.5 761 c 0
 363 859 363 859 497 875 c 1
 554 879 l 2
 575 879 575 879 575 898 c 2
 582 957 l 2
 599 1130 599 1130 728.5 1246.5 c 0
 858 1363 858 1363 1034 1363 c 0
 1208 1363 1208 1363 1339.5 1246.5 c 0
 1471 1130 1471 1130 1489 957 c 1
 1497 895 l 2
 1497 875 1497 875 1515 875 c 2
 1688 875 l 2
 1831 875 1831 875 1935.5 772.5 c 0
 2040 670 2040 670 2040 530 c 0
 2040 391 2040 391 1943 288.5 c 0
 1846 186 1846 186 1709 179 c 0
 1688 179 1688 179 1688 160 c 2
 1688 17 l 2
 1688 -1 1688 -1 1709 -1 c 0
 1923 6 1923 6 2071 160.5 c 0
 2219 315 2219 315 2219 530 c 0
 2219 649 2219 649 2175 744 c 1
 2301 898 2301 898 2301 1099 c 0
 2301 1250 2301 1250 2225 1379.5 c 0
 2149 1509 2149 1509 2019.5 1585 c 0
 1890 1661 1890 1661 1739 1661 c 0
 1489 1661 1489 1661 1323 1474 c 1
 1195 1544 1195 1544 1034 1544 c 0
 808 1544 808 1544 632.5 1404 c 0
 457 1264 457 1264 407 1045 c 1
 230 1003 230 1003 115 859 c 0
 0 715 0 715 0 530 c 0
569 -223 m 1
 585 -258 585 -258 618 -271 c 0
 650 -287 650 -287 685.5 -273.5 c 0
 721 -260 721 -260 733 -226 c 0
 749 -191 749 -191 735.5 -157 c 0
 722 -123 722 -123 688 -110 c 1
 656 -93 656 -93 621.5 -107 c 0
 587 -121 587 -121 571 -157 c 0
 556 -184 556 -184 569 -223 c 1
638 80 m 0
 638 58 638 58 648 39 c 0
 679 -10 679 -10 743 -10 c 0
 794 -10 794 -10 817 59 c 2
 928 402 l 2
 941 441 941 441 920.5 473.5 c 0
 900 506 900 506 862 513 c 1
 827 524 827 524 794.5 506.5 c 0
 762 489 762 489 751 453 c 2
 641 109 l 2
 638 94 638 94 638 80 c 0
837 -519 m 0
 837 -540 837 -540 842 -550 c 0
 856 -585 856 -585 890 -598 c 0
 905 -606 905 -606 927 -606 c 0
 937 -606 937 -606 959 -600 c 0
 994 -587 994 -587 1009.5 -551.5 c 0
 1025 -516 1025 -516 1009 -481 c 0
 993 -446 993 -446 961 -432.5 c 0
 929 -419 929 -419 895 -433 c 0
 864 -445 864 -445 850.5 -470.5 c 0
 837 -496 837 -496 837 -519 c 0
902 1843 m 0
 902 1803 902 1803 928 1779 c 2
 997 1710 l 2
 1023 1684 1023 1684 1055 1681 c 0
 1088 1676 1088 1676 1120.5 1705.5 c 0
 1153 1735 1153 1735 1153 1774 c 0
 1153 1812 1153 1812 1127 1838 c 2
 1059 1906 l 2
 1029 1933 1029 1933 993 1933 c 0
 954 1933 954 1933 928 1907 c 0
 902 1881 902 1881 902 1843 c 0
915 -232 m 0
 915 -258 915 -258 932 -283 c 0
 949 -308 949 -308 983 -318 c 0
 1001 -322 1001 -322 1009 -322 c 0
 1033 -322 1033 -322 1050 -314 c 0
 1082 -301 1082 -301 1096 -253 c 2
 1288 402 l 2
 1299 440 1299 440 1282 471.5 c 0
 1265 503 1265 503 1229 513 c 0
 1191 524 1191 524 1158.5 507 c 0
 1126 490 1126 490 1115 453 c 2
 919 -207 l 2
 915 -227 915 -227 915 -232 c 0
1283 -191 m 0
 1283 -211 1283 -211 1290 -224 c 0
 1304 -257 1304 -257 1338 -271 c 0
 1355 -279 1355 -279 1375 -279 c 0
 1385 -279 1385 -279 1407 -273 c 0
 1443 -259 1443 -259 1456 -226 c 0
 1469 -191 1469 -191 1456 -158.5 c 0
 1443 -126 1443 -126 1411 -110 c 0
 1375 -93 1375 -93 1341 -107 c 0
 1307 -121 1307 -121 1290 -157 c 0
 1283 -170 1283 -170 1283 -191 c 0
1360 83 m 0
 1360 58 1360 58 1376.5 34.5 c 0
 1393 11 1393 11 1426 1 c 0
 1440 -2 1440 -2 1453 -2 c 0
 1515 -2 1515 -2 1537 63 c 2
 1647 402 l 2
 1659 439 1659 439 1640 471 c 0
 1621 503 1621 503 1585 513 c 0
 1547 524 1547 524 1516.5 507 c 0
 1486 490 1486 490 1474 453 c 2
 1365 112 l 2
 1360 90 1360 90 1360 83 c 0
1474 1371 m 1
 1581 1474 1581 1474 1739 1474 c 0
 1895 1474 1895 1474 2006 1364.5 c 0
 2117 1255 2117 1255 2117 1099 c 0
 2117 999 2117 999 2062 902 c 1
 1909 1056 1909 1056 1688 1056 c 2
 1655 1056 l 1
 1608 1241 1608 1241 1474 1371 c 1
1647 1933 m 2
 1647 1895 1647 1895 1674 1868 c 0
 1701 1841 1701 1841 1739 1841 c 0
 1776 1841 1776 1841 1801.5 1868 c 0
 1827 1895 1827 1895 1827 1933 c 2
 1827 2153 l 2
 1827 2191 1827 2191 1801.5 2218 c 0
 1776 2245 1776 2245 1739 2245 c 0
 1701 2245 1701 2245 1674 2218 c 0
 1647 2191 1647 2191 1647 2153 c 2
 1647 1933 l 2
2239 1689 m 0
 2239 1650 2239 1650 2266 1625 c 1
 2290 1597 2290 1597 2327.5 1597.5 c 0
 2365 1598 2365 1598 2392 1625 c 2
 2546 1779 l 2
 2575 1803 2575 1803 2575 1843 c 0
 2575 1881 2575 1881 2547.5 1908 c 0
 2520 1935 2520 1935 2482 1935 c 0
 2447 1935 2447 1935 2421 1906 c 2
 2266 1753 l 2
 2239 1728 2239 1728 2239 1689 c 0
2325 419 m 0
 2325 383 2325 383 2351 355 c 2
 2421 288 l 1
 2444 259 2444 259 2485 259 c 0
 2523 259 2523 259 2546 288 c 1
 2575 314 2575 314 2575 352 c 0
 2575 390 2575 390 2546 417 c 2
 2477 483 l 2
 2452 511 2452 511 2415 511 c 0
 2378 511 2378 511 2351.5 484 c 0
 2325 457 2325 457 2325 419 c 0
2481 1099 m 0
 2481 1061 2481 1061 2509 1035 c 0
 2537 1007 2537 1007 2575 1007 c 2
 2792 1007 l 2
 2830 1007 2830 1007 2857.5 1034 c 0
 2885 1061 2885 1061 2885 1099 c 0
 2885 1136 2885 1136 2858 1161.5 c 0
 2831 1187 2831 1187 2792 1187 c 2
 2575 1187 l 2
 2535 1187 2535 1187 2508 1161.5 c 0
 2481 1136 2481 1136 2481 1099 c 0
EndSplineSet
EndChar

StartChar: uniF005
Encoding: 25 61445 25
Width: 2868
Flags: W
LayerCount: 2
Fore
SplineSet
0 528 m 0
 0 315 0 315 148.5 162 c 0
 297 9 297 9 511 -1 c 0
 529 -1 529 -1 529 17 c 2
 529 163 l 2
 529 182 529 182 511 182 c 0
 372 193 372 193 277 292.5 c 0
 182 392 182 392 182 528 c 0
 182 662 182 662 272.5 761.5 c 0
 363 861 363 861 496 872 c 1
 552 880 l 2
 573 880 573 880 573 898 c 2
 579 952 l 2
 596 1125 596 1125 725.5 1241.5 c 0
 855 1358 855 1358 1031 1358 c 0
 1205 1358 1205 1358 1334.5 1242 c 0
 1464 1126 1464 1126 1483 952 c 2
 1490 890 l 2
 1490 872 1490 872 1510 872 c 2
 1681 872 l 2
 1826 872 1826 872 1928.5 771 c 0
 2031 670 2031 670 2031 528 c 0
 2031 392 2031 392 1936 292.5 c 0
 1841 193 1841 193 1702 182 c 0
 1681 182 1681 182 1681 163 c 2
 1681 17 l 2
 1681 -1 1681 -1 1702 -1 c 0
 1915 6 1915 6 2062.5 160 c 0
 2210 314 2210 314 2210 528 c 0
 2210 636 2210 636 2160 749 c 1
 2287 900 2287 900 2287 1098 c 0
 2287 1212 2287 1212 2242.5 1315.5 c 0
 2198 1419 2198 1419 2123 1494 c 0
 2048 1569 2048 1569 1944.5 1613 c 0
 1841 1657 1841 1657 1728 1657 c 0
 1481 1657 1481 1657 1314 1472 c 1
 1177 1538 1177 1538 1031 1538 c 0
 804 1538 804 1538 629.5 1399 c 0
 455 1260 455 1260 406 1040 c 1
 230 999 230 999 115 855.5 c 0
 0 712 0 712 0 528 c 0
800 -674 m 1
 832 -674 l 1
 1399 163 l 2
 1405 170 1405 170 1401.5 177.5 c 0
 1398 185 1398 185 1387 185 c 2
 1154 185 l 1
 1399 634 l 2
 1411 657 1411 657 1384 657 c 2
 1070 657 l 2
 1057 657 1057 657 1047 642 c 1
 817 32 l 1
 813 10 813 10 832 10 c 2
 1063 10 l 1
 800 -674 l 1
894 1841 m 0
 894 1801 894 1801 920 1775 c 2
 990 1706 l 1
 1057 1655 1057 1655 1119 1706 c 1
 1145 1735 1145 1735 1145 1774 c 0
 1145 1811 1145 1811 1119 1837 c 2
 1051 1906 l 2
 1021 1933 1021 1933 985 1933 c 0
 948 1933 948 1933 921 1906 c 0
 894 1879 894 1879 894 1841 c 0
1464 1369 m 1
 1573 1478 1573 1478 1728 1478 c 0
 1884 1478 1884 1478 1994 1367 c 0
 2104 1256 2104 1256 2104 1098 c 0
 2104 1001 2104 1001 2050 905 c 1
 1894 1055 1894 1055 1681 1055 c 2
 1648 1055 l 1
 1605 1237 1605 1237 1464 1369 c 1
1637 1933 m 2
 1637 1893 1637 1893 1662.5 1867 c 0
 1688 1841 1688 1841 1728 1841 c 0
 1766 1841 1766 1841 1791 1866.5 c 0
 1816 1892 1816 1892 1816 1933 c 2
 1816 2151 l 2
 1816 2189 1816 2189 1791 2214 c 0
 1766 2239 1766 2239 1728 2239 c 0
 1690 2239 1690 2239 1663.5 2214 c 0
 1637 2189 1637 2189 1637 2151 c 2
 1637 1933 l 2
2225 1686 m 0
 2225 1649 2225 1649 2254 1622 c 0
 2283 1595 2283 1595 2313 1595 c 0
 2339 1595 2339 1595 2379 1622 c 1
 2533 1775 l 2
 2560 1804 2560 1804 2560 1842 c 0
 2560 1881 2560 1881 2533.5 1907 c 0
 2507 1933 2507 1933 2469 1933 c 0
 2434 1933 2434 1933 2407 1906 c 2
 2254 1753 l 2
 2225 1722 2225 1722 2225 1686 c 0
2312 425 m 0
 2312 388 2312 388 2338 360 c 2
 2407 290 l 2
 2433 264 2433 264 2469 264 c 0
 2507 264 2507 264 2533.5 291 c 0
 2560 318 2560 318 2560 358 c 0
 2560 394 2560 394 2533 419 c 2
 2467 489 l 1
 2437 514 2437 514 2401 514 c 0
 2364 514 2364 514 2338 488 c 0
 2312 462 2312 462 2312 425 c 0
2467 1098 m 0
 2467 1063 2467 1063 2495 1037 c 0
 2522 1010 2522 1010 2559 1010 c 2
 2777 1010 l 2
 2815 1010 2815 1010 2842 1035.5 c 0
 2869 1061 2869 1061 2869 1098 c 0
 2869 1136 2869 1136 2841.5 1163 c 0
 2814 1190 2814 1190 2777 1190 c 2
 2559 1190 l 2
 2522 1190 2522 1190 2494.5 1163 c 0
 2467 1136 2467 1136 2467 1098 c 0
EndSplineSet
EndChar

StartChar: uniF006
Encoding: 26 61446 26
Width: 2885
Flags: W
LayerCount: 2
Fore
SplineSet
0 523 m 0
 0 311 0 311 146 160 c 0
 292 9 292 9 506 -1 c 0
 525 -1 525 -1 525 17 c 2
 525 159 l 2
 525 178 525 178 506 178 c 0
 369 185 369 185 275 284.5 c 0
 181 384 181 384 181 523 c 0
 181 658 181 658 271 757 c 0
 361 856 361 856 495 867 c 1
 551 875 l 2
 568 875 568 875 568 890 c 2
 576 949 l 2
 596 1124 596 1124 723.5 1239 c 0
 851 1354 851 1354 1026 1354 c 0
 1201 1354 1201 1354 1331.5 1239 c 0
 1462 1124 1462 1124 1479 952 c 2
 1486 890 l 2
 1490 872 1490 872 1509 872 c 2
 1680 872 l 2
 1822 872 1822 872 1924 769.5 c 0
 2026 667 2026 667 2026 523 c 0
 2026 384 2026 384 1932 284.5 c 0
 1838 185 1838 185 1701 178 c 0
 1680 178 1680 178 1680 159 c 2
 1680 17 l 2
 1680 -1 1680 -1 1701 -1 c 0
 1914 6 1914 6 2060 158 c 0
 2206 310 2206 310 2206 523 c 0
 2206 631 2206 631 2165 737 c 1
 2289 891 2289 891 2289 1094 c 0
 2289 1207 2289 1207 2245 1310.5 c 0
 2201 1414 2201 1414 2126 1489 c 0
 2051 1564 2051 1564 1947.5 1608.5 c 0
 1844 1653 1844 1653 1730 1653 c 0
 1484 1653 1484 1653 1318 1467 c 1
 1175 1537 1175 1537 1026 1537 c 0
 800 1537 800 1537 627.5 1397 c 0
 455 1257 455 1257 406 1037 c 1
 226 996 226 996 113 852.5 c 0
 0 709 0 709 0 523 c 0
571 -227 m 0
 571 -254 571 -254 588.5 -281 c 0
 606 -308 606 -308 639 -318 c 0
 676 -329 676 -329 707.5 -314 c 0
 739 -299 739 -299 750 -254 c 2
 765 -189 l 2
 773 -153 773 -153 754.5 -121.5 c 0
 736 -90 736 -90 699 -79 c 0
 663 -68 663 -68 631 -87 c 0
 599 -106 599 -106 589 -144 c 2
 574 -207 l 2
 571 -216 571 -216 571 -227 c 0
653 82 m 0
 653 47 653 47 679 21 c 0
 704 -6 704 -6 739 -6 c 0
 777 -6 777 -6 803.5 19.5 c 0
 830 45 830 45 830 82 c 0
 830 119 830 119 803.5 144.5 c 0
 777 170 777 170 739 170 c 0
 702 170 702 170 677.5 145 c 0
 653 120 653 120 653 82 c 0
718 325 m 0
 716 300 716 300 732 276.5 c 0
 748 253 748 253 783 242 c 0
 816 232 816 232 849.5 249.5 c 0
 883 267 883 267 894 304 c 2
 923 400 l 2
 935 439 935 439 916 469.5 c 0
 897 500 897 500 858 511 c 0
 823 522 823 522 790.5 504 c 0
 758 486 758 486 747 451 c 2
 721 353 l 1
 718 326 718 326 718 325 c 0
841 -560 m 0
 841 -587 841 -587 858 -612.5 c 0
 875 -638 875 -638 910 -648 c 0
 924 -651 924 -651 936 -651 c 0
 1005 -651 1005 -651 1021 -586 c 2
 1035 -523 l 2
 1045 -482 1045 -482 1026 -450 c 0
 1007 -418 1007 -418 970 -411 c 1
 936 -400 936 -400 903 -418.5 c 0
 870 -437 870 -437 859 -473 c 2
 845 -536 l 2
 841 -554 841 -554 841 -560 c 0
901 1834 m 0
 901 1796 901 1796 927 1770 c 2
 997 1702 l 2
 1019 1677 1019 1677 1054.5 1674.5 c 0
 1090 1672 1090 1672 1121 1702 c 0
 1147 1728 1147 1728 1147 1765 c 0
 1147 1803 1147 1803 1121 1829 c 2
 1054 1898 l 2
 1029 1923 1029 1923 991 1926 c 0
 954 1926 954 1926 927.5 1899 c 0
 901 1872 901 1872 901 1834 c 0
925 -250 m 0
 925 -286 925 -286 951 -312 c 0
 977 -338 977 -338 1013 -338 c 0
 1051 -338 1051 -338 1076 -313 c 0
 1101 -288 1101 -288 1101 -250 c 0
 1101 -213 1101 -213 1076 -188 c 0
 1051 -163 1051 -163 1013 -163 c 0
 975 -163 975 -163 950 -188 c 0
 925 -213 925 -213 925 -250 c 0
991 -8 m 0
 989 -32 989 -32 1005.5 -58 c 0
 1022 -84 1022 -84 1054 -90 c 0
 1091 -100 1091 -100 1122 -84 c 0
 1153 -68 1153 -68 1166 -24 c 2
 1194 72 l 2
 1205 107 1205 107 1186.5 139 c 0
 1168 171 1168 171 1130 182 c 0
 1095 193 1095 193 1062 173.5 c 0
 1029 154 1029 154 1018 117 c 2
 994 21 l 2
 991 8 991 8 991 -8 c 0
1286 -237 m 0
 1286 -264 1286 -264 1302 -288.5 c 0
 1318 -313 1318 -313 1351 -323 c 0
 1356 -323 1356 -323 1366 -325 c 0
 1376 -327 1376 -327 1381 -327 c 0
 1446 -327 1446 -327 1462 -257 c 2
 1477 -193 l 2
 1488 -159 1488 -159 1469.5 -126 c 0
 1451 -93 1451 -93 1415 -82 c 0
 1375 -72 1375 -72 1342.5 -90.5 c 0
 1310 -109 1310 -109 1299 -147 c 1
 1289 -210 l 2
 1289 -212 1289 -212 1287.5 -222 c 0
 1286 -232 1286 -232 1286 -237 c 0
1365 78 m 0
 1365 41 1365 41 1391 17 c 0
 1415 -9 1415 -9 1453 -9 c 0
 1491 -9 1491 -9 1516 16 c 0
 1541 41 1541 41 1541 78 c 0
 1541 116 1541 116 1516 141 c 0
 1491 166 1491 166 1453 166 c 0
 1415 166 1415 166 1390 141 c 0
 1365 116 1365 116 1365 78 c 0
1430 325 m 0
 1430 298 1430 298 1447 273.5 c 0
 1464 249 1464 249 1499 239 c 0
 1502 239 1502 239 1512 237 c 0
 1522 235 1522 235 1527 235 c 0
 1544 235 1544 235 1566 245 c 0
 1599 262 1599 262 1609 301 c 2
 1635 397 l 2
 1645 433 1645 433 1627.5 464.5 c 0
 1610 496 1610 496 1574 507 c 0
 1537 518 1537 518 1505.5 501 c 0
 1474 484 1474 484 1463 447 c 2
 1433 350 l 2
 1433 347 1433 347 1431.5 338.5 c 0
 1430 330 1430 330 1430 325 c 0
1467 1361 m 1
 1573 1467 1573 1467 1730 1467 c 0
 1888 1467 1888 1467 1999 1358.5 c 0
 2110 1250 2110 1250 2110 1094 c 0
 2110 988 2110 988 2053 894 c 1
 1896 1051 1896 1051 1680 1051 c 2
 1647 1051 l 1
 1602 1226 1602 1226 1467 1361 c 1
1643 1923 m 2
 1643 1886 1643 1886 1667.5 1861.5 c 0
 1692 1837 1692 1837 1730 1837 c 0
 1769 1837 1769 1837 1796 1861.5 c 0
 1823 1886 1823 1886 1823 1923 c 2
 1823 2143 l 2
 1823 2180 1823 2180 1795.5 2207 c 0
 1768 2234 1768 2234 1730 2234 c 0
 1693 2234 1693 2234 1668 2207.5 c 0
 1643 2181 1643 2181 1643 2143 c 2
 1643 1923 l 2
2232 1681 m 0
 2232 1641 2232 1641 2256 1617 c 0
 2313 1560 2313 1560 2385 1617 c 1
 2538 1770 l 2
 2565 1797 2565 1797 2565 1837 c 0
 2565 1875 2565 1875 2538.5 1901.5 c 0
 2512 1928 2512 1928 2474 1928 c 0
 2437 1928 2437 1928 2409 1902 c 2
 2256 1744 l 2
 2232 1721 2232 1721 2232 1681 c 0
2315 417 m 0
 2315 380 2315 380 2344 354 c 2
 2409 287 l 1
 2441 261 2441 261 2474 261 c 0
 2506 261 2506 261 2538 287 c 0
 2565 312 2565 312 2565 350 c 0
 2565 386 2565 386 2538 416 c 2
 2469 481 l 2
 2445 508 2445 508 2408 508 c 0
 2371 508 2371 508 2344 481 c 0
 2315 454 2315 454 2315 417 c 0
2473 1094 m 0
 2473 1056 2473 1056 2501 1031 c 0
 2530 1002 2530 1002 2567 1002 c 2
 2783 1002 l 2
 2820 1002 2820 1002 2845.5 1029 c 0
 2871 1056 2871 1056 2871 1094 c 0
 2871 1132 2871 1132 2845.5 1158.5 c 0
 2820 1185 2820 1185 2783 1185 c 2
 2567 1185 l 2
 2529 1185 2529 1185 2501 1158 c 0
 2473 1131 2473 1131 2473 1094 c 0
EndSplineSet
EndChar

StartChar: uniF007
Encoding: 27 61447 27
Width: 2885
Flags: W
LayerCount: 2
Fore
SplineSet
0 527 m 0
 0 347 0 347 107 205.5 c 0
 214 64 214 64 382 17 c 0
 397 15 397 15 408 25 c 2
 533 175 l 1
 390 175 390 175 288 278.5 c 0
 186 382 186 382 186 527 c 0
 186 660 186 660 276.5 758 c 0
 367 856 367 856 502 872 c 1
 554 875 l 2
 575 875 575 875 575 895 c 2
 583 953 l 1
 600 1126 600 1126 730 1243 c 0
 860 1360 860 1360 1035 1360 c 0
 1211 1360 1211 1360 1342 1243 c 0
 1473 1126 1473 1126 1490 953 c 2
 1497 890 l 1
 1504 872 1504 872 1520 872 c 2
 1695 872 l 2
 1836 872 1836 872 1938 770.5 c 0
 2040 669 2040 669 2040 527 c 0
 2040 392 2040 392 1949.5 291 c 0
 1859 190 1859 190 1729 179 c 0
 1651 170 1651 170 1633 149 c 2
 1399 -152 l 2
 1377 -182 1377 -182 1382 -219 c 0
 1387 -256 1387 -256 1415 -279 c 1
 1439 -306 1439 -306 1478.5 -301 c 0
 1518 -296 1518 -296 1542 -263 c 2
 1747 -1 l 1
 1878 12 1878 12 1986.5 86 c 0
 2095 160 2095 160 2158 277 c 0
 2221 394 2221 394 2221 527 c 0
 2221 642 2221 642 2176 741 c 1
 2302 894 2302 894 2302 1096 c 0
 2302 1209 2302 1209 2257 1313 c 0
 2212 1417 2212 1417 2136.5 1492 c 0
 2061 1567 2061 1567 1957 1612 c 0
 1853 1657 1853 1657 1739 1657 c 0
 1499 1657 1499 1657 1325 1471 c 1
 1198 1541 1198 1541 1035 1541 c 0
 809 1541 809 1541 635 1400.5 c 0
 461 1260 461 1260 414 1041 c 1
 233 1000 233 1000 116.5 856 c 0
 0 712 0 712 0 527 c 0
416 -352 m 0
 428 -387 428 -387 465 -403 c 0
 500 -419 500 -419 536 -404 c 0
 572 -389 572 -389 585 -354 c 0
 600 -321 600 -321 585.5 -287.5 c 0
 571 -254 571 -254 538 -238 c 0
 503 -222 503 -222 467.5 -236 c 0
 432 -250 432 -250 419 -285 c 0
 406 -326 406 -326 416 -352 c 0
609 -59 m 2
 609 -71 l 2
 612 -106 612 -106 641 -130 c 0
 669 -154 669 -154 708 -151 c 0
 747 -148 747 -148 769 -120 c 2
 1002 181 l 2
 1025 210 1025 210 1022 248.5 c 0
 1019 287 1019 287 991 309 c 0
 962 333 962 333 923.5 329 c 0
 885 325 885 325 859 296 c 2
 630 -3 l 2
 609 -29 609 -29 609 -59 c 2
664 -578 m 0
 664 -588 664 -588 670 -610 c 0
 684 -645 684 -645 719 -659 c 0
 737 -666 737 -666 757 -666 c 0
 772 -666 772 -666 790 -661 c 0
 824 -648 824 -648 837 -614 c 0
 853 -579 853 -579 839.5 -543 c 0
 826 -507 826 -507 792 -494 c 0
 757 -478 757 -478 720.5 -492.5 c 0
 684 -507 684 -507 672 -541 c 0
 664 -558 664 -558 664 -578 c 0
842 -325 m 2
 842 -336 l 2
 845 -372 845 -372 877 -398 c 1
 901 -424 901 -424 941 -419.5 c 0
 981 -415 981 -415 1005 -383 c 2
 1447 175 l 2
 1469 207 1469 207 1465 243.5 c 0
 1461 280 1461 280 1432 306 c 0
 1403 329 1403 329 1366 324.5 c 0
 1329 320 1329 320 1306 291 c 2
 862 -270 l 2
 842 -294 842 -294 842 -325 c 2
904 1839 m 0
 904 1800 904 1800 933 1776 c 1
 998 1706 l 2
 1023 1681 1023 1681 1056 1678 c 0
 1089 1673 1089 1673 1121.5 1702 c 0
 1154 1731 1154 1731 1154 1770 c 0
 1154 1806 1154 1806 1128 1834 c 2
 1059 1903 l 2
 1035 1929 1035 1929 997 1929 c 0
 958 1929 958 1929 931 1903 c 0
 904 1877 904 1877 904 1839 c 0
1218 -447 m 0
 1218 -466 1218 -466 1225 -480 c 0
 1239 -515 1239 -515 1273 -529 c 0
 1290 -537 1290 -537 1310 -537 c 0
 1320 -537 1320 -537 1342 -531 c 0
 1378 -517 1378 -517 1391 -482 c 0
 1407 -447 1407 -447 1393.5 -411.5 c 0
 1380 -376 1380 -376 1346 -363 c 0
 1311 -347 1311 -347 1274.5 -361 c 0
 1238 -375 1238 -375 1225 -409 c 0
 1218 -427 1218 -427 1218 -447 c 0
1475 1368 m 1
 1588 1471 1588 1471 1739 1471 c 0
 1897 1471 1897 1471 2009 1361.5 c 0
 2121 1252 2121 1252 2121 1096 c 0
 2121 990 2121 990 2066 898 c 1
 1911 1053 1911 1053 1695 1053 c 2
 1659 1053 l 1
 1615 1237 1615 1237 1475 1368 c 1
1648 1929 m 2
 1648 1892 1648 1892 1674.5 1866.5 c 0
 1701 1841 1701 1841 1739 1841 c 0
 1778 1841 1778 1841 1805 1866.5 c 0
 1832 1892 1832 1892 1832 1929 c 2
 1832 2150 l 2
 1832 2187 1832 2187 1804.5 2214 c 0
 1777 2241 1777 2241 1739 2241 c 0
 1702 2241 1702 2241 1675 2214.5 c 0
 1648 2188 1648 2188 1648 2150 c 2
 1648 1929 l 2
2243 1686 m 0
 2243 1648 2243 1648 2267 1622 c 0
 2295 1595 2295 1595 2332.5 1594.5 c 0
 2370 1594 2370 1594 2393 1622 c 1
 2552 1776 l 2
 2578 1802 2578 1802 2578 1841 c 0
 2578 1879 2578 1879 2550.5 1906.5 c 0
 2523 1934 2523 1934 2486 1934 c 0
 2451 1934 2451 1934 2422 1907 c 2
 2267 1750 l 2
 2243 1724 2243 1724 2243 1686 c 0
2326 416 m 0
 2326 378 2326 378 2352 352 c 2
 2422 285 l 2
 2448 259 2448 259 2480 256 c 2
 2486 256 l 2
 2514 256 2514 256 2552 285 c 1
 2578 311 2578 311 2578 347 c 0
 2578 385 2578 385 2552 414 c 2
 2482 480 l 2
 2456 507 2456 507 2419 507 c 0
 2380 507 2380 507 2353 480.5 c 0
 2326 454 2326 454 2326 416 c 0
2486 1096 m 0
 2486 1058 2486 1058 2512 1032 c 0
 2538 1003 2538 1003 2576 1003 c 2
 2794 1003 l 2
 2832 1003 2832 1003 2859 1030.5 c 0
 2886 1058 2886 1058 2886 1096 c 0
 2886 1133 2886 1133 2859 1158.5 c 0
 2832 1184 2832 1184 2794 1184 c 2
 2576 1184 l 2
 2538 1184 2538 1184 2512 1158.5 c 0
 2486 1133 2486 1133 2486 1096 c 0
EndSplineSet
EndChar

StartChar: uniF008
Encoding: 28 61448 28
Width: 2877
Flags: W
LayerCount: 2
Fore
SplineSet
0 529 m 0
 0 316 0 316 148.5 162.5 c 0
 297 9 297 9 512 -1 c 0
 530 -1 530 -1 530 17 c 2
 530 160 l 2
 530 178 530 178 512 178 c 0
 375 185 375 185 278.5 287.5 c 0
 182 390 182 390 182 529 c 0
 182 661 182 661 272.5 759 c 0
 363 857 363 857 497 873 c 1
 553 878 l 2
 574 878 574 878 574 896 c 2
 581 954 l 2
 598 1127 598 1127 727.5 1244 c 0
 857 1361 857 1361 1032 1361 c 0
 1206 1361 1206 1361 1337 1244 c 0
 1468 1127 1468 1127 1486 954 c 1
 1494 893 l 2
 1494 873 1494 873 1512 873 c 2
 1685 873 l 2
 1827 873 1827 873 1930.5 771 c 0
 2034 669 2034 669 2034 529 c 0
 2034 390 2034 390 1938 287.5 c 0
 1842 185 1842 185 1705 178 c 0
 1685 178 1685 178 1685 160 c 2
 1685 17 l 2
 1685 -1 1685 -1 1705 -1 c 0
 1918 6 1918 6 2066.5 160.5 c 0
 2215 315 2215 315 2215 529 c 0
 2215 644 2215 644 2170 743 c 1
 2295 898 2295 898 2295 1096 c 0
 2295 1248 2295 1248 2219.5 1377.5 c 0
 2144 1507 2144 1507 2015 1582 c 0
 1886 1657 1886 1657 1735 1657 c 0
 1486 1657 1486 1657 1321 1471 c 1
 1190 1541 1190 1541 1032 1541 c 0
 806 1541 806 1541 631 1400.5 c 0
 456 1260 456 1260 407 1042 c 1
 230 1000 230 1000 115 856.5 c 0
 0 713 0 713 0 529 c 0
576 -202 m 0
 576 -229 576 -229 593.5 -254.5 c 0
 611 -280 611 -280 646 -290 c 0
 664 -294 664 -294 675 -294 c 0
 738 -294 738 -294 757 -226 c 2
 926 401 l 2
 937 439 937 439 917.5 472 c 0
 898 505 898 505 861 512 c 1
 826 523 826 523 793.5 505 c 0
 761 487 761 487 750 451 c 2
 581 -179 l 2
 576 -199 576 -199 576 -202 c 0
854 -531 m 0
 854 -561 854 -561 870 -586.5 c 0
 886 -612 886 -612 925 -618 c 0
 943 -622 943 -622 953 -622 c 0
 978 -622 978 -622 1001 -603.5 c 0
 1024 -585 1024 -585 1030 -552 c 2
 1286 401 l 2
 1296 438 1296 438 1278.5 469.5 c 0
 1261 501 1261 501 1225 512 c 0
 1188 523 1188 523 1155.5 505 c 0
 1123 487 1123 487 1113 451 c 2
 857 -502 l 1
 854 -529 854 -529 854 -531 c 0
899 1840 m 0
 899 1802 899 1802 926 1775 c 2
 995 1705 l 1
 1026 1681 1026 1681 1061 1681 c 0
 1095 1681 1095 1681 1123 1706 c 0
 1151 1731 1151 1731 1151 1769 c 0
 1151 1808 1151 1808 1125 1837 c 2
 1057 1906 l 2
 1028 1933 1028 1933 993 1933 c 0
 954 1933 954 1933 926.5 1905.5 c 0
 899 1878 899 1878 899 1840 c 0
1297 -205 m 0
 1297 -231 1297 -231 1313.5 -255.5 c 0
 1330 -280 1330 -280 1363 -290 c 0
 1381 -294 1381 -294 1390 -294 c 0
 1418 -294 1418 -294 1442.5 -278.5 c 0
 1467 -263 1467 -263 1474 -226 c 2
 1643 401 l 2
 1653 438 1653 438 1635.5 469.5 c 0
 1618 501 1618 501 1582 512 c 0
 1544 523 1544 523 1512.5 505 c 0
 1481 487 1481 487 1471 451 c 2
 1302 -179 l 2
 1297 -202 1297 -202 1297 -205 c 0
1471 1368 m 1
 1584 1475 1584 1475 1735 1475 c 0
 1892 1475 1892 1475 2002 1364.5 c 0
 2112 1254 2112 1254 2112 1096 c 0
 2112 996 2112 996 2057 899 c 1
 1902 1054 1902 1054 1685 1054 c 2
 1650 1054 l 1
 1605 1240 1605 1240 1471 1368 c 1
1643 1928 m 2
 1643 1891 1643 1891 1670 1865.5 c 0
 1697 1840 1697 1840 1735 1840 c 0
 1772 1840 1772 1840 1797.5 1865 c 0
 1823 1890 1823 1890 1823 1928 c 2
 1823 2147 l 2
 1823 2188 1823 2188 1798 2214 c 0
 1773 2240 1773 2240 1735 2240 c 0
 1695 2240 1695 2240 1669 2213.5 c 0
 1643 2187 1643 2187 1643 2147 c 2
 1643 1928 l 2
2233 1685 m 0
 2233 1646 2233 1646 2262 1622 c 1
 2284 1597 2284 1597 2320.5 1594.5 c 0
 2357 1592 2357 1592 2387 1622 c 2
 2541 1775 l 2
 2569 1802 2569 1802 2569 1842 c 0
 2569 1881 2569 1881 2542.5 1907 c 0
 2516 1933 2516 1933 2477 1933 c 0
 2444 1933 2444 1933 2415 1906 c 2
 2262 1752 l 2
 2233 1725 2233 1725 2233 1685 c 0
2320 421 m 0
 2320 383 2320 383 2346 354 c 2
 2415 287 l 2
 2443 265 2443 265 2479 265 c 1
 2481 263 l 1
 2517 263 2517 263 2543 289 c 0
 2569 315 2569 315 2569 354 c 0
 2569 392 2569 392 2541 416 c 2
 2475 486 l 2
 2446 512 2446 512 2409 512 c 0
 2372 512 2372 512 2346 485.5 c 0
 2320 459 2320 459 2320 421 c 0
2475 1096 m 0
 2475 1058 2475 1058 2503 1033 c 0
 2531 1005 2531 1005 2569 1005 c 2
 2786 1005 l 2
 2824 1005 2824 1005 2851 1032 c 0
 2878 1059 2878 1059 2878 1096 c 0
 2878 1134 2878 1134 2851 1161.5 c 0
 2824 1189 2824 1189 2786 1189 c 2
 2569 1189 l 2
 2531 1189 2531 1189 2503 1161.5 c 0
 2475 1134 2475 1134 2475 1096 c 0
EndSplineSet
EndChar

StartChar: uniF009
Encoding: 29 61449 29
Width: 2868
Flags: W
LayerCount: 2
Fore
SplineSet
0 530 m 0
 0 317 0 317 148.5 164.5 c 0
 297 12 297 12 511 1 c 0
 529 1 529 1 529 19 c 2
 529 162 l 2
 529 181 529 181 511 181 c 0
 375 188 375 188 280 289.5 c 0
 185 391 185 391 185 530 c 0
 185 664 185 664 274.5 761 c 0
 364 858 364 858 499 874 c 1
 552 878 l 2
 573 878 573 878 573 897 c 2
 579 954 l 2
 596 1127 596 1127 725.5 1243.5 c 0
 855 1360 855 1360 1031 1360 c 0
 1206 1360 1206 1360 1336 1243.5 c 0
 1466 1127 1466 1127 1482 954 c 1
 1490 893 l 2
 1490 874 1490 874 1509 874 c 2
 1687 874 l 2
 1827 874 1827 874 1929 772 c 0
 2031 670 2031 670 2031 530 c 0
 2031 394 2031 394 1935.5 293 c 0
 1840 192 1840 192 1705 181 c 0
 1687 181 1687 181 1687 162 c 2
 1687 19 l 2
 1687 1 1687 1 1705 1 c 0
 1845 5 1845 5 1961 77.5 c 0
 2077 150 2077 150 2143.5 269.5 c 0
 2210 389 2210 389 2210 530 c 0
 2210 644 2210 644 2166 739 c 1
 2287 889 2287 889 2287 1089 c 0
 2287 1203 2287 1203 2243 1306.5 c 0
 2199 1410 2199 1410 2124 1485 c 0
 2049 1560 2049 1560 1945.5 1604 c 0
 1842 1648 1842 1648 1728 1648 c 0
 1487 1648 1487 1648 1322 1471 c 1
 1195 1539 1195 1539 1031 1539 c 0
 805 1539 805 1539 631.5 1399.5 c 0
 458 1260 458 1260 411 1042 c 1
 231 1001 231 1001 115.5 858 c 0
 0 715 0 715 0 530 c 0
578 -184 m 0
 578 -213 578 -213 595 -241 c 0
 612 -269 612 -269 643 -279 c 0
 674 -290 674 -290 708.5 -272.5 c 0
 743 -255 743 -255 755 -214 c 2
 782 -102 l 2
 793 -69 793 -69 774.5 -35.5 c 0
 756 -2 756 -2 720 9 c 0
 680 19 680 19 648 0 c 0
 616 -19 616 -19 609 -57 c 2
 579 -163 l 2
 578 -170 578 -170 578 -184 c 0
717 319 m 0
 717 258 717 258 785 235 c 0
 820 223 820 223 853 240.5 c 0
 886 258 886 258 897 297 c 2
 923 407 l 2
 934 440 934 440 916 473 c 0
 898 506 898 506 862 518 c 0
 823 528 823 528 791 509.5 c 0
 759 491 759 491 752 454 c 2
 720 345 l 2
 717 332 717 332 717 319 c 0
847 -522 m 0
 847 -548 847 -548 865 -575 c 0
 883 -602 883 -602 917 -613 c 0
 918 -613 918 -613 927.5 -614.5 c 0
 937 -616 937 -616 943 -616 c 0
 965 -616 965 -616 982 -608 c 0
 1012 -595 1012 -595 1026 -546 c 2
 1055 -440 l 2
 1066 -403 1066 -403 1047.5 -370.5 c 0
 1029 -338 1029 -338 993 -328 c 0
 956 -317 956 -317 923.5 -335.5 c 0
 891 -354 891 -354 881 -390 c 2
 851 -499 l 2
 847 -515 847 -515 847 -522 c 0
896 1832 m 0
 896 1792 896 1792 923 1766 c 2
 993 1697 l 2
 1047 1643 1047 1643 1118 1697 c 1
 1144 1725 1144 1725 1144 1762 c 0
 1144 1799 1144 1799 1118 1827 c 2
 1051 1897 l 2
 1025 1923 1025 1923 987 1923 c 0
 950 1923 950 1923 923 1896.5 c 0
 896 1870 896 1870 896 1832 c 0
991 -11 m 0
 991 -38 991 -38 1008 -65 c 0
 1025 -92 1025 -92 1058 -102 c 0
 1095 -113 1095 -113 1126 -97 c 0
 1157 -81 1157 -81 1169 -37 c 2
 1195 71 l 2
 1206 108 1206 108 1188.5 140.5 c 0
 1171 173 1171 173 1135 184 c 0
 1095 195 1095 195 1062.5 175.5 c 0
 1030 156 1030 156 1023 119 c 2
 993 9 l 2
 991 3 991 3 991 -11 c 0
1288 -195 m 0
 1292 -255 1292 -255 1355 -283 c 1
 1382 -287 l 2
 1408 -287 1408 -287 1432.5 -270 c 0
 1457 -253 1457 -253 1467 -217 c 2
 1498 -109 l 2
 1508 -71 1508 -71 1488.5 -38.5 c 0
 1469 -6 1469 -6 1432 1 c 1
 1399 12 1399 12 1366 -6.5 c 0
 1333 -25 1333 -25 1322 -61 c 2
 1293 -170 l 2
 1292 -174 1292 -174 1291 -179 c 0
 1290 -184 1290 -184 1289 -187.5 c 0
 1288 -191 1288 -191 1288 -195 c 0
1437 313 m 0
 1437 287 1437 287 1453.5 261.5 c 0
 1470 236 1470 236 1502 227 c 1
 1529 224 l 2
 1560 224 1560 224 1584 243 c 0
 1608 262 1608 262 1614 293 c 2
 1643 399 l 2
 1654 437 1654 437 1636 468.5 c 0
 1618 500 1618 500 1582 510 c 0
 1545 521 1545 521 1513.5 503.5 c 0
 1482 486 1482 486 1472 450 c 2
 1440 337 l 2
 1437 324 1437 324 1437 313 c 0
1472 1365 m 1
 1578 1467 1578 1467 1728 1467 c 0
 1885 1467 1885 1467 1996 1356.5 c 0
 2107 1246 2107 1246 2107 1089 c 0
 2107 999 2107 999 2057 901 c 1
 1904 1054 1904 1054 1687 1054 c 2
 1651 1054 l 1
 1608 1235 1608 1235 1472 1365 c 1
1637 1923 m 2
 1637 1883 1637 1883 1662.5 1857.5 c 0
 1688 1832 1688 1832 1728 1832 c 0
 1768 1832 1768 1832 1793.5 1857.5 c 0
 1819 1883 1819 1883 1819 1923 c 2
 1819 2138 l 2
 1819 2178 1819 2178 1793.5 2204 c 0
 1768 2230 1768 2230 1728 2230 c 0
 1688 2230 1688 2230 1662.5 2204 c 0
 1637 2178 1637 2178 1637 2138 c 2
 1637 1923 l 2
2229 1678 m 0
 2229 1638 2229 1638 2253 1613 c 1
 2286 1586 2286 1586 2319 1586 c 0
 2349 1586 2349 1586 2382 1613 c 1
 2535 1766 l 2
 2561 1795 2561 1795 2561 1833 c 0
 2561 1871 2561 1871 2535 1897 c 0
 2509 1923 2509 1923 2472 1923 c 0
 2435 1923 2435 1923 2407 1897 c 2
 2253 1744 l 2
 2229 1716 2229 1716 2229 1678 c 0
2313 416 m 0
 2313 379 2313 379 2341 349 c 2
 2407 281 l 2
 2440 248 2440 248 2473 248 c 0
 2504 248 2504 248 2535 281 c 0
 2564 310 2564 310 2563 346.5 c 0
 2562 383 2562 383 2535 410 c 2
 2466 480 l 2
 2440 506 2440 506 2405 506 c 0
 2367 506 2367 506 2340 479.5 c 0
 2313 453 2313 453 2313 416 c 0
2470 1089 m 0
 2470 1053 2470 1053 2496 1027 c 0
 2522 1001 2522 1001 2558 1001 c 2
 2776 1001 l 2
 2817 1001 2817 1001 2843 1026 c 0
 2869 1051 2869 1051 2869 1089 c 0
 2869 1129 2869 1129 2842.5 1155 c 0
 2816 1181 2816 1181 2776 1181 c 2
 2558 1181 l 2
 2521 1181 2521 1181 2495.5 1154 c 0
 2470 1127 2470 1127 2470 1089 c 0
EndSplineSet
EndChar

StartChar: uniF00A
Encoding: 30 61450 30
Width: 2864
Flags: W
LayerCount: 2
Fore
SplineSet
0 525 m 0
 0 387 0 387 68 268 c 0
 136 149 136 149 253.5 77 c 0
 371 5 371 5 510 1 c 0
 528 1 528 1 528 19 c 2
 528 161 l 2
 528 181 528 181 510 181 c 0
 374 188 374 188 277.5 289.5 c 0
 181 391 181 391 181 525 c 0
 181 657 181 657 271.5 755 c 0
 362 853 362 853 495 869 c 2
 551 875 l 2
 570 875 570 875 570 895 c 2
 578 949 l 1
 595 1124 595 1124 723.5 1240.5 c 0
 852 1357 852 1357 1027 1357 c 0
 1201 1357 1201 1357 1331.5 1240.5 c 0
 1462 1124 1462 1124 1479 952 c 1
 1487 890 l 2
 1487 872 1487 872 1505 872 c 2
 1677 872 l 2
 1821 872 1821 872 1923 769.5 c 0
 2025 667 2025 667 2025 525 c 0
 2025 391 2025 391 1928.5 289.5 c 0
 1832 188 1832 188 1697 181 c 0
 1677 181 1677 181 1677 161 c 2
 1677 19 l 2
 1677 1 1677 1 1697 1 c 0
 1909 8 1909 8 2057 161 c 0
 2205 314 2205 314 2205 525 c 0
 2205 646 2205 646 2159 742 c 1
 2285 893 2285 893 2285 1094 c 0
 2285 1244 2285 1244 2210 1372.5 c 0
 2135 1501 2135 1501 2006 1576 c 0
 1877 1651 1877 1651 1727 1651 c 0
 1481 1651 1481 1651 1314 1466 c 1
 1184 1536 1184 1536 1027 1536 c 0
 802 1536 802 1536 628 1396.5 c 0
 454 1257 454 1257 405 1040 c 1
 226 996 226 996 113 853 c 0
 0 710 0 710 0 525 c 0
677 93 m 0
 677 55 677 55 702.5 28 c 0
 728 1 728 1 765 1 c 0
 802 1 802 1 827.5 28 c 0
 853 55 853 55 853 93 c 0
 853 129 853 129 827.5 155 c 0
 802 181 802 181 765 181 c 0
 728 181 728 181 702.5 155 c 0
 677 129 677 129 677 93 c 0
677 -294 m 0
 677 -327 677 -327 703 -355 c 0
 731 -381 731 -381 765 -381 c 0
 803 -381 803 -381 828 -356 c 0
 853 -331 853 -331 853 -294 c 0
 853 -256 853 -256 827.5 -231 c 0
 802 -206 802 -206 765 -206 c 0
 728 -206 728 -206 702.5 -231 c 0
 677 -256 677 -256 677 -294 c 0
895 1832 m 0
 895 1793 895 1793 921 1769 c 2
 991 1699 l 2
 1017 1673 1017 1673 1048 1672 c 0
 1081 1667 1081 1667 1113 1695.5 c 0
 1145 1724 1145 1724 1145 1763 c 0
 1145 1802 1145 1802 1119 1831 c 2
 1051 1896 l 2
 1027 1923 1027 1923 989 1923 c 0
 949 1923 949 1923 922 1896.5 c 0
 895 1870 895 1870 895 1832 c 0
1016 -112 m 0
 1016 -148 1016 -148 1042 -176 c 0
 1068 -202 1068 -202 1104 -202 c 0
 1142 -202 1142 -202 1168.5 -176 c 0
 1195 -150 1195 -150 1195 -112 c 0
 1195 -75 1195 -75 1168.5 -48.5 c 0
 1142 -22 1142 -22 1104 -22 c 0
 1068 -22 1068 -22 1042 -48.5 c 0
 1016 -75 1016 -75 1016 -112 c 0
1016 272 m 0
 1016 236 1016 236 1042 210 c 0
 1068 184 1068 184 1104 184 c 0
 1142 184 1142 184 1168.5 209.5 c 0
 1195 235 1195 235 1195 272 c 0
 1195 309 1195 309 1168.5 335 c 0
 1142 361 1142 361 1104 361 c 0
 1068 361 1068 361 1042 335 c 0
 1016 309 1016 309 1016 272 c 0
1016 -502 m 0
 1016 -537 1016 -537 1042 -563 c 0
 1069 -590 1069 -590 1104 -590 c 0
 1142 -590 1142 -590 1168.5 -565 c 0
 1195 -540 1195 -540 1195 -502 c 0
 1195 -464 1195 -464 1168.5 -437.5 c 0
 1142 -411 1142 -411 1104 -411 c 0
 1069 -411 1069 -411 1042.5 -438 c 0
 1016 -465 1016 -465 1016 -502 c 0
1360 93 m 0
 1360 55 1360 55 1386 28 c 0
 1412 1 1412 1 1449 1 c 0
 1486 1 1486 1 1511.5 28 c 0
 1537 55 1537 55 1537 93 c 0
 1537 129 1537 129 1511.5 155 c 0
 1486 181 1486 181 1449 181 c 0
 1412 181 1412 181 1386 155 c 0
 1360 129 1360 129 1360 93 c 0
1360 -294 m 0
 1360 -328 1360 -328 1385 -355 c 0
 1413 -381 1413 -381 1449 -381 c 0
 1487 -381 1487 -381 1512 -356 c 0
 1537 -331 1537 -331 1537 -294 c 0
 1537 -256 1537 -256 1511.5 -231 c 0
 1486 -206 1486 -206 1449 -206 c 0
 1411 -206 1411 -206 1385.5 -231.5 c 0
 1360 -257 1360 -257 1360 -294 c 0
1464 1365 m 1
 1574 1471 1574 1471 1727 1471 c 0
 1882 1471 1882 1471 1992 1360 c 0
 2102 1249 2102 1249 2102 1094 c 0
 2102 994 2102 994 2048 898 c 1
 1895 1051 1895 1051 1677 1051 c 2
 1643 1051 l 1
 1596 1238 1596 1238 1464 1365 c 1
1635 1921 m 2
 1635 1884 1635 1884 1662 1859 c 0
 1689 1834 1689 1834 1727 1834 c 0
 1765 1834 1765 1834 1790 1859 c 0
 1815 1884 1815 1884 1815 1921 c 2
 1815 2139 l 2
 1815 2177 1815 2177 1789.5 2204 c 0
 1764 2231 1764 2231 1727 2231 c 0
 1690 2231 1690 2231 1662.5 2203.5 c 0
 1635 2176 1635 2176 1635 2139 c 2
 1635 1921 l 2
2223 1679 m 0
 2223 1642 2223 1642 2250 1616 c 0
 2274 1591 2274 1591 2309.5 1588.5 c 0
 2345 1586 2345 1586 2376 1616 c 2
 2529 1769 l 2
 2557 1797 2557 1797 2557 1834 c 0
 2557 1872 2557 1872 2529.5 1899 c 0
 2502 1926 2502 1926 2465 1926 c 0
 2430 1926 2430 1926 2403 1899 c 2
 2250 1743 l 2
 2223 1718 2223 1718 2223 1679 c 0
2309 421 m 0
 2309 381 2309 381 2335 355 c 2
 2403 288 l 1
 2442 262 2442 262 2471 262 c 0
 2504 262 2504 262 2530.5 289.5 c 0
 2557 317 2557 317 2557 355 c 0
 2557 391 2557 391 2529 417 c 2
 2463 486 l 2
 2435 512 2435 512 2398 512 c 0
 2361 512 2361 512 2335 485.5 c 0
 2309 459 2309 459 2309 421 c 0
2463 1094 m 0
 2463 1056 2463 1056 2491 1031 c 0
 2518 1002 2518 1002 2557 1002 c 2
 2773 1002 l 2
 2810 1002 2810 1002 2837 1029 c 0
 2864 1056 2864 1056 2864 1094 c 0
 2864 1132 2864 1132 2837 1158.5 c 0
 2810 1185 2810 1185 2773 1185 c 2
 2557 1185 l 2
 2519 1185 2519 1185 2491 1158 c 0
 2463 1131 2463 1131 2463 1094 c 0
EndSplineSet
EndChar

StartChar: uniF00B
Encoding: 31 61451 31
Width: 2864
Flags: W
LayerCount: 2
Fore
SplineSet
0 529 m 0
 0 390 0 390 68 270.5 c 0
 136 151 136 151 253 79 c 0
 370 7 370 7 509 1 c 0
 528 1 528 1 528 19 c 2
 528 161 l 2
 528 181 528 181 509 181 c 0
 373 188 373 188 277 289.5 c 0
 181 391 181 391 181 529 c 0
 181 661 181 661 271 758.5 c 0
 361 856 361 856 494 872 c 1
 550 875 l 2
 570 875 570 875 570 894 c 2
 578 952 l 1
 595 1125 595 1125 723.5 1241 c 0
 852 1357 852 1357 1027 1357 c 0
 1199 1357 1199 1357 1329.5 1240.5 c 0
 1460 1124 1460 1124 1479 952 c 2
 1486 890 l 2
 1486 872 1486 872 1504 872 c 2
 1677 872 l 2
 1818 872 1818 872 1921.5 770 c 0
 2025 668 2025 668 2025 529 c 0
 2025 391 2025 391 1929 289.5 c 0
 1833 188 1833 188 1696 181 c 0
 1677 181 1677 181 1677 161 c 2
 1677 19 l 2
 1677 1 1677 1 1696 1 c 0
 1835 5 1835 5 1952 77.5 c 0
 2069 150 2069 150 2136 270 c 0
 2203 390 2203 390 2203 529 c 0
 2203 647 2203 647 2159 742 c 1
 2283 894 2283 894 2283 1094 c 0
 2283 1245 2283 1245 2208 1373.5 c 0
 2133 1502 2133 1502 2005 1576.5 c 0
 1877 1651 1877 1651 1727 1651 c 0
 1479 1651 1479 1651 1314 1466 c 1
 1183 1536 1183 1536 1027 1536 c 0
 802 1536 802 1536 628 1396.5 c 0
 454 1257 454 1257 405 1040 c 1
 229 998 229 998 114.5 855 c 0
 0 712 0 712 0 529 c 0
630 435 m 0
 630 374 630 374 675 331 c 0
 720 288 720 288 783 288 c 0
 847 288 847 288 890 330.5 c 0
 933 373 933 373 933 435 c 0
 933 474 933 474 895.5 542 c 0
 858 610 858 610 826 648 c 0
 792 684 792 684 783 693 c 1
 745 650 l 2
 702 604 702 604 666 540 c 0
 630 476 630 476 630 435 c 0
895 1834 m 0
 895 1793 895 1793 921 1769 c 2
 990 1699 l 1
 1057 1649 1057 1649 1119 1699 c 1
 1145 1730 1145 1730 1145 1767 c 0
 1145 1804 1145 1804 1119 1830 c 2
 1051 1899 l 2
 1021 1926 1021 1926 986 1926 c 0
 947 1926 947 1926 921 1899 c 0
 895 1872 895 1872 895 1834 c 0
947 13 m 0
 947 -92 947 -92 1019.5 -163.5 c 0
 1092 -235 1092 -235 1195 -235 c 0
 1299 -235 1299 -235 1372 -162 c 0
 1445 -89 1445 -89 1445 13 c 0
 1445 99 1445 99 1359 223 c 1
 1285 320 1285 320 1223 382 c 0
 1210 391 1210 391 1195 406 c 1
 1170 382 l 2
 1113 330 1113 330 1034 225 c 0
 947 104 947 104 947 13 c 0
1104 719 m 0
 1104 679 1104 679 1134.5 650 c 0
 1165 621 1165 621 1208 621 c 0
 1249 621 1249 621 1278 650 c 0
 1307 679 1307 679 1307 719 c 0
 1307 785 1307 785 1208 890 c 1
 1182 863 l 2
 1153 831 1153 831 1128.5 788.5 c 0
 1104 746 1104 746 1104 719 c 0
1464 1365 m 1
 1570 1471 1570 1471 1727 1471 c 0
 1883 1471 1883 1471 1992.5 1361 c 0
 2102 1251 2102 1251 2102 1094 c 0
 2102 1000 2102 1000 2047 898 c 1
 1892 1051 1892 1051 1677 1051 c 2
 1642 1051 l 1
 1596 1237 1596 1237 1464 1365 c 1
1635 1926 m 2
 1635 1888 1635 1888 1662.5 1861 c 0
 1690 1834 1690 1834 1727 1834 c 0
 1764 1834 1764 1834 1789 1861 c 0
 1814 1888 1814 1888 1814 1926 c 2
 1814 2143 l 2
 1814 2181 1814 2181 1789.5 2206 c 0
 1765 2231 1765 2231 1727 2231 c 0
 1689 2231 1689 2231 1662 2206 c 0
 1635 2181 1635 2181 1635 2143 c 2
 1635 1926 l 2
2223 1679 m 0
 2223 1640 2223 1640 2250 1616 c 0
 2278 1590 2278 1590 2310 1590 c 0
 2338 1590 2338 1590 2375 1616 c 1
 2528 1769 l 2
 2557 1798 2557 1798 2557 1835 c 0
 2557 1874 2557 1874 2530 1900 c 0
 2503 1926 2503 1926 2465 1926 c 0
 2430 1926 2430 1926 2403 1899 c 2
 2250 1746 l 2
 2223 1719 2223 1719 2223 1679 c 0
2309 423 m 0
 2309 383 2309 383 2334 355 c 1
 2403 293 l 1
 2426 264 2426 264 2466 264 c 0
 2505 264 2505 264 2528 293 c 1
 2557 319 2557 319 2557 355 c 0
 2557 390 2557 390 2528 417 c 2
 2463 486 l 2
 2435 512 2435 512 2398 512 c 0
 2360 512 2360 512 2334.5 486 c 0
 2309 460 2309 460 2309 423 c 0
2463 1094 m 0
 2463 1058 2463 1058 2490 1032 c 0
 2518 1006 2518 1006 2557 1006 c 2
 2773 1006 l 2
 2811 1006 2811 1006 2837.5 1031.5 c 0
 2864 1057 2864 1057 2864 1094 c 0
 2864 1132 2864 1132 2837 1158.5 c 0
 2810 1185 2810 1185 2773 1185 c 2
 2557 1185 l 2
 2519 1185 2519 1185 2491 1158 c 0
 2463 1131 2463 1131 2463 1094 c 0
EndSplineSet
EndChar

StartChar: uniF00C
Encoding: 32 61452 32
Width: 2541
Flags: W
LayerCount: 2
Fore
SplineSet
0 899 m 0
 0 856 0 856 30 828 c 0
 60 800 60 800 107 800 c 2
 287 800 l 2
 330 800 330 800 360.5 828.5 c 0
 391 857 391 857 391 899 c 0
 391 945 391 945 361 975 c 0
 331 1005 331 1005 287 1005 c 2
 107 1005 l 2
 60 1005 60 1005 30 975.5 c 0
 0 946 0 946 0 899 c 0
189 239 m 0
 189 84 189 84 302 -29.5 c 0
 415 -143 415 -143 570 -143 c 2
 1302 -143 l 2
 1457 -143 1457 -143 1567.5 -31 c 0
 1678 81 1678 81 1678 239 c 0
 1678 316 1678 316 1656 370 c 1
 1789 455 1789 455 1866.5 596.5 c 0
 1944 738 1944 738 1944 899 c 0
 1944 1029 1944 1029 1893 1147.5 c 0
 1842 1266 1842 1266 1756.5 1351.5 c 0
 1671 1437 1671 1437 1552.5 1488 c 0
 1434 1539 1434 1539 1305 1539 c 0
 1130 1539 1130 1539 982.5 1453 c 0
 835 1367 835 1367 750.5 1220 c 0
 666 1073 666 1073 666 899 c 2
 666 863 l 1
 506 772 506 772 455 597 c 1
 334 559 334 559 261.5 462 c 0
 189 365 189 365 189 239 c 0
355 1750 m 0
 355 1705 355 1705 383 1678 c 2
 555 1498 l 1
 630 1441 630 1441 705 1498 c 1
 735 1528 735 1528 735 1573 c 0
 735 1616 735 1616 705 1648 c 2
 529 1823 l 2
 495 1854 495 1854 455 1854 c 0
 410 1854 410 1854 382.5 1824 c 0
 355 1794 355 1794 355 1750 c 0
400 239 m 0
 400 306 400 306 443 354 c 0
 486 402 486 402 552 408 c 2
 618 417 l 2
 639 417 639 417 639 441 c 2
 649 501 l 1
 660 593 660 593 727 655 c 0
 794 717 794 717 885 717 c 0
 978 717 978 717 1046.5 655 c 0
 1115 593 1115 593 1126 501 c 2
 1135 432 l 1
 1145 408 1145 408 1161 408 c 2
 1302 408 l 2
 1371 408 1371 408 1421.5 358 c 0
 1472 308 1472 308 1472 239 c 0
 1472 167 1472 167 1421.5 116 c 0
 1371 65 1371 65 1302 65 c 2
 570 65 l 2
 498 65 498 65 449 116 c 0
 400 167 400 167 400 239 c 0
872 921 m 1
 883 1096 883 1096 1007 1215 c 0
 1131 1334 1131 1334 1305 1334 c 0
 1483 1334 1483 1334 1608 1207 c 0
 1733 1080 1733 1080 1733 899 c 0
 1733 787 1733 787 1678.5 691.5 c 0
 1624 596 1624 596 1531 537 c 1
 1437 615 1437 615 1314 615 c 1
 1267 755 1267 755 1150 838 c 0
 1033 921 1033 921 885 921 c 2
 872 921 l 1
1201 1854 m 2
 1201 1810 1201 1810 1231.5 1779.5 c 0
 1262 1749 1262 1749 1305 1749 c 0
 1349 1749 1349 1749 1379.5 1779.5 c 0
 1410 1810 1410 1810 1410 1854 c 2
 1410 2104 l 2
 1410 2146 1410 2146 1379.5 2174.5 c 0
 1349 2203 1349 2203 1305 2203 c 0
 1262 2203 1262 2203 1231.5 2174.5 c 0
 1201 2146 1201 2146 1201 2104 c 2
 1201 1854 l 2
1875 230 m 0
 1875 187 1875 187 1904 155 c 2
 2079 -18 l 2
 2146 -86 2146 -86 2229 -18 c 0
 2257 9 2257 9 2257 54 c 0
 2257 97 2257 97 2229 125 c 2
 2049 304 l 2
 2020 331 2020 331 1976 331 c 0
 1932 331 1932 331 1903.5 302 c 0
 1875 273 1875 273 1875 230 c 0
1875 1575 m 0
 1875 1530 1875 1530 1904 1498 c 0
 1933 1469 1933 1469 1976 1469 c 0
 2020 1469 2020 1469 2049 1498 c 2
 2229 1678 l 2
 2257 1705 2257 1705 2257 1750 c 0
 2257 1794 2257 1794 2226.5 1824 c 0
 2196 1854 2196 1854 2152 1854 c 0
 2110 1854 2110 1854 2079 1823 c 2
 1904 1648 l 2
 1875 1619 1875 1619 1875 1575 c 0
2151 899 m 0
 2151 856 2151 856 2181 828 c 0
 2211 800 2211 800 2258 800 c 2
 2438 800 l 2
 2481 800 2481 800 2511.5 828.5 c 0
 2542 857 2542 857 2542 899 c 0
 2542 945 2542 945 2512 975 c 0
 2482 1005 2482 1005 2438 1005 c 2
 2258 1005 l 2
 2211 1005 2211 1005 2181 975.5 c 0
 2151 946 2151 946 2151 899 c 0
EndSplineSet
EndChar

StartChar: uniF00D
Encoding: 33 61453 33
Width: 2267
Flags: W
LayerCount: 2
Fore
SplineSet
0 771 m 0
 0 810 0 810 27 837 c 0
 55 863 55 863 91 863 c 2
 309 863 l 2
 346 863 346 863 370.5 836 c 0
 395 809 395 809 395 771 c 0
 395 733 395 733 370.5 706.5 c 0
 346 680 346 680 309 680 c 2
 91 680 l 2
 54 680 54 680 27 707 c 0
 0 734 0 734 0 771 c 0
305 32 m 0
 305 69 305 69 330 97 c 2
 487 249 l 2
 511 274 511 274 550 274 c 0
 588 274 588 274 613.5 250 c 0
 639 226 639 226 639 189 c 0
 639 150 639 150 613 121 c 2
 461 -31 l 1
 396 -82 396 -82 330 -31 c 1
 305 -4 305 -4 305 32 c 0
305 1509 m 0
 305 1546 305 1546 330 1574 c 1
 361 1600 361 1600 398 1600 c 0
 433 1600 433 1600 461 1574 c 2
 613 1417 l 2
 639 1393 639 1393 639 1354 c 0
 639 1316 639 1316 613.5 1290.5 c 0
 588 1265 588 1265 550 1265 c 0
 511 1265 511 1265 487 1291 c 2
 330 1443 l 2
 305 1470 305 1470 305 1509 c 0
577 771 m 0
 577 920 577 920 652 1048.5 c 0
 727 1177 727 1177 855.5 1252 c 0
 984 1327 984 1327 1133 1327 c 0
 1245 1327 1245 1327 1348 1282.5 c 0
 1451 1238 1451 1238 1525.5 1163.5 c 0
 1600 1089 1600 1089 1644 986 c 0
 1688 883 1688 883 1688 771 c 0
 1688 621 1688 621 1613.5 493 c 0
 1539 365 1539 365 1411 290.5 c 0
 1283 216 1283 216 1133 216 c 0
 983 216 983 216 855 290.5 c 0
 727 365 727 365 652 493 c 0
 577 621 577 621 577 771 c 0
758 771 m 0
 758 615 758 615 867.5 504.5 c 0
 977 394 977 394 1133 394 c 0
 1289 394 1289 394 1399.5 504.5 c 0
 1510 615 1510 615 1510 771 c 0
 1510 925 1510 925 1399.5 1034 c 0
 1289 1143 1289 1143 1133 1143 c 0
 978 1143 978 1143 868 1034 c 0
 758 925 758 925 758 771 c 0
1042 -58 m 2
 1042 -20 1042 -20 1068.5 6 c 0
 1095 32 1095 32 1133 32 c 0
 1172 32 1172 32 1198 6 c 0
 1224 -20 1224 -20 1224 -58 c 2
 1224 -270 l 2
 1224 -309 1224 -309 1197.5 -336 c 0
 1171 -363 1171 -363 1133 -363 c 0
 1095 -363 1095 -363 1068.5 -336 c 0
 1042 -309 1042 -309 1042 -270 c 2
 1042 -58 l 2
1042 1595 m 2
 1042 1813 l 2
 1042 1850 1042 1850 1069 1877 c 0
 1096 1904 1096 1904 1133 1904 c 0
 1170 1904 1170 1904 1197 1877 c 0
 1224 1850 1224 1850 1224 1813 c 2
 1224 1595 l 2
 1224 1558 1224 1558 1197.5 1533.5 c 0
 1171 1509 1171 1509 1133 1509 c 0
 1095 1509 1095 1509 1068.5 1533.5 c 0
 1042 1558 1042 1558 1042 1595 c 2
1631 189 m 0
 1631 226 1631 226 1655 249 c 0
 1679 274 1679 274 1715 274 c 0
 1754 274 1754 274 1779 249 c 2
 1935 97 l 2
 1961 69 1961 69 1961 32 c 0
 1961 -5 1961 -5 1935 -31 c 1
 1871 -81 1871 -81 1807 -31 c 1
 1655 121 l 2
 1631 148 1631 148 1631 189 c 0
1631 1354 m 0
 1631 1394 1631 1394 1655 1417 c 2
 1807 1574 l 2
 1835 1600 1835 1600 1870 1600 c 0
 1908 1600 1908 1600 1934.5 1573 c 0
 1961 1546 1961 1546 1961 1509 c 0
 1961 1469 1961 1469 1935 1443 c 2
 1779 1291 l 2
 1750 1265 1750 1265 1715 1265 c 0
 1679 1265 1679 1265 1655 1290.5 c 0
 1631 1316 1631 1316 1631 1354 c 0
1872 771 m 0
 1872 809 1872 809 1898 837 c 0
 1924 863 1924 863 1959 863 c 2
 2175 863 l 2
 2212 863 2212 863 2239.5 835.5 c 0
 2267 808 2267 808 2267 771 c 0
 2267 734 2267 734 2239.5 707 c 0
 2212 680 2212 680 2175 680 c 2
 1959 680 l 2
 1922 680 1922 680 1897 706.5 c 0
 1872 733 1872 733 1872 771 c 0
EndSplineSet
EndChar

StartChar: uniF00E
Encoding: 34 61454 34
Width: 2883
Flags: W
LayerCount: 2
Fore
SplineSet
0 530 m 0
 0 351 0 351 106.5 210 c 0
 213 69 213 69 382 22 c 1
 312 -159 l 2
 304 -182 304 -182 327 -182 c 2
 554 -182 l 1
 402 -631 l 1
 433 -631 l 1
 898 -27 l 2
 904 -20 904 -20 900 -12.5 c 0
 896 -5 896 -5 885 -5 c 2
 651 -5 l 1
 917 491 l 2
 929 514 929 514 902 514 c 2
 586 514 l 2
 571 514 571 514 561 498 c 2
 447 191 l 1
 332 220 332 220 257 314.5 c 0
 182 409 182 409 182 530 c 0
 182 665 182 665 272 763 c 0
 362 861 362 861 497 877 c 1
 551 880 l 2
 570 880 570 880 575 895 c 2
 583 958 l 1
 600 1131 600 1131 729.5 1248.5 c 0
 859 1366 859 1366 1035 1366 c 0
 1209 1366 1209 1366 1340.5 1248.5 c 0
 1472 1131 1472 1131 1490 958 c 2
 1498 895 l 2
 1498 877 1498 877 1517 877 c 2
 1689 877 l 2
 1832 877 1832 877 1935 774.5 c 0
 2038 672 2038 672 2038 530 c 0
 2038 391 2038 391 1942.5 288.5 c 0
 1847 186 1847 186 1710 179 c 0
 1689 179 1689 179 1689 160 c 2
 1689 17 l 2
 1689 -1 1689 -1 1710 -1 c 0
 1851 3 1851 3 1968.5 75.5 c 0
 2086 148 2086 148 2154 268.5 c 0
 2222 389 2222 389 2222 530 c 0
 2222 647 2222 647 2176 745 c 1
 2298 899 2298 899 2298 1096 c 0
 2298 1248 2298 1248 2222.5 1377.5 c 0
 2147 1507 2147 1507 2017.5 1582.5 c 0
 1888 1658 1888 1658 1736 1658 c 0
 1621 1658 1621 1658 1512.5 1610 c 0
 1404 1562 1404 1562 1325 1477 c 1
 1196 1546 1196 1546 1035 1546 c 0
 808 1546 808 1546 632.5 1405.5 c 0
 457 1265 457 1265 408 1046 c 1
 231 1005 231 1005 115.5 860 c 0
 0 715 0 715 0 530 c 0
873 -528 m 0
 873 -552 873 -552 890 -578 c 0
 907 -604 907 -604 939 -614 c 0
 957 -618 957 -618 966 -618 c 0
 990 -618 990 -618 1007 -610 c 0
 1041 -597 1041 -597 1053 -549 c 2
 1082 -439 l 2
 1092 -399 1092 -399 1073 -367.5 c 0
 1054 -336 1054 -336 1016 -328 c 0
 983 -317 983 -317 950 -336 c 0
 917 -355 917 -355 905 -391 c 2
 878 -502 l 2
 873 -524 873 -524 873 -528 c 0
898 1841 m 0
 898 1804 898 1804 925 1777 c 2
 994 1707 l 2
 1019 1682 1019 1682 1053 1679 c 0
 1086 1674 1086 1674 1118 1703 c 0
 1150 1732 1150 1732 1150 1771 c 0
 1150 1808 1150 1808 1123 1835 c 2
 1056 1905 l 2
 1030 1931 1030 1931 992 1931 c 0
 952 1931 952 1931 925 1905 c 0
 898 1879 898 1879 898 1841 c 0
1016 -16 m 0
 1015 -42 1015 -42 1031 -66.5 c 0
 1047 -91 1047 -91 1082 -101 c 0
 1116 -112 1116 -112 1148.5 -94.5 c 0
 1181 -77 1181 -77 1193 -35 c 2
 1225 75 l 2
 1236 110 1236 110 1216.5 142.5 c 0
 1197 175 1197 175 1159 186 c 0
 1123 197 1123 197 1090.5 178.5 c 0
 1058 160 1058 160 1047 122 c 2
 1021 10 l 2
 1016 -12 1016 -12 1016 -16 c 0
1318 -195 m 0
 1318 -218 1318 -218 1329 -237 c 0
 1350 -271 1350 -271 1387 -283 c 0
 1405 -289 1405 -289 1417 -289 c 0
 1437 -289 1437 -289 1450 -281 c 0
 1482 -269 1482 -269 1498 -217 c 2
 1525 -109 l 2
 1536 -71 1536 -71 1518 -39.5 c 0
 1500 -8 1500 -8 1464 2 c 0
 1427 13 1427 13 1394.5 -5 c 0
 1362 -23 1362 -23 1351 -59 c 2
 1321 -170 l 2
 1318 -184 1318 -184 1318 -195 c 0
1464 319 m 0
 1464 291 1464 291 1481.5 265.5 c 0
 1499 240 1499 240 1534 230 c 0
 1561 221 1561 221 1599 235 c 0
 1631 249 1631 249 1645 296 c 2
 1674 403 l 2
 1684 443 1684 443 1665.5 474.5 c 0
 1647 506 1647 506 1609 514 c 0
 1573 525 1573 525 1541 507.5 c 0
 1509 490 1509 490 1498 454 c 2
 1467 341 l 2
 1464 320 1464 320 1464 319 c 0
1475 1369 m 1
 1582 1472 1582 1472 1736 1472 c 0
 1893 1472 1893 1472 2003.5 1362.5 c 0
 2114 1253 2114 1253 2114 1096 c 0
 2114 991 2114 991 2064 903 c 1
 1910 1057 1910 1057 1689 1057 c 2
 1656 1057 l 1
 1609 1247 1609 1247 1475 1369 c 1
1645 1931 m 2
 1645 1893 1645 1893 1671.5 1866 c 0
 1698 1839 1698 1839 1736 1839 c 0
 1774 1839 1774 1839 1799.5 1865.5 c 0
 1825 1892 1825 1892 1825 1931 c 2
 1825 2151 l 2
 1825 2190 1825 2190 1799.5 2216.5 c 0
 1774 2243 1774 2243 1736 2243 c 0
 1698 2243 1698 2243 1671.5 2216 c 0
 1645 2189 1645 2189 1645 2151 c 2
 1645 1931 l 2
2240 1687 m 0
 2240 1648 2240 1648 2265 1623 c 0
 2287 1598 2287 1598 2323.5 1595.5 c 0
 2360 1593 2360 1593 2391 1623 c 2
 2545 1777 l 2
 2573 1803 2573 1803 2573 1841 c 0
 2573 1879 2573 1879 2545 1905 c 0
 2519 1933 2519 1933 2481 1933 c 0
 2444 1933 2444 1933 2419 1905 c 2
 2265 1751 l 2
 2240 1726 2240 1726 2240 1687 c 0
2323 416 m 0
 2323 379 2323 379 2350 352 c 2
 2419 285 l 2
 2448 258 2448 258 2485 258 c 1
 2487 256 l 1
 2522 256 2522 256 2545 285 c 1
 2573 311 2573 311 2573 349 c 0
 2573 386 2573 386 2545 414 c 2
 2479 480 l 2
 2450 509 2450 509 2414 509 c 0
 2376 509 2376 509 2349.5 481.5 c 0
 2323 454 2323 454 2323 416 c 0
2479 1096 m 0
 2479 1057 2479 1057 2507 1033 c 1
 2532 1005 2532 1005 2571 1005 c 2
 2791 1005 l 2
 2829 1005 2829 1005 2856 1031.5 c 0
 2883 1058 2883 1058 2883 1096 c 0
 2883 1134 2883 1134 2856.5 1159.5 c 0
 2830 1185 2830 1185 2791 1185 c 2
 2571 1185 l 2
 2532 1185 2532 1185 2505.5 1159.5 c 0
 2479 1134 2479 1134 2479 1096 c 0
EndSplineSet
EndChar

StartChar: uniF010
Encoding: 35 61456 35
Width: 2875
Flags: W
LayerCount: 2
Fore
SplineSet
0 528 m 0
 0 351 0 351 105 212 c 0
 210 73 210 73 379 22 c 1
 311 -159 l 2
 304 -181 304 -181 326 -181 c 2
 552 -181 l 1
 419 -602 l 1
 450 -602 l 1
 895 -27 l 2
 901 -20 901 -20 896.5 -12.5 c 0
 892 -5 892 -5 881 -5 c 2
 649 -5 l 1
 913 489 l 2
 924 512 924 512 898 512 c 2
 584 512 l 2
 569 512 569 512 559 497 c 1
 445 190 l 1
 331 219 331 219 256 314 c 0
 181 409 181 409 181 528 c 0
 181 661 181 661 271.5 759 c 0
 362 857 362 857 496 873 c 2
 552 880 l 2
 573 880 573 880 573 899 c 2
 579 953 l 2
 596 1126 596 1126 726 1243 c 0
 856 1360 856 1360 1031 1360 c 0
 1205 1360 1205 1360 1335.5 1243 c 0
 1466 1126 1466 1126 1485 953 c 2
 1491 891 l 2
 1491 873 1491 873 1510 873 c 2
 1682 873 l 2
 1827 873 1827 873 1929.5 772 c 0
 2032 671 2032 671 2032 528 c 0
 2032 392 2032 392 1937 292.5 c 0
 1842 193 1842 193 1703 182 c 0
 1682 182 1682 182 1682 163 c 2
 1682 17 l 2
 1682 -1 1682 -1 1703 -1 c 0
 1916 6 1916 6 2064.5 160 c 0
 2213 314 2213 314 2213 528 c 0
 2213 646 2213 646 2167 742 c 1
 2293 895 2293 895 2293 1096 c 0
 2293 1246 2293 1246 2217.5 1375 c 0
 2142 1504 2142 1504 2013 1579.5 c 0
 1884 1655 1884 1655 1733 1655 c 0
 1486 1655 1486 1655 1319 1470 c 1
 1190 1539 1190 1539 1031 1539 c 0
 805 1539 805 1539 630 1399 c 0
 455 1259 455 1259 406 1041 c 1
 229 1000 229 1000 114.5 856.5 c 0
 0 713 0 713 0 528 c 0
863 -494 m 0
 861 -518 861 -518 877.5 -541 c 0
 894 -564 894 -564 927 -576 c 0
 938 -579 938 -579 949 -579 c 0
 976 -579 976 -579 1003 -563 c 0
 1030 -547 1030 -547 1039 -513 c 2
 1283 401 l 2
 1293 438 1293 438 1276 469.5 c 0
 1259 501 1259 501 1224 512 c 0
 1187 523 1187 523 1154.5 505 c 0
 1122 487 1122 487 1112 451 c 2
 866 -466 l 2
 863 -479 863 -479 863 -494 c 0
898 1837 m 0
 898 1799 898 1799 925 1774 c 2
 993 1704 l 2
 1020 1677 1020 1677 1058 1676.5 c 0
 1096 1676 1096 1676 1119 1704 c 1
 1149 1728 1149 1728 1149 1768 c 0
 1149 1806 1149 1806 1122 1831 c 2
 1055 1901 l 2
 1027 1927 1027 1927 990 1927 c 0
 950 1927 950 1927 924 1901 c 0
 898 1875 898 1875 898 1837 c 0
1306 -168 m 0
 1306 -187 1306 -187 1318 -208 c 0
 1338 -240 1338 -240 1371 -254 c 0
 1382 -259 1382 -259 1403 -259 c 0
 1427 -259 1427 -259 1438 -253 c 0
 1470 -240 1470 -240 1482 -191 c 2
 1641 401 l 2
 1651 439 1651 439 1633 470 c 0
 1615 501 1615 501 1579 512 c 0
 1542 523 1542 523 1510.5 505 c 0
 1479 487 1479 487 1469 451 c 2
 1310 -144 l 2
 1310 -148 1310 -148 1308 -156 c 0
 1306 -164 1306 -164 1306 -168 c 0
1469 1367 m 1
 1576 1470 1576 1470 1733 1470 c 0
 1889 1470 1889 1470 1999.5 1361 c 0
 2110 1252 2110 1252 2110 1096 c 0
 2110 996 2110 996 2055 899 c 1
 1896 1056 1896 1056 1682 1056 c 2
 1649 1056 l 1
 1600 1244 1600 1244 1469 1367 c 1
1641 1927 m 2
 1641 1890 1641 1890 1668.5 1862.5 c 0
 1696 1835 1696 1835 1733 1835 c 0
 1771 1835 1771 1835 1796 1862 c 0
 1821 1889 1821 1889 1821 1927 c 2
 1821 2146 l 2
 1821 2184 1821 2184 1796 2211 c 0
 1771 2238 1771 2238 1733 2238 c 0
 1696 2238 1696 2238 1668.5 2211 c 0
 1641 2184 1641 2184 1641 2146 c 2
 1641 1927 l 2
2231 1683 m 0
 2231 1644 2231 1644 2259 1619 c 1
 2282 1592 2282 1592 2319.5 1592 c 0
 2357 1592 2357 1592 2384 1619 c 2
 2538 1774 l 2
 2566 1799 2566 1799 2566 1837 c 0
 2566 1875 2566 1875 2539 1902 c 0
 2512 1929 2512 1929 2474 1929 c 0
 2439 1929 2439 1929 2413 1901 c 2
 2259 1747 l 2
 2231 1722 2231 1722 2231 1683 c 0
2317 418 m 0
 2317 382 2317 382 2343 354 c 2
 2413 287 l 2
 2433 264 2433 264 2471 261 c 1
 2472 260 l 2
 2474 260 2474 260 2477 259.5 c 0
 2480 259 2480 259 2482 259 c 0
 2512 259 2512 259 2538 287 c 0
 2566 313 2566 313 2566 351 c 0
 2566 388 2566 388 2538 416 c 2
 2469 481 l 2
 2443 510 2443 510 2407 510 c 0
 2370 510 2370 510 2343.5 483 c 0
 2317 456 2317 456 2317 418 c 0
2472 1096 m 0
 2472 1059 2472 1059 2501 1032 c 0
 2530 1003 2530 1003 2566 1003 c 2
 2783 1003 l 2
 2820 1003 2820 1003 2847.5 1030.5 c 0
 2875 1058 2875 1058 2875 1096 c 0
 2875 1133 2875 1133 2848 1158.5 c 0
 2821 1184 2821 1184 2783 1184 c 2
 2566 1184 l 2
 2526 1184 2526 1184 2499 1158.5 c 0
 2472 1133 2472 1133 2472 1096 c 0
EndSplineSet
EndChar

StartChar: uniF011
Encoding: 36 61457 36
Width: 2428
Flags: W
LayerCount: 2
Fore
SplineSet
0 90 m 0
 0 130 0 130 27 157 c 0
 55 183 55 183 91 183 c 2
 669 183 l 2
 787 183 787 183 870.5 98.5 c 0
 954 14 954 14 954 -104 c 0
 954 -223 954 -223 871 -306.5 c 0
 788 -390 788 -390 669 -390 c 0
 550 -390 550 -390 466 -306 c 0
 441 -281 441 -281 441 -242 c 0
 441 -203 441 -203 465.5 -177.5 c 0
 490 -152 490 -152 530 -152 c 0
 567 -152 567 -152 595 -178 c 0
 627 -209 627 -209 669 -209 c 0
 711 -209 711 -209 742 -178.5 c 0
 773 -148 773 -148 773 -104 c 0
 773 -62 773 -62 742 -31.5 c 0
 711 -1 711 -1 669 -1 c 2
 91 -1 l 2
 54 -1 54 -1 27 25.5 c 0
 0 52 0 52 0 90 c 0
0 414 m 0
 0 453 0 453 27 480 c 0
 55 506 55 506 91 506 c 2
 1216 506 l 2
 1258 506 1258 506 1289 537 c 0
 1320 568 1320 568 1320 611 c 0
 1320 654 1320 654 1289 684.5 c 0
 1258 715 1258 715 1216 715 c 0
 1172 715 1172 715 1143 685 c 1
 1114 661 1114 661 1075 661 c 0
 1036 661 1036 661 1011.5 685.5 c 0
 987 710 987 710 987 749 c 0
 987 789 987 789 1011 814 c 0
 1092 895 1092 895 1216 895 c 0
 1335 895 1335 895 1418.5 812 c 0
 1502 729 1502 729 1502 611 c 0
 1502 493 1502 493 1418.5 409.5 c 0
 1335 326 1335 326 1216 326 c 2
 91 326 l 2
 53 326 53 326 26.5 351.5 c 0
 0 377 0 377 0 414 c 0
229 666 m 0
 229 653 229 653 246 653 c 2
 400 653 l 2
 413 653 413 653 423 669 c 0
 459 756 459 756 535 813 c 0
 611 870 611 870 705 877 c 1
 761 885 l 2
 782 885 782 885 782 903 c 2
 790 958 l 1
 807 1131 807 1131 936.5 1248.5 c 0
 1066 1366 1066 1366 1242 1366 c 0
 1419 1366 1419 1366 1549 1249.5 c 0
 1679 1133 1679 1133 1697 958 c 1
 1705 895 l 2
 1705 877 1705 877 1723 877 c 2
 1896 877 l 2
 2041 877 2041 877 2144.5 775 c 0
 2248 673 2248 673 2248 530 c 0
 2248 387 2248 387 2144.5 285 c 0
 2041 183 2041 183 1896 183 c 2
 1159 183 l 2
 1139 183 1139 183 1139 165 c 2
 1139 17 l 2
 1139 -1 1139 -1 1159 -1 c 2
 1896 -1 l 2
 2041 -1 2041 -1 2163.5 70 c 0
 2286 141 2286 141 2357.5 263.5 c 0
 2429 386 2429 386 2429 530 c 0
 2429 675 2429 675 2357.5 797 c 0
 2286 919 2286 919 2163.5 990 c 0
 2041 1061 2041 1061 1896 1061 c 2
 1863 1061 l 1
 1813 1274 1813 1274 1639.5 1410 c 0
 1466 1546 1466 1546 1242 1546 c 0
 1016 1546 1016 1546 842 1405.5 c 0
 668 1265 668 1265 621 1046 c 1
 484 1014 484 1014 378 914.5 c 0
 272 815 272 815 231 679 c 1
 231 675 l 2
 229 670 229 670 229 666 c 0
EndSplineSet
EndChar

StartChar: uniF012
Encoding: 37 61458 37
Width: 2539
Flags: W
LayerCount: 2
Fore
SplineSet
0 87 m 0
 0 126 0 126 27 152 c 0
 54 178 54 178 94 178 c 2
 1051 178 l 2
 1089 178 1089 178 1114 152.5 c 0
 1139 127 1139 127 1139 87 c 0
 1139 49 1139 49 1113.5 23.5 c 0
 1088 -2 1088 -2 1051 -2 c 2
 94 -2 l 2
 54 -2 54 -2 27 23.5 c 0
 0 49 0 49 0 87 c 0
281 413 m 0
 281 451 281 451 310 477 c 0
 333 501 333 501 373 501 c 2
 1333 501 l 2
 1370 501 1370 501 1394.5 476 c 0
 1419 451 1419 451 1419 413 c 0
 1419 375 1419 375 1394.5 348 c 0
 1370 321 1370 321 1333 321 c 2
 373 321 l 2
 336 321 336 321 308.5 348.5 c 0
 281 376 281 376 281 413 c 0
347 662 m 0
 347 647 347 647 365 647 c 2
 517 647 l 2
 532 647 532 647 542 662 c 0
 578 749 578 749 653 806 c 0
 728 863 728 863 821 870 c 1
 879 877 l 2
 897 877 897 877 897 896 c 2
 904 951 l 1
 922 1125 922 1125 1052.5 1241 c 0
 1183 1357 1183 1357 1359 1357 c 0
 1533 1357 1533 1357 1661 1242.5 c 0
 1789 1128 1789 1128 1811 954 c 2
 1819 891 l 2
 1819 874 1819 874 1838 874 c 2
 2009 874 l 2
 2154 874 2154 874 2256.5 772 c 0
 2359 670 2359 670 2359 525 c 0
 2359 385 2359 385 2255 281.5 c 0
 2151 178 2151 178 2009 178 c 2
 1274 178 l 2
 1255 178 1255 178 1255 160 c 2
 1255 17 l 2
 1255 -2 1255 -2 1274 -2 c 2
 2009 -2 l 2
 2117 -2 2117 -2 2215.5 39.5 c 0
 2314 81 2314 81 2384.5 152 c 0
 2455 223 2455 223 2497 320.5 c 0
 2539 418 2539 418 2539 525 c 0
 2539 669 2539 669 2468.5 790.5 c 0
 2398 912 2398 912 2276 982.5 c 0
 2154 1053 2154 1053 2009 1053 c 2
 1976 1053 l 1
 1924 1268 1924 1268 1751.5 1404.5 c 0
 1579 1541 1579 1541 1359 1541 c 0
 1132 1541 1132 1541 957.5 1399.5 c 0
 783 1258 783 1258 736 1038 c 1
 598 1007 598 1007 494 908.5 c 0
 390 810 390 810 349 672 c 1
 349 670 l 2
 347 666 347 666 347 662 c 0
469 -243 m 0
 469 -204 469 -204 497 -179 c 0
 521 -154 521 -154 560 -154 c 2
 1519 -154 l 2
 1558 -154 1558 -154 1584.5 -179.5 c 0
 1611 -205 1611 -205 1611 -243 c 0
 1611 -281 1611 -281 1584 -308 c 0
 1557 -335 1557 -335 1519 -335 c 2
 560 -335 l 2
 523 -335 523 -335 496 -308 c 0
 469 -281 469 -281 469 -243 c 0
EndSplineSet
EndChar

StartChar: uniF013
Encoding: 38 61459 38
Width: 2370
Flags: W
LayerCount: 2
Fore
SplineSet
0 454 m 0
 0 613 0 613 99 736.5 c 0
 198 860 198 860 353 895 c 1
 394 1083 394 1083 543 1202.5 c 0
 692 1322 692 1322 886 1322 c 0
 1075 1322 1075 1322 1223.5 1205.5 c 0
 1372 1089 1372 1089 1416 907 c 1
 1445 907 l 2
 1633 907 1633 907 1766 774.5 c 0
 1899 642 1899 642 1899 454 c 0
 1899 266 1899 266 1766 132.5 c 0
 1633 -1 1633 -1 1445 -1 c 2
 455 -1 l 2
 363 -1 363 -1 278.5 35 c 0
 194 71 194 71 133 132 c 0
 72 193 72 193 36 277.5 c 0
 0 362 0 362 0 454 c 0
155 454 m 0
 155 332 155 332 243 244.5 c 0
 331 157 331 157 455 157 c 2
 1445 157 l 2
 1569 157 1569 157 1657 244.5 c 0
 1745 332 1745 332 1745 454 c 0
 1745 576 1745 576 1657 663 c 0
 1569 750 1569 750 1445 750 c 2
 1297 750 l 2
 1281 750 1281 750 1281 766 c 2
 1274 818 l 1
 1258 969 1258 969 1147.5 1068.5 c 0
 1037 1168 1037 1168 886 1168 c 0
 735 1168 735 1168 623.5 1068 c 0
 512 968 512 968 498 818 c 1
 491 773 l 2
 491 757 491 757 474 757 c 2
 426 750 l 1
 311 740 311 740 233 655 c 0
 155 570 155 570 155 454 c 0
1099 1384 m 0
 1083 1369 1083 1369 1107 1362 c 0
 1176 1332 1176 1332 1222 1303 c 1
 1240 1298 1240 1298 1246 1306 c 0
 1343 1398 1343 1398 1472 1398 c 0
 1601 1398 1601 1398 1695.5 1311.5 c 0
 1790 1225 1790 1225 1801 1098 c 1
 1811 1030 l 1
 1962 1030 l 2
 2066 1030 2066 1030 2141 955.5 c 0
 2216 881 2216 881 2216 778 c 0
 2216 682 2216 682 2150 611 c 0
 2084 540 2084 540 1987 529 c 0
 1971 529 1971 529 1971 512 c 2
 1971 391 l 2
 1971 374 1971 374 1987 374 c 0
 2148 384 2148 384 2259 501 c 0
 2370 618 2370 618 2370 778 c 0
 2370 947 2370 947 2250.5 1066.5 c 0
 2131 1186 2131 1186 1962 1186 c 2
 1946 1186 l 1
 1904 1346 1904 1346 1770.5 1449.5 c 0
 1637 1553 1637 1553 1472 1553 c 0
 1246 1553 1246 1553 1099 1384 c 0
EndSplineSet
EndChar

StartChar: uniF014
Encoding: 39 61460 39
Width: 2641
Flags: W
LayerCount: 2
Fore
SplineSet
0 86 m 0
 0 125 0 125 27 151 c 0
 54 177 54 177 94 177 c 2
 2085 177 l 2
 2125 177 2125 177 2150.5 151.5 c 0
 2176 126 2176 126 2176 86 c 0
 2176 49 2176 49 2149.5 24 c 0
 2123 -1 2123 -1 2085 -1 c 2
 94 -1 l 2
 54 -1 54 -1 27 24 c 0
 0 49 0 49 0 86 c 0
279 421 m 0
 279 460 279 460 307 485 c 0
 331 509 331 509 370 509 c 2
 2362 509 l 2
 2399 509 2399 509 2424 483.5 c 0
 2449 458 2449 458 2449 421 c 0
 2449 383 2449 383 2424 356.5 c 0
 2399 330 2399 330 2362 330 c 2
 370 330 l 2
 332 330 332 330 305.5 357 c 0
 279 384 279 384 279 421 c 0
293 675 m 0
 293 661 293 661 309 661 c 2
 462 661 l 2
 472 661 472 661 483 678 c 0
 521 761 521 761 596.5 814 c 0
 672 867 672 867 762 874 c 1
 821 882 l 2
 839 882 839 882 839 901 c 2
 846 954 l 1
 863 1127 863 1127 992.5 1242.5 c 0
 1122 1358 1122 1358 1296 1358 c 0
 1469 1358 1469 1358 1597.5 1244 c 0
 1726 1130 1726 1130 1744 958 c 1
 1752 897 l 2
 1752 879 1752 879 1773 879 c 2
 1943 879 l 2
 2046 879 2046 879 2130.5 824 c 0
 2215 769 2215 769 2256 678 c 0
 2267 661 2267 661 2278 661 c 2
 2431 661 l 2
 2450 661 2450 661 2446 685 c 0
 2399 849 2399 849 2260 953 c 0
 2121 1057 2121 1057 1943 1057 c 2
 1909 1057 l 1
 1856 1270 1856 1270 1685.5 1405.5 c 0
 1515 1541 1515 1541 1296 1541 c 0
 1072 1541 1072 1541 898 1400.5 c 0
 724 1260 724 1260 675 1042 c 1
 539 1010 539 1010 436.5 913 c 0
 334 816 334 816 294 681 c 1
 294 685 l 1
 293 682 293 682 293 675 c 0
465 -241 m 0
 465 -203 465 -203 493 -178 c 0
 517 -154 517 -154 557 -154 c 2
 2550 -154 l 2
 2588 -154 2588 -154 2614.5 -179 c 0
 2641 -204 2641 -204 2641 -241 c 0
 2641 -279 2641 -279 2614 -306 c 0
 2587 -333 2587 -333 2550 -333 c 2
 557 -333 l 2
 520 -333 520 -333 492.5 -305.5 c 0
 465 -278 465 -278 465 -241 c 0
EndSplineSet
EndChar

StartChar: uniF015
Encoding: 40 61461 40
Width: 2210
Flags: W
LayerCount: 2
Fore
SplineSet
0 528 m 0
 0 315 0 315 148.5 162 c 0
 297 9 297 9 511 -1 c 0
 529 -1 529 -1 529 17 c 2
 529 160 l 2
 529 178 529 178 511 178 c 0
 374 185 374 185 278 287 c 0
 182 389 182 389 182 528 c 0
 182 660 182 660 272 758 c 0
 362 856 362 856 495 872 c 1
 552 875 l 2
 573 875 573 875 573 895 c 2
 579 952 l 2
 596 1125 596 1125 725.5 1241.5 c 0
 855 1358 855 1358 1030 1358 c 0
 1204 1358 1204 1358 1334 1241.5 c 0
 1464 1125 1464 1125 1482 952 c 1
 1490 890 l 2
 1490 872 1490 872 1509 872 c 2
 1681 872 l 2
 1823 872 1823 872 1927 770 c 0
 2031 668 2031 668 2031 528 c 0
 2031 389 2031 389 1934.5 287 c 0
 1838 185 1838 185 1702 178 c 0
 1681 178 1681 178 1681 160 c 2
 1681 17 l 2
 1681 -1 1681 -1 1702 -1 c 0
 1841 3 1841 3 1958 75 c 0
 2075 147 2075 147 2142.5 267.5 c 0
 2210 388 2210 388 2210 528 c 0
 2210 671 2210 671 2139 791.5 c 0
 2068 912 2068 912 1946 981.5 c 0
 1824 1051 1824 1051 1681 1051 c 2
 1647 1051 l 1
 1595 1265 1595 1265 1422.5 1401 c 0
 1250 1537 1250 1537 1030 1537 c 0
 805 1537 805 1537 630 1397.5 c 0
 455 1258 455 1258 406 1040 c 1
 229 999 229 999 114.5 855.5 c 0
 0 712 0 712 0 528 c 0
581 -240 m 0
 596 -274 596 -274 630 -289 c 0
 662 -305 662 -305 696.5 -291 c 0
 731 -277 731 -277 744 -243 c 0
 760 -208 760 -208 746.5 -174.5 c 0
 733 -141 733 -141 698 -128 c 1
 666 -111 666 -111 632.5 -125 c 0
 599 -139 599 -139 583 -175 c 0
 568 -201 568 -201 581 -240 c 0
648 61 m 0
 648 36 648 36 664.5 12.5 c 0
 681 -11 681 -11 714 -22 c 1
 745 -40 745 -40 780 -23.5 c 0
 815 -7 815 -7 827 40 c 2
 923 401 l 2
 933 441 933 441 914.5 472.5 c 0
 896 504 896 504 858 511 c 0
 845 514 845 514 832 514 c 0
 806 514 806 514 781.5 498 c 0
 757 482 757 482 747 451 c 2
 653 89 l 2
 648 66 648 66 648 61 c 0
847 -535 m 0
 847 -554 847 -554 853 -566 c 0
 867 -601 867 -601 901 -614 c 0
 916 -622 916 -622 936 -622 c 0
 946 -622 946 -622 968 -616 c 0
 1003 -603 1003 -603 1018.5 -568 c 0
 1034 -533 1034 -533 1018 -498 c 0
 1002 -463 1002 -463 970.5 -449 c 0
 939 -435 939 -435 904 -449 c 0
 874 -462 874 -462 860.5 -487 c 0
 847 -512 847 -512 847 -535 c 0
925 -257 m 0
 925 -316 925 -316 992 -335 c 0
 1010 -339 1010 -339 1018 -339 c 0
 1042 -339 1042 -339 1059 -331 c 0
 1092 -318 1092 -318 1104 -270 c 2
 1282 401 l 2
 1292 439 1292 439 1275.5 470 c 0
 1259 501 1259 501 1223 511 c 0
 1210 514 1210 514 1194 514 c 0
 1168 514 1168 514 1142.5 498 c 0
 1117 482 1117 482 1111 451 c 2
 929 -225 l 2
 925 -247 925 -247 925 -257 c 0
1291 -208 m 0
 1291 -227 1291 -227 1299 -242 c 0
 1312 -273 1312 -273 1346 -289 c 0
 1364 -296 1364 -296 1383 -296 c 0
 1393 -296 1393 -296 1415 -290 c 0
 1449 -277 1449 -277 1464 -243 c 0
 1476 -208 1476 -208 1463 -176 c 0
 1450 -144 1450 -144 1418 -128 c 0
 1382 -111 1382 -111 1348.5 -125 c 0
 1315 -139 1315 -139 1299 -175 c 0
 1291 -190 1291 -190 1291 -208 c 0
1368 66 m 2
 1368 43 1368 43 1385 18 c 0
 1402 -7 1402 -7 1433 -17 c 0
 1458 -22 1458 -22 1462 -22 c 0
 1477 -22 1477 -22 1501 -11 c 0
 1533 4 1533 4 1544 45 c 2
 1640 401 l 1
 1643 428 1643 428 1643 429 c 0
 1643 454 1643 454 1626.5 478 c 0
 1610 502 1610 502 1578 511 c 0
 1564 514 1564 514 1550 514 c 0
 1524 514 1524 514 1500 498.5 c 0
 1476 483 1476 483 1467 451 c 2
 1371 93 l 1
 1368 66 l 2
EndSplineSet
EndChar

StartChar: uniF016
Encoding: 41 61462 41
Width: 1502
Flags: W
LayerCount: 2
Fore
SplineSet
0 -283 m 1
 42 -283 l 1
 776 803 l 2
 791 832 791 832 760 832 c 2
 457 832 l 1
 776 1413 l 2
 790 1442 790 1442 755 1442 c 2
 349 1442 l 2
 332 1442 332 1442 318 1423 c 1
 22 634 l 1
 18 605 18 605 42 605 c 2
 335 605 l 1
 0 -283 l 1
907 392 m 1
 936 392 l 1
 1493 1210 l 2
 1501 1223 1501 1223 1497 1231 c 0
 1493 1239 1493 1239 1479 1239 c 2
 1255 1239 l 1
 1488 1669 l 2
 1507 1701 1507 1701 1469 1701 c 2
 1177 1701 l 2
 1156 1701 1156 1701 1145 1681 c 2
 923 1096 l 2
 918 1082 918 1082 924 1074 c 0
 930 1066 930 1066 944 1066 c 2
 1162 1066 l 1
 907 392 l 1
EndSplineSet
EndChar

StartChar: uniF017
Encoding: 42 61463 42
Width: 2209
Flags: W
LayerCount: 2
Fore
SplineSet
0 522 m 0
 0 311 0 311 149 158 c 0
 298 5 298 5 510 -2 c 0
 529 -2 529 -2 529 16 c 2
 529 158 l 2
 529 177 529 177 510 177 c 0
 375 184 375 184 278 285.5 c 0
 181 387 181 387 181 522 c 0
 181 656 181 656 271.5 755.5 c 0
 362 855 362 855 495 866 c 1
 551 874 l 2
 571 874 571 874 571 893 c 2
 579 946 l 1
 595 1121 595 1121 724.5 1239 c 0
 854 1357 854 1357 1030 1357 c 0
 1203 1357 1203 1357 1333 1240 c 0
 1463 1123 1463 1123 1482 951 c 2
 1489 889 l 2
 1489 870 1489 870 1509 870 c 2
 1680 870 l 2
 1824 870 1824 870 1927 767 c 0
 2030 664 2030 664 2030 522 c 0
 2030 387 2030 387 1933.5 285.5 c 0
 1837 184 1837 184 1701 177 c 0
 1680 177 1680 177 1680 158 c 2
 1680 16 l 2
 1680 -2 1680 -2 1701 -2 c 0
 1914 5 1914 5 2061.5 157.5 c 0
 2209 310 2209 310 2209 522 c 0
 2209 665 2209 665 2138 786.5 c 0
 2067 908 2067 908 1945 978.5 c 0
 1823 1049 1823 1049 1680 1049 c 2
 1647 1049 l 1
 1594 1263 1594 1263 1422 1399.5 c 0
 1250 1536 1250 1536 1030 1536 c 0
 805 1536 805 1536 630 1396 c 0
 455 1256 455 1256 406 1039 c 1
 226 993 226 993 113 850.5 c 0
 0 708 0 708 0 522 c 0
577 -227 m 0
 577 -254 577 -254 594.5 -281 c 0
 612 -308 612 -308 645 -318 c 0
 682 -329 682 -329 713 -314 c 0
 744 -299 744 -299 755 -254 c 2
 770 -189 l 2
 778 -153 778 -153 760 -121.5 c 0
 742 -90 742 -90 705 -79 c 0
 669 -68 669 -68 636.5 -87 c 0
 604 -106 604 -106 594 -144 c 2
 579 -207 l 2
 577 -213 577 -213 577 -227 c 0
658 82 m 0
 658 48 658 48 685 21 c 0
 710 -6 710 -6 745 -6 c 0
 783 -6 783 -6 809 19.5 c 0
 835 45 835 45 835 82 c 0
 835 119 835 119 809 144.5 c 0
 783 170 783 170 745 170 c 0
 708 170 708 170 683 145 c 0
 658 120 658 120 658 82 c 0
723 325 m 0
 721 300 721 300 737.5 276.5 c 0
 754 253 754 253 789 242 c 0
 822 232 822 232 855 249.5 c 0
 888 267 888 267 899 304 c 2
 929 400 l 2
 941 439 941 439 922 469.5 c 0
 903 500 903 500 864 511 c 0
 829 522 829 522 796.5 504 c 0
 764 486 764 486 753 451 c 2
 727 353 l 2
 727 350 727 350 725 340.5 c 0
 723 331 723 331 723 325 c 0
847 -560 m 0
 847 -588 847 -588 863.5 -613 c 0
 880 -638 880 -638 915 -648 c 0
 928 -651 928 -651 942 -651 c 0
 1010 -651 1010 -651 1026 -586 c 2
 1041 -523 l 2
 1051 -482 1051 -482 1032 -450 c 0
 1013 -418 1013 -418 976 -411 c 1
 942 -400 942 -400 909 -418.5 c 0
 876 -437 876 -437 865 -473 c 2
 850 -536 l 2
 847 -550 847 -550 847 -560 c 0
930 -250 m 0
 930 -285 930 -285 957 -312 c 0
 983 -338 983 -338 1018 -338 c 0
 1056 -338 1056 -338 1081 -313 c 0
 1106 -288 1106 -288 1106 -250 c 0
 1106 -213 1106 -213 1081 -188 c 0
 1056 -163 1056 -163 1018 -163 c 0
 980 -163 980 -163 955 -188 c 0
 930 -213 930 -213 930 -250 c 0
997 -8 m 0
 995 -32 995 -32 1011 -58 c 0
 1027 -84 1027 -84 1059 -90 c 0
 1096 -100 1096 -100 1127 -84 c 0
 1158 -68 1158 -68 1171 -24 c 2
 1200 72 l 2
 1211 107 1211 107 1192.5 139 c 0
 1174 171 1174 171 1136 182 c 0
 1101 193 1101 193 1068 173.5 c 0
 1035 154 1035 154 1024 117 c 2
 1000 21 l 2
 997 8 997 8 997 -8 c 0
1291 -237 m 0
 1291 -263 1291 -263 1307.5 -288 c 0
 1324 -313 1324 -313 1357 -323 c 0
 1362 -323 1362 -323 1371.5 -325 c 0
 1381 -327 1381 -327 1386 -327 c 0
 1451 -327 1451 -327 1467 -257 c 2
 1482 -193 l 2
 1493 -159 1493 -159 1475 -126 c 0
 1457 -93 1457 -93 1421 -82 c 0
 1381 -72 1381 -72 1348.5 -90.5 c 0
 1316 -109 1316 -109 1305 -147 c 1
 1295 -210 l 2
 1295 -214 1295 -214 1293 -223 c 0
 1291 -232 1291 -232 1291 -237 c 0
1370 78 m 0
 1370 42 1370 42 1397 17 c 0
 1421 -9 1421 -9 1458 -9 c 0
 1496 -9 1496 -9 1521 16 c 0
 1546 41 1546 41 1546 78 c 0
 1546 116 1546 116 1521 141 c 0
 1496 166 1496 166 1458 166 c 0
 1420 166 1420 166 1395 141 c 0
 1370 116 1370 116 1370 78 c 0
1435 325 m 0
 1435 298 1435 298 1452.5 273.5 c 0
 1470 249 1470 249 1505 239 c 0
 1508 239 1508 239 1518 237 c 0
 1528 235 1528 235 1533 235 c 0
 1549 235 1549 235 1571 245 c 0
 1605 263 1605 263 1615 301 c 2
 1641 397 l 2
 1651 433 1651 433 1633 464.5 c 0
 1615 496 1615 496 1579 507 c 0
 1542 518 1542 518 1511 501 c 0
 1480 484 1480 484 1469 447 c 2
 1439 350 l 2
 1439 346 1439 346 1437 337.5 c 0
 1435 329 1435 329 1435 325 c 0
EndSplineSet
EndChar

StartChar: uniF018
Encoding: 43 61464 43
Width: 2213
Flags: W
LayerCount: 2
Fore
SplineSet
0 525 m 0
 0 346 0 346 104.5 206.5 c 0
 209 67 209 67 377 16 c 0
 391 13 391 13 403 24 c 2
 527 177 l 1
 385 177 385 177 284 279 c 0
 183 381 183 381 183 525 c 0
 183 660 183 660 273 759.5 c 0
 363 859 363 859 497 870 c 1
 553 877 l 2
 570 877 570 877 570 891 c 2
 578 950 l 2
 598 1126 598 1126 726.5 1241.5 c 0
 855 1357 855 1357 1030 1357 c 0
 1206 1357 1206 1357 1336.5 1240.5 c 0
 1467 1124 1467 1124 1483 950 c 1
 1491 888 l 2
 1495 870 1495 870 1514 870 c 2
 1687 870 l 2
 1831 870 1831 870 1932 769 c 0
 2033 668 2033 668 2033 525 c 0
 2033 392 2033 392 1943 292.5 c 0
 1853 193 1853 193 1722 177 c 0
 1703 177 1703 177 1670 171 c 0
 1639 168 1639 168 1626 147 c 2
 1374 -151 l 2
 1351 -180 1351 -180 1356.5 -218 c 0
 1362 -256 1362 -256 1390 -279 c 1
 1407 -299 1407 -299 1450 -299 c 0
 1492 -299 1492 -299 1515 -262 c 1
 1741 -2 l 1
 1940 18 1940 18 2077 170 c 0
 2214 322 2214 322 2214 525 c 0
 2214 633 2214 633 2172.5 731 c 0
 2131 829 2131 829 2060.5 899.5 c 0
 1990 970 1990 970 1892.5 1012 c 0
 1795 1054 1795 1054 1687 1054 c 2
 1653 1054 l 1
 1600 1266 1600 1266 1426.5 1401.5 c 0
 1253 1537 1253 1537 1030 1537 c 0
 881 1537 881 1537 749.5 1473.5 c 0
 618 1410 618 1410 528 1296.5 c 0
 438 1183 438 1183 407 1038 c 1
 227 998 227 998 113.5 854.5 c 0
 0 711 0 711 0 525 c 0
361 -330 m 0
 361 -340 361 -340 367 -362 c 0
 381 -396 381 -396 414 -409 c 0
 449 -425 449 -425 485 -411 c 0
 521 -397 521 -397 534 -363 c 0
 550 -328 550 -328 536 -294 c 0
 522 -260 522 -260 487 -248 c 1
 451 -231 451 -231 418 -245 c 0
 385 -259 385 -259 369 -295 c 0
 361 -312 361 -312 361 -330 c 0
558 -70 m 2
 558 -81 l 2
 561 -117 561 -117 590 -141 c 1
 626 -161 626 -161 656 -161 c 0
 692 -161 692 -161 721 -126 c 2
 969 169 l 2
 992 197 992 197 990 239 c 0
 986 273 986 273 960.5 296 c 0
 935 319 935 319 905 319 c 0
 896 319 896 319 890 318 c 0
 853 311 853 311 830 283 c 2
 578 -13 l 2
 558 -36 558 -36 558 -70 c 2
640 -573 m 0
 640 -592 640 -592 648 -607 c 0
 661 -641 661 -641 695 -657 c 0
 712 -665 712 -665 730 -665 c 0
 750 -665 750 -665 763 -657 c 0
 800 -642 800 -642 813 -613 c 0
 829 -578 829 -578 815.5 -542 c 0
 802 -506 802 -506 768 -493 c 0
 733 -477 733 -477 696.5 -491 c 0
 660 -505 660 -505 648 -539 c 0
 640 -554 640 -554 640 -573 c 0
818 -323 m 2
 818 -335 l 1
 822 -370 822 -370 851 -393.5 c 0
 880 -417 880 -417 910 -417 c 0
 946 -417 946 -417 977 -382 c 2
 1441 177 l 2
 1459 197 1459 197 1459 232 c 2
 1459 245 l 1
 1455 281 1455 281 1430 302 c 0
 1405 323 1405 323 1374 323 c 2
 1360 323 l 2
 1323 321 1323 321 1301 290 c 2
 837 -265 l 2
 818 -293 818 -293 818 -323 c 2
1193 -446 m 0
 1193 -460 1193 -460 1199 -478 c 0
 1213 -513 1213 -513 1248 -528 c 0
 1270 -534 1270 -534 1281 -534 c 0
 1304 -534 1304 -534 1317 -526 c 0
 1353 -512 1353 -512 1366 -481 c 1
 1382 -454 1382 -454 1368 -410 c 0
 1355 -377 1355 -377 1321 -363 c 1
 1283 -353 l 1
 1269 -356 1269 -356 1249 -361 c 0
 1214 -374 1214 -374 1201 -408 c 0
 1193 -427 1193 -427 1193 -446 c 0
EndSplineSet
EndChar

StartChar: uniF019
Encoding: 44 61465 44
Width: 2211
Flags: W
LayerCount: 2
Fore
SplineSet
0 527 m 0
 0 711 0 711 115 854.5 c 0
 230 998 230 998 406 1039 c 1
 456 1257 456 1257 631 1397 c 0
 806 1537 806 1537 1031 1537 c 0
 1251 1537 1251 1537 1423.5 1400.5 c 0
 1596 1264 1596 1264 1648 1050 c 1
 1682 1050 l 2
 1825 1050 1825 1050 1947 980.5 c 0
 2069 911 2069 911 2140 790.5 c 0
 2211 670 2211 670 2211 527 c 0
 2211 387 2211 387 2143.5 266.5 c 0
 2076 146 2076 146 1959 74 c 0
 1842 2 1842 2 1703 -2 c 0
 1682 -2 1682 -2 1682 16 c 2
 1682 158 l 2
 1682 177 1682 177 1703 177 c 0
 1839 184 1839 184 1935.5 286 c 0
 2032 388 2032 388 2032 527 c 0
 2032 666 2032 666 1928 768.5 c 0
 1824 871 1824 871 1682 871 c 2
 1510 871 l 2
 1491 871 1491 871 1491 889 c 2
 1483 951 l 1
 1465 1124 1465 1124 1334.5 1240.5 c 0
 1204 1357 1204 1357 1031 1357 c 0
 856 1357 856 1357 726.5 1240.5 c 0
 597 1124 597 1124 581 951 c 1
 573 894 l 2
 573 874 573 874 552 874 c 2
 496 871 l 1
 363 855 363 855 272.5 757 c 0
 182 659 182 659 182 527 c 0
 182 388 182 388 278 286 c 0
 374 184 374 184 511 177 c 0
 529 177 529 177 529 158 c 2
 529 16 l 2
 529 -2 529 -2 511 -2 c 0
 297 8 297 8 148.5 161 c 0
 0 314 0 314 0 527 c 0
571 -186 m 0
 571 -179 571 -179 575 -165 c 2
 749 450 l 2
 759 481 759 481 783.5 497 c 0
 808 513 808 513 833 513 c 0
 844 513 844 513 859 510 c 0
 897 503 897 503 916.5 471 c 0
 936 439 936 439 925 400 c 2
 751 -211 l 2
 731 -279 731 -279 663 -279 c 0
 657 -279 657 -279 651 -277 c 0
 642 -274 642 -274 640 -274 c 0
 605 -264 605 -264 588 -238.5 c 0
 571 -213 571 -213 571 -186 c 0
851 -486 m 2
 1111 450 l 2
 1118 481 1118 481 1143 497 c 0
 1168 513 1168 513 1195 513 c 0
 1209 513 1209 513 1224 510 c 0
 1259 500 1259 500 1276 468.5 c 0
 1293 437 1293 437 1283 400 c 2
 1024 -537 l 2
 1018 -564 1018 -564 993 -583 c 0
 968 -602 968 -602 939 -602 c 0
 924 -602 924 -602 912 -597 c 0
 880 -589 880 -589 857 -555 c 0
 839 -527 839 -527 851 -486 c 2
1291 -189 m 0
 1291 -183 1291 -183 1295 -165 c 2
 1469 450 l 2
 1478 481 1478 481 1501.5 497 c 0
 1525 513 1525 513 1551 513 c 0
 1564 513 1564 513 1579 510 c 0
 1612 501 1612 501 1628.5 477 c 0
 1645 453 1645 453 1645 427 c 0
 1645 422 1645 422 1643 412.5 c 0
 1641 403 1641 403 1641 400 c 2
 1467 -211 l 2
 1461 -242 1461 -242 1437 -260.5 c 0
 1413 -279 1413 -279 1383 -279 c 1
 1357 -274 l 2
 1325 -265 1325 -265 1308 -239.5 c 0
 1291 -214 1291 -214 1291 -189 c 0
EndSplineSet
EndChar

StartChar: uniF01A
Encoding: 45 61466 45
Width: 2218
Flags: W
LayerCount: 2
Fore
SplineSet
0 525 m 0
 0 710 0 710 116 854 c 0
 232 998 232 998 413 1039 c 1
 460 1259 460 1259 634 1400.5 c 0
 808 1542 808 1542 1034 1542 c 0
 1257 1542 1257 1542 1430.5 1406 c 0
 1604 1270 1604 1270 1657 1054 c 1
 1693 1054 l 2
 1837 1054 1837 1054 1958 983.5 c 0
 2079 913 2079 913 2148.5 791 c 0
 2218 669 2218 669 2218 525 c 0
 2218 311 2218 311 2071.5 158 c 0
 1925 5 1925 5 1712 -2 c 0
 1693 -2 1693 -2 1693 16 c 2
 1693 159 l 2
 1693 177 1693 177 1712 177 c 0
 1847 188 1847 188 1943 288.5 c 0
 2039 389 2039 389 2039 525 c 0
 2039 668 2039 668 1937 771 c 0
 1835 874 1835 874 1693 874 c 2
 1519 874 l 2
 1500 874 1500 874 1496 893 c 2
 1488 954 l 2
 1477 1068 1477 1068 1413.5 1160.5 c 0
 1350 1253 1350 1253 1250 1305.5 c 0
 1150 1358 1150 1358 1034 1358 c 0
 858 1358 858 1358 728.5 1241.5 c 0
 599 1125 599 1125 582 951 c 2
 575 893 l 2
 575 878 575 878 558 878 c 2
 502 870 l 1
 367 859 367 859 276.5 760 c 0
 186 661 186 661 186 525 c 0
 186 386 186 386 280.5 285.5 c 0
 375 185 375 185 512 177 c 0
 531 177 531 177 531 159 c 2
 531 16 l 2
 531 -2 531 -2 512 -2 c 0
 407 3 407 3 312 46 c 0
 217 89 217 89 148.5 159 c 0
 80 229 80 229 40 324.5 c 0
 0 420 0 420 0 525 c 0
578 -197 m 0
 578 -192 578 -192 580 -183 c 0
 582 -174 582 -174 582 -171 c 2
 611 -61 l 2
 622 -25 622 -25 653.5 -6.5 c 0
 685 12 685 12 722 1 c 0
 758 -10 758 -10 777 -41.5 c 0
 796 -73 796 -73 785 -110 c 2
 759 -218 l 1
 738 -288 738 -288 678 -288 c 0
 674 -288 674 -288 668.5 -287.5 c 0
 663 -287 663 -287 656.5 -286 c 0
 650 -285 650 -285 646 -285 c 0
 612 -275 612 -275 595 -248.5 c 0
 578 -222 578 -222 578 -197 c 0
719 317 m 0
 719 321 719 321 720.5 329 c 0
 722 337 722 337 722 339 c 2
 754 451 l 2
 764 482 764 482 788 498.5 c 0
 812 515 812 515 838 515 c 0
 842 515 842 515 846.5 514.5 c 0
 851 514 851 514 856.5 513 c 0
 862 512 862 512 865 512 c 0
 901 501 901 501 919.5 469.5 c 0
 938 438 938 438 927 401 c 2
 901 294 l 2
 890 250 890 250 858 231.5 c 0
 826 213 826 213 789 229 c 1
 754 239 754 239 736.5 265 c 0
 719 291 719 291 719 317 c 0
850 -531 m 0
 850 -526 850 -526 852 -517.5 c 0
 854 -509 854 -509 854 -505 c 2
 885 -399 l 2
 895 -361 895 -361 927.5 -341.5 c 0
 960 -322 960 -322 997 -333 c 0
 1033 -344 1033 -344 1051 -376.5 c 0
 1069 -409 1069 -409 1058 -446 c 2
 1031 -557 l 2
 1014 -622 1014 -622 946 -622 c 0
 938 -622 938 -622 920 -618 c 0
 885 -612 885 -612 867.5 -585.5 c 0
 850 -559 850 -559 850 -531 c 0
993 -22 m 0
 993 -13 993 -13 997 5 c 2
 1026 115 l 2
 1037 151 1037 151 1069.5 169.5 c 0
 1102 188 1102 188 1139 177 c 0
 1175 167 1175 167 1193 135.5 c 0
 1211 104 1211 104 1199 66 c 2
 1173 -40 l 2
 1153 -112 1153 -112 1096 -112 c 0
 1089 -112 1089 -112 1063 -106 c 0
 1028 -99 1028 -99 1010.5 -74.5 c 0
 993 -50 993 -50 993 -22 c 0
1294 -201 m 0
 1294 -190 1294 -190 1297 -175 c 2
 1327 -69 l 2
 1338 -31 1338 -31 1370.5 -11.5 c 0
 1403 8 1403 8 1438 -2 c 0
 1475 -13 1475 -13 1494.5 -45.5 c 0
 1514 -78 1514 -78 1504 -113 c 2
 1473 -226 l 2
 1457 -291 1457 -291 1389 -291 c 0
 1374 -291 1374 -291 1361 -288 c 0
 1329 -282 1329 -282 1312 -255.5 c 0
 1295 -229 1295 -229 1294 -201 c 0
1441 307 m 0
 1441 312 1441 312 1446 335 c 2
 1478 445 l 2
 1484 479 1484 479 1509 495.5 c 0
 1534 512 1534 512 1561 510 c 0
 1568 511 1568 511 1587 507 c 0
 1622 499 1622 499 1642 466 c 0
 1661 439 1661 439 1650 397 c 2
 1624 287 l 1
 1603 218 1603 218 1543 218 c 0
 1533 218 1533 218 1507 224 c 0
 1474 234 1474 234 1457.5 257.5 c 0
 1441 281 1441 281 1441 307 c 0
EndSplineSet
EndChar

StartChar: uniF01B
Encoding: 46 61467 46
Width: 2211
Flags: W
LayerCount: 2
Fore
SplineSet
0 523 m 0
 0 708 0 708 113.5 851.5 c 0
 227 995 227 995 406 1039 c 1
 456 1257 456 1257 630.5 1397 c 0
 805 1537 805 1537 1031 1537 c 0
 1251 1537 1251 1537 1423.5 1400.5 c 0
 1596 1264 1596 1264 1648 1050 c 1
 1682 1050 l 2
 1825 1050 1825 1050 1947 979.5 c 0
 2069 909 2069 909 2140 787.5 c 0
 2211 666 2211 666 2211 523 c 0
 2211 311 2211 311 2063 158 c 0
 1915 5 1915 5 1703 -2 c 0
 1682 -2 1682 -2 1682 16 c 2
 1682 158 l 2
 1682 177 1682 177 1703 177 c 0
 1839 184 1839 184 1935.5 285.5 c 0
 2032 387 2032 387 2032 523 c 0
 2032 665 2032 665 1929 768 c 0
 1826 871 1826 871 1682 871 c 2
 1510 871 l 2
 1491 871 1491 871 1491 889 c 2
 1483 951 l 1
 1465 1124 1465 1124 1334.5 1241 c 0
 1204 1358 1204 1358 1031 1358 c 0
 855 1358 855 1358 725.5 1240 c 0
 596 1122 596 1122 579 947 c 2
 573 894 l 2
 573 874 573 874 552 874 c 2
 496 867 l 1
 363 856 363 856 272.5 756.5 c 0
 182 657 182 657 182 523 c 0
 182 387 182 387 278.5 285.5 c 0
 375 184 375 184 511 177 c 0
 529 177 529 177 529 158 c 2
 529 16 l 2
 529 -2 529 -2 511 -2 c 0
 297 5 297 5 148.5 158 c 0
 0 311 0 311 0 523 c 0
679 89 m 0
 679 125 679 125 704.5 151 c 0
 730 177 730 177 767 177 c 0
 804 177 804 177 829.5 151 c 0
 855 125 855 125 855 89 c 0
 855 51 855 51 829.5 24.5 c 0
 804 -2 804 -2 767 -2 c 0
 730 -2 730 -2 704.5 24.5 c 0
 679 51 679 51 679 89 c 0
679 -298 m 0
 679 -260 679 -260 705 -234 c 0
 730 -210 730 -210 767 -210 c 0
 804 -210 804 -210 829.5 -235 c 0
 855 -260 855 -260 855 -298 c 0
 855 -336 855 -336 829.5 -361 c 0
 804 -386 804 -386 767 -386 c 0
 730 -386 730 -386 704.5 -361 c 0
 679 -336 679 -336 679 -298 c 0
1019 -117 m 0
 1019 -80 1019 -80 1046 -51 c 0
 1072 -25 1072 -25 1107 -25 c 0
 1144 -25 1144 -25 1171.5 -52.5 c 0
 1199 -80 1199 -80 1199 -117 c 0
 1199 -154 1199 -154 1172 -180.5 c 0
 1145 -207 1145 -207 1107 -207 c 0
 1071 -207 1071 -207 1045 -180.5 c 0
 1019 -154 1019 -154 1019 -117 c 0
1019 269 m 0
 1019 306 1019 306 1046 333 c 0
 1074 359 1074 359 1107 359 c 0
 1145 359 1145 359 1172 332.5 c 0
 1199 306 1199 306 1199 269 c 0
 1199 232 1199 232 1172 206.5 c 0
 1145 181 1145 181 1107 181 c 0
 1071 181 1071 181 1045 206.5 c 0
 1019 232 1019 232 1019 269 c 0
1019 -507 m 0
 1019 -471 1019 -471 1046 -442 c 0
 1072 -416 1072 -416 1107 -416 c 0
 1145 -416 1145 -416 1172 -443 c 0
 1199 -470 1199 -470 1199 -507 c 0
 1199 -544 1199 -544 1172 -569.5 c 0
 1145 -595 1145 -595 1107 -595 c 0
 1071 -595 1071 -595 1045 -569.5 c 0
 1019 -544 1019 -544 1019 -507 c 0
1363 89 m 0
 1363 124 1363 124 1390 150.5 c 0
 1417 177 1417 177 1454 177 c 0
 1491 177 1491 177 1516.5 151 c 0
 1542 125 1542 125 1542 89 c 0
 1542 51 1542 51 1516.5 24.5 c 0
 1491 -2 1491 -2 1454 -2 c 0
 1416 -2 1416 -2 1389.5 25 c 0
 1363 52 1363 52 1363 89 c 0
1363 -298 m 0
 1363 -263 1363 -263 1390 -234 c 0
 1416 -210 1416 -210 1454 -210 c 0
 1492 -210 1492 -210 1517 -235 c 0
 1542 -260 1542 -260 1542 -298 c 0
 1542 -336 1542 -336 1517 -361 c 0
 1492 -386 1492 -386 1454 -386 c 0
 1416 -386 1416 -386 1389.5 -360.5 c 0
 1363 -335 1363 -335 1363 -298 c 0
EndSplineSet
EndChar

StartChar: uniF01C
Encoding: 47 61468 47
Width: 2210
Flags: W
LayerCount: 2
Fore
SplineSet
0 527 m 0
 0 711 0 711 115 854.5 c 0
 230 998 230 998 406 1039 c 1
 455 1257 455 1257 630 1396.5 c 0
 805 1536 805 1536 1031 1536 c 0
 1251 1536 1251 1536 1423 1400 c 0
 1595 1264 1595 1264 1648 1050 c 1
 1681 1050 l 2
 1824 1050 1824 1050 1946 980.5 c 0
 2068 911 2068 911 2139 790.5 c 0
 2210 670 2210 670 2210 527 c 0
 2210 313 2210 313 2062.5 159 c 0
 1915 5 1915 5 1702 -2 c 0
 1681 -2 1681 -2 1681 16 c 2
 1681 158 l 2
 1681 177 1681 177 1702 177 c 0
 1839 184 1839 184 1935 286 c 0
 2031 388 2031 388 2031 527 c 0
 2031 666 2031 666 1927 768.5 c 0
 1823 871 1823 871 1681 871 c 2
 1510 871 l 2
 1490 871 1490 871 1490 889 c 2
 1483 951 l 2
 1466 1123 1466 1123 1335.5 1240 c 0
 1205 1357 1205 1357 1031 1357 c 0
 856 1357 856 1357 726 1240.5 c 0
 596 1124 596 1124 579 951 c 2
 573 893 l 2
 573 874 573 874 552 874 c 2
 496 871 l 2
 365 865 365 865 273.5 764 c 0
 182 663 182 663 182 527 c 0
 182 388 182 388 278 286 c 0
 374 184 374 184 511 177 c 0
 529 177 529 177 529 158 c 2
 529 16 l 2
 529 -2 529 -2 511 -2 c 0
 297 8 297 8 148.5 161 c 0
 0 314 0 314 0 527 c 0
632 433 m 0
 632 472 632 472 671 538.5 c 0
 710 605 710 605 744 646 c 0
 778 684 778 684 785 691 c 1
 823 648 l 2
 864 604 864 604 899.5 539.5 c 0
 935 475 935 475 935 433 c 0
 935 370 935 370 892 328 c 0
 849 286 849 286 785 286 c 0
 722 286 722 286 677 329 c 0
 632 372 632 372 632 433 c 0
950 8 m 0
 950 52 950 52 975.5 110 c 0
 1001 168 1001 168 1038 219 c 0
 1067 260 1067 260 1109 308.5 c 0
 1151 357 1151 357 1173 378 c 0
 1184 388 1184 388 1199 403 c 1
 1225 378 l 2
 1285 325 1285 325 1361 222 c 0
 1399 169 1399 169 1424 111 c 0
 1449 53 1449 53 1449 8 c 0
 1449 -95 1449 -95 1376.5 -167.5 c 0
 1304 -240 1304 -240 1199 -240 c 0
 1096 -240 1096 -240 1023 -168 c 0
 950 -96 950 -96 950 8 c 0
1107 718 m 0
 1107 785 1107 785 1211 889 c 1
 1237 862 l 2
 1265 828 1265 828 1288 786.5 c 0
 1311 745 1311 745 1311 718 c 0
 1311 677 1311 677 1281.5 647.5 c 0
 1252 618 1252 618 1211 618 c 0
 1168 618 1168 618 1137.5 647.5 c 0
 1107 677 1107 677 1107 718 c 0
EndSplineSet
EndChar

StartChar: uniF01D
Encoding: 48 61469 48
Width: 2212
Flags: W
LayerCount: 2
Fore
SplineSet
0 527 m 0
 0 350 0 350 105.5 210 c 0
 211 70 211 70 379 19 c 1
 310 -160 l 2
 305 -183 305 -183 325 -183 c 2
 552 -183 l 1
 441 -586 l 1
 471 -586 l 1
 894 -29 l 2
 900 -22 900 -22 896 -14.5 c 0
 892 -7 892 -7 881 -7 c 2
 649 -7 l 1
 913 488 l 2
 923 510 923 510 898 510 c 2
 584 510 l 2
 569 510 569 510 560 495 c 2
 445 189 l 1
 331 218 331 218 256.5 313 c 0
 182 408 182 408 182 527 c 0
 182 660 182 660 272 757.5 c 0
 362 855 362 855 496 871 c 2
 552 879 l 2
 573 879 573 879 573 897 c 2
 581 952 l 1
 597 1125 597 1125 726.5 1242 c 0
 856 1359 856 1359 1031 1359 c 0
 1205 1359 1205 1359 1335.5 1242 c 0
 1466 1125 1466 1125 1485 952 c 2
 1491 890 l 2
 1491 871 1491 871 1511 871 c 2
 1683 871 l 2
 1828 871 1828 871 1930.5 770 c 0
 2033 669 2033 669 2033 527 c 0
 2033 391 2033 391 1938 291.5 c 0
 1843 192 1843 192 1704 182 c 0
 1683 182 1683 182 1683 162 c 2
 1683 16 l 2
 1683 -2 1683 -2 1704 -2 c 0
 1808 1 1808 1 1902.5 45 c 0
 1997 89 1997 89 2065 159.5 c 0
 2133 230 2133 230 2173 326.5 c 0
 2213 423 2213 423 2213 527 c 0
 2213 671 2213 671 2141.5 792.5 c 0
 2070 914 2070 914 1948 984.5 c 0
 1826 1055 1826 1055 1683 1055 c 2
 1649 1055 l 1
 1596 1268 1596 1268 1424 1403 c 0
 1252 1538 1252 1538 1031 1538 c 0
 805 1538 805 1538 630 1398 c 0
 455 1258 455 1258 406 1040 c 1
 230 999 230 999 115 855.5 c 0
 0 712 0 712 0 527 c 0
870 -525 m 0
 870 -550 870 -550 886.5 -574.5 c 0
 903 -599 903 -599 936 -609 c 0
 958 -614 958 -614 963 -614 c 0
 977 -614 977 -614 1003 -603 c 0
 1037 -588 1037 -588 1048 -547 c 2
 1078 -435 l 2
 1088 -400 1088 -400 1069.5 -368 c 0
 1051 -336 1051 -336 1013 -325 c 0
 978 -315 978 -315 945.5 -333.5 c 0
 913 -352 913 -352 902 -390 c 2
 873 -497 l 1
 870 -524 870 -524 870 -525 c 0
1013 -16 m 0
 1013 -39 1013 -39 1029.5 -62.5 c 0
 1046 -86 1046 -86 1078 -98 c 0
 1114 -110 1114 -110 1146 -93 c 0
 1178 -76 1178 -76 1189 -37 c 2
 1221 74 l 2
 1231 109 1231 109 1212 141.5 c 0
 1193 174 1193 174 1155 185 c 0
 1119 195 1119 195 1086 176.5 c 0
 1053 158 1053 158 1042 121 c 2
 1016 13 l 2
 1013 -14 1013 -14 1013 -16 c 0
1314 -192 m 0
 1314 -219 1314 -219 1331.5 -246 c 0
 1349 -273 1349 -273 1382 -283 c 0
 1386 -283 1386 -283 1394.5 -285 c 0
 1403 -287 1403 -287 1407 -287 c 0
 1428 -287 1428 -287 1447 -279 c 0
 1477 -268 1477 -268 1491 -218 c 2
 1518 -110 l 2
 1529 -73 1529 -73 1511.5 -39.5 c 0
 1494 -6 1494 -6 1458 5 c 0
 1418 15 1418 15 1385.5 -4 c 0
 1353 -23 1353 -23 1346 -61 c 2
 1317 -171 l 2
 1314 -180 1314 -180 1314 -192 c 0
1459 319 m 0
 1458 294 1458 294 1475 269 c 0
 1492 244 1492 244 1527 229 c 0
 1539 223 1539 223 1555 223 c 0
 1572 223 1572 223 1591 232 c 0
 1624 248 1624 248 1638 293 c 2
 1669 403 l 2
 1672 424 1672 424 1672 426 c 0
 1672 453 1672 453 1654.5 478.5 c 0
 1637 504 1637 504 1602 514 c 0
 1598 514 1598 514 1590 516 c 0
 1582 518 1582 518 1578 518 c 0
 1551 518 1551 518 1526 501.5 c 0
 1501 485 1501 485 1491 450 c 2
 1462 342 l 2
 1459 330 1459 330 1459 319 c 0
EndSplineSet
EndChar

StartChar: uniF01E
Encoding: 49 61470 49
Width: 2213
Flags: W
LayerCount: 2
Fore
SplineSet
0 527 m 0
 0 350 0 350 106 210 c 0
 212 70 212 70 381 19 c 1
 311 -160 l 2
 306 -183 306 -183 326 -183 c 2
 553 -183 l 1
 448 -642 l 1
 478 -642 l 1
 896 -29 l 2
 902 -22 902 -22 897.5 -14.5 c 0
 893 -7 893 -7 882 -7 c 2
 650 -7 l 1
 914 488 l 2
 925 511 925 511 899 511 c 2
 585 511 l 2
 570 511 570 511 560 495 c 2
 446 189 l 1
 332 218 332 218 257 313 c 0
 182 408 182 408 182 527 c 0
 182 660 182 660 272.5 758 c 0
 363 856 363 856 497 872 c 2
 553 879 l 2
 574 879 574 879 574 898 c 2
 581 952 l 1
 598 1125 598 1125 727.5 1242 c 0
 857 1359 857 1359 1032 1359 c 0
 1206 1359 1206 1359 1336.5 1242 c 0
 1467 1125 1467 1125 1486 952 c 2
 1493 890 l 2
 1493 872 1493 872 1512 872 c 2
 1683 872 l 2
 1828 872 1828 872 1931 770.5 c 0
 2034 669 2034 669 2034 527 c 0
 2034 391 2034 391 1939 291.5 c 0
 1844 192 1844 192 1704 181 c 0
 1683 181 1683 181 1683 162 c 2
 1683 16 l 2
 1683 -2 1683 -2 1704 -2 c 0
 1917 5 1917 5 2065.5 159 c 0
 2214 313 2214 313 2214 527 c 0
 2214 671 2214 671 2143 792.5 c 0
 2072 914 2072 914 1949.5 984.5 c 0
 1827 1055 1827 1055 1683 1055 c 2
 1650 1055 l 1
 1597 1268 1597 1268 1424.5 1403 c 0
 1252 1538 1252 1538 1032 1538 c 0
 806 1538 806 1538 631 1398 c 0
 456 1258 456 1258 407 1040 c 1
 230 999 230 999 115 855.5 c 0
 0 712 0 712 0 527 c 0
869 -509 m 0
 869 -572 869 -572 931 -591 c 0
 933 -591 933 -591 943 -592.5 c 0
 953 -594 953 -594 958 -594 c 0
 985 -594 985 -594 1010.5 -578.5 c 0
 1036 -563 1036 -563 1045 -527 c 2
 1285 400 l 2
 1295 438 1295 438 1278 469 c 0
 1261 500 1261 500 1225 511 c 1
 1198 514 1198 514 1197 514 c 0
 1171 514 1171 514 1146.5 498 c 0
 1122 482 1122 482 1113 450 c 2
 872 -480 l 2
 869 -494 869 -494 869 -509 c 0
1312 -182 m 0
 1312 -203 1312 -203 1323 -222 c 0
 1345 -257 1345 -257 1377 -269 c 0
 1394 -274 1394 -274 1409 -274 c 0
 1424 -274 1424 -274 1443 -266 c 0
 1476 -252 1476 -252 1488 -205 c 2
 1642 400 l 2
 1647 423 1647 423 1647 429 c 0
 1647 453 1647 453 1630 477 c 0
 1613 501 1613 501 1581 511 c 1
 1554 514 1554 514 1553 514 c 0
 1526 514 1526 514 1503 498.5 c 0
 1480 483 1480 483 1471 450 c 2
 1315 -158 l 2
 1315 -161 1315 -161 1313.5 -169.5 c 0
 1312 -178 1312 -178 1312 -182 c 0
EndSplineSet
EndChar

StartChar: uniF021
Encoding: 50 61473 50
Width: 2209
Flags: W
LayerCount: 2
Fore
SplineSet
0 678 m 0
 0 714 0 714 25 738 c 0
 50 762 50 762 86 762 c 2
 1375 762 l 2
 1410 762 1410 762 1433 738.5 c 0
 1456 715 1456 715 1456 678 c 0
 1456 643 1456 643 1433 620 c 0
 1410 597 1410 597 1375 597 c 2
 86 597 l 2
 50 597 50 597 25 620 c 0
 0 643 0 643 0 678 c 0
258 987 m 0
 258 1022 258 1022 283 1046 c 0
 307 1070 307 1070 343 1070 c 2
 1633 1070 l 2
 1667 1070 1667 1070 1690.5 1046 c 0
 1714 1022 1714 1022 1714 987 c 0
 1714 952 1714 952 1690.5 927.5 c 0
 1667 903 1667 903 1633 903 c 2
 343 903 l 2
 308 903 308 903 283 927.5 c 0
 258 952 258 952 258 987 c 0
430 375 m 0
 430 409 430 409 456 433 c 0
 479 456 479 456 514 456 c 2
 1805 456 l 2
 1841 456 1841 456 1865 433 c 0
 1889 410 1889 410 1889 375 c 0
 1889 340 1889 340 1864.5 315 c 0
 1840 290 1840 290 1805 290 c 2
 514 290 l 2
 479 290 479 290 454.5 315 c 0
 430 340 430 340 430 375 c 0
1559 678 m 0
 1559 715 1559 715 1582.5 738.5 c 0
 1606 762 1606 762 1643 762 c 2
 2125 762 l 2
 2162 762 2162 762 2185.5 738 c 0
 2209 714 2209 714 2209 678 c 0
 2209 643 2209 643 2185 620 c 0
 2161 597 2161 597 2125 597 c 2
 1643 597 l 2
 1606 597 1606 597 1582.5 620 c 0
 1559 643 1559 643 1559 678 c 0
EndSplineSet
EndChar

StartChar: uniF022
Encoding: 51 61474 51
Width: 2564
Flags: W
LayerCount: 2
Fore
SplineSet
0 -2067 m 132,-1,1
 0 -2104 0 -2104 29 -2131 c 4,2,3
 56 -2158 56 -2158 94 -2158 c 6,4,-1
 706 -2158 l 6,5,6
 748 -2158 748 -2158 779.5 -2188.5 c 132,-1,7
 811 -2219 811 -2219 811 -2261 c 4,8,9
 811 -2304 811 -2304 779.5 -2335 c 132,-1,10
 748 -2366 748 -2366 706 -2366 c 4,11,12
 665 -2366 665 -2366 633 -2334 c 4,13,14
 604 -2308 604 -2308 568 -2308 c 4,15,16
 530 -2308 530 -2308 504 -2334 c 132,-1,17
 478 -2360 478 -2360 478 -2398 c 4,18,19
 478 -2434 478 -2434 504 -2462 c 4,20,21
 588 -2546 588 -2546 706 -2546 c 132,-1,22
 824 -2546 824 -2546 907.5 -2463 c 132,-1,23
 991 -2380 991 -2380 991 -2261 c 4,24,25
 991 -2143 991 -2143 907.5 -2059 c 132,-1,26
 824 -1975 824 -1975 706 -1975 c 6,27,-1
 94 -1975 l 6,28,29
 56 -1975 56 -1975 28 -2002.5 c 132,-1,0
 0 -2030 0 -2030 0 -2067 c 132,-1,1
0 -1745 m 4,30,31
 0 -1780 0 -1780 29 -1807 c 4,32,33
 57 -1833 57 -1833 94 -1833 c 6,34,-1
 1251 -1833 l 6,35,36
 1369 -1833 1369 -1833 1452.5 -1750 c 132,-1,37
 1536 -1667 1536 -1667 1536 -1549 c 132,-1,38
 1536 -1431 1536 -1431 1452.5 -1348.5 c 132,-1,39
 1369 -1266 1369 -1266 1251 -1266 c 4,40,41
 1129 -1266 1129 -1266 1049 -1347 c 4,42,43
 1025 -1372 1025 -1372 1025 -1412 c 132,-1,44
 1025 -1452 1025 -1452 1049.5 -1476 c 132,-1,45
 1074 -1500 1074 -1500 1112 -1500 c 132,-1,46
 1150 -1500 1150 -1500 1178 -1476 c 4,47,48
 1208 -1446 1208 -1446 1251 -1446 c 4,49,50
 1292 -1446 1292 -1446 1323 -1476 c 132,-1,51
 1354 -1506 1354 -1506 1354 -1549 c 4,52,53
 1354 -1591 1354 -1591 1323 -1622 c 132,-1,54
 1292 -1653 1292 -1653 1251 -1653 c 6,55,-1
 94 -1653 l 6,56,57
 56 -1653 56 -1653 28 -1680.5 c 132,-1,58
 0 -1708 0 -1708 0 -1745 c 4,30,31
1525 -667 m 5,59,60
 1412 -619 1412 -619 1278 -619 c 4,61,62
 1052 -619 1052 -619 878.5 -759 c 132,-1,63
 705 -899 705 -899 658 -1116 c 5,64,65
 521 -1148 521 -1148 416 -1247 c 132,-1,66
 311 -1346 311 -1346 271 -1482 c 5,67,-1
 271 -1485 l 6,68,69
 269 -1488 269 -1488 269 -1494 c 4,70,71
 269 -1508 269 -1508 286 -1508 c 6,72,-1
 439 -1508 l 6,73,74
 452 -1508 452 -1508 462 -1492 c 4,75,76
 498 -1405 498 -1405 573.5 -1348.5 c 132,-1,77
 649 -1292 649 -1292 742 -1285 c 5,78,-1
 798 -1277 l 6,79,80
 818 -1277 818 -1277 818 -1259 c 6,81,-1
 826 -1204 l 5,82,83
 843 -1031 843 -1031 973 -914.5 c 132,-1,84
 1103 -798 1103 -798 1278 -798 c 132,-1,85
 1453 -798 1453 -798 1582.5 -914 c 132,-1,86
 1712 -1030 1712 -1030 1730 -1204 c 6,87,-1
 1737 -1266 l 6,88,89
 1737 -1285 1737 -1285 1757 -1285 c 6,90,-1
 1930 -1285 l 6,91,92
 2075 -1285 2075 -1285 2177 -1386 c 132,-1,93
 2279 -1487 2279 -1487 2279 -1629 c 132,-1,94
 2279 -1771 2279 -1771 2176.5 -1873 c 132,-1,95
 2074 -1975 2074 -1975 1930 -1975 c 6,96,-1
 1193 -1975 l 6,97,98
 1175 -1975 1175 -1975 1175 -1994 c 6,99,-1
 1175 -2140 l 6,100,101
 1175 -2158 1175 -2158 1193 -2158 c 6,102,-1
 1930 -2158 l 6,103,104
 2073 -2158 2073 -2158 2194.5 -2087 c 132,-1,105
 2316 -2016 2316 -2016 2387 -1894 c 132,-1,106
 2458 -1772 2458 -1772 2458 -1629 c 4,107,108
 2458 -1488 2458 -1488 2385 -1365 c 1029,109,110
2267 -1223 m 5,111,112
 2125 -1101 2125 -1101 1930 -1101 c 6,113,-1
 1895 -1101 l 5,114,115
 1852 -900 1852 -900 1680 -759 c 1029,116,117
0 89 m 128,-1,119
 0 52 0 52 29 25 c 0,120,121
 56 -2 56 -2 94 -2 c 2,122,-1
 706 -2 l 2,123,124
 748 -2 748 -2 779.5 -32.5 c 128,-1,125
 811 -63 811 -63 811 -105 c 0,126,127
 811 -148 811 -148 779.5 -179 c 128,-1,128
 748 -210 748 -210 706 -210 c 0,129,130
 665 -210 665 -210 633 -178 c 0,131,132
 604 -152 604 -152 568 -152 c 0,133,134
 530 -152 530 -152 504 -178 c 128,-1,135
 478 -204 478 -204 478 -242 c 0,136,137
 478 -278 478 -278 504 -306 c 0,138,139
 588 -390 588 -390 706 -390 c 128,-1,140
 824 -390 824 -390 907.5 -307 c 128,-1,141
 991 -224 991 -224 991 -105 c 0,142,143
 991 13 991 13 907.5 97 c 128,-1,144
 824 181 824 181 706 181 c 2,145,-1
 94 181 l 2,146,147
 56 181 56 181 28 153.5 c 128,-1,118
 0 126 0 126 0 89 c 128,-1,119
0 411 m 0,148,149
 0 376 0 376 29 349 c 0,150,151
 57 323 57 323 94 323 c 2,152,-1
 1251 323 l 2,153,154
 1369 323 1369 323 1452.5 406 c 128,-1,155
 1536 489 1536 489 1536 607 c 128,-1,156
 1536 725 1536 725 1452.5 807.5 c 128,-1,157
 1369 890 1369 890 1251 890 c 0,158,159
 1129 890 1129 890 1049 809 c 0,160,161
 1025 784 1025 784 1025 744 c 128,-1,162
 1025 704 1025 704 1049.5 680 c 128,-1,163
 1074 656 1074 656 1112 656 c 128,-1,164
 1150 656 1150 656 1178 680 c 0,165,166
 1208 710 1208 710 1251 710 c 0,167,168
 1292 710 1292 710 1323 680 c 128,-1,169
 1354 650 1354 650 1354 607 c 0,170,171
 1354 565 1354 565 1323 534 c 128,-1,172
 1292 503 1292 503 1251 503 c 2,173,-1
 94 503 l 2,174,175
 56 503 56 503 28 475.5 c 128,-1,176
 0 448 0 448 0 411 c 0,148,149
269 662 m 0,177,178
 269 648 269 648 286 648 c 2,179,-1
 439 648 l 2,180,181
 452 648 452 648 462 664 c 0,182,183
 498 751 498 751 573.5 807.5 c 128,-1,184
 649 864 649 864 742 871 c 1,185,-1
 798 879 l 2,186,187
 818 879 818 879 818 897 c 2,188,-1
 826 952 l 1,189,190
 843 1125 843 1125 973 1241.5 c 128,-1,191
 1103 1358 1103 1358 1278 1358 c 128,-1,192
 1453 1358 1453 1358 1582.5 1242 c 128,-1,193
 1712 1126 1712 1126 1730 952 c 2,194,-1
 1737 890 l 2,195,196
 1737 871 1737 871 1757 871 c 2,197,-1
 1930 871 l 2,198,199
 2075 871 2075 871 2177 770 c 128,-1,200
 2279 669 2279 669 2279 527 c 128,-1,201
 2279 385 2279 385 2176.5 283 c 128,-1,202
 2074 181 2074 181 1930 181 c 2,203,-1
 1193 181 l 2,204,205
 1175 181 1175 181 1175 162 c 2,206,-1
 1175 16 l 2,207,208
 1175 -2 1175 -2 1193 -2 c 2,209,-1
 1930 -2 l 2,210,211
 2073 -2 2073 -2 2194.5 69 c 128,-1,212
 2316 140 2316 140 2387 262 c 128,-1,213
 2458 384 2458 384 2458 527 c 0,214,215
 2458 668 2458 668 2385 791 c 1,216,217
 2502 904 2502 904 2546 1066 c 1,218,-1
 2562 1138 l 2,219,220
 2565 1141 2565 1141 2565 1146 c 0,221,222
 2565 1153 2565 1153 2550 1163 c 1,223,-1
 2486 1185 l 1,224,225
 2352 1226 2352 1226 2281.5 1330 c 128,-1,226
 2211 1434 2211 1434 2211 1545 c 0,227,228
 2211 1584 2211 1584 2221 1629 c 2,229,-1
 2235 1695 l 2,230,231
 2239 1711 2239 1711 2221 1719 c 2,232,-1
 2136 1745 l 1,233,234
 2066 1762 2066 1762 2003 1762 c 0,235,236
 1944 1762 1944 1762 1883 1748 c 128,-1,237
 1822 1734 1822 1734 1757.5 1704.5 c 128,-1,238
 1693 1675 1693 1675 1632 1619.5 c 128,-1,239
 1571 1564 1571 1564 1525 1489 c 1,240,241
 1412 1537 1412 1537 1278 1537 c 0,242,243
 1052 1537 1052 1537 878.5 1397 c 128,-1,244
 705 1257 705 1257 658 1040 c 1,245,246
 521 1008 521 1008 416 909 c 128,-1,247
 311 810 311 810 271 674 c 1,248,-1
 271 671 l 2,249,250
 269 668 269 668 269 662 c 0,177,178
1680 1397 m 1,251,252
 1730 1485 1730 1485 1818 1531.5 c 128,-1,253
 1906 1578 1906 1578 2000 1578 c 0,254,255
 2022 1578 2022 1578 2033 1577 c 1,256,257
 2031 1563 2031 1563 2031 1539 c 0,258,259
 2031 1388 2031 1388 2115 1250 c 128,-1,260
 2199 1112 2199 1112 2347 1043 c 1,261,262
 2322 983 2322 983 2267 933 c 1,263,264
 2125 1055 2125 1055 1930 1055 c 2,265,-1
 1895 1055 l 1,266,267
 1852 1256 1852 1256 1680 1397 c 1,251,252
EndSplineSet
EndChar

StartChar: uniF023
Encoding: 52 61475 52
Width: 2699
Flags: W
LayerCount: 2
Fore
SplineSet
0 86 m 0
 0 48 0 48 27 23 c 0
 54 -2 54 -2 94 -2 c 2
 1097 -2 l 2
 1135 -2 1135 -2 1160 23 c 0
 1185 48 1185 48 1185 86 c 0
 1185 126 1185 126 1160 151.5 c 0
 1135 177 1135 177 1097 177 c 2
 94 177 l 2
 54 177 54 177 27 151 c 0
 0 125 0 125 0 86 c 0
281 411 m 0
 281 373 281 373 309 347 c 0
 335 320 335 320 373 320 c 2
 1378 320 l 2
 1415 320 1415 320 1440.5 346.5 c 0
 1466 373 1466 373 1466 411 c 0
 1466 448 1466 448 1441 473.5 c 0
 1416 499 1416 499 1378 499 c 2
 373 499 l 2
 335 499 335 499 308 473.5 c 0
 281 448 281 448 281 411 c 0
392 661 m 0
 392 646 392 646 411 646 c 2
 563 646 l 2
 577 646 577 646 587 661 c 0
 623 748 623 748 698 805 c 0
 773 862 773 862 866 869 c 1
 925 877 l 2
 944 877 944 877 944 895 c 2
 951 950 l 1
 968 1124 968 1124 1098.5 1240.5 c 0
 1229 1357 1229 1357 1405 1357 c 0
 1580 1357 1580 1357 1708 1242 c 0
 1836 1127 1836 1127 1858 953 c 2
 1866 891 l 2
 1866 873 1866 873 1885 873 c 2
 2057 873 l 2
 2202 873 2202 873 2304 771 c 0
 2406 669 2406 669 2406 525 c 0
 2406 384 2406 384 2302.5 280.5 c 0
 2199 177 2199 177 2057 177 c 2
 1320 177 l 2
 1302 177 1302 177 1302 159 c 2
 1302 16 l 2
 1302 -2 1302 -2 1320 -2 c 2
 2057 -2 l 2
 2201 -2 2201 -2 2323 68 c 0
 2445 138 2445 138 2516 259.5 c 0
 2587 381 2587 381 2587 525 c 0
 2587 669 2587 669 2518 789 c 1
 2633 892 2633 892 2679 1064 c 2
 2698 1137 l 2
 2699 1139 2699 1139 2699 1144 c 0
 2699 1157 2699 1157 2683 1161 c 2
 2617 1184 l 2
 2547 1205 2547 1205 2493 1245 c 0
 2439 1285 2439 1285 2407.5 1334.5 c 0
 2376 1384 2376 1384 2360.5 1435 c 0
 2345 1486 2345 1486 2345 1536 c 0
 2345 1574 2345 1574 2357 1629 c 2
 2371 1694 l 2
 2378 1709 2378 1709 2357 1718 c 2
 2269 1744 l 2
 2199 1761 2199 1761 2136 1761 c 0
 2076 1761 2076 1761 2015 1747 c 0
 1954 1733 1954 1733 1889 1703.5 c 0
 1824 1674 1824 1674 1763.5 1618.5 c 0
 1703 1563 1703 1563 1658 1488 c 1
 1534 1539 1534 1539 1405 1539 c 0
 1179 1539 1179 1539 1004.5 1398.5 c 0
 830 1258 830 1258 783 1038 c 1
 644 1006 644 1006 539.5 907.5 c 0
 435 809 435 809 394 672 c 1
 394 669 l 2
 392 667 392 667 392 661 c 0
469 -245 m 0
 469 -284 469 -284 496 -309 c 0
 522 -336 522 -336 560 -336 c 2
 1566 -336 l 2
 1604 -336 1604 -336 1631 -309 c 0
 1658 -282 1658 -282 1658 -245 c 0
 1658 -208 1658 -208 1631 -182.5 c 0
 1604 -157 1604 -157 1566 -157 c 2
 560 -157 l 2
 522 -157 522 -157 495.5 -182.5 c 0
 469 -208 469 -208 469 -245 c 0
1811 1394 m 1
 1866 1482 1866 1482 1954.5 1530.5 c 0
 2043 1579 2043 1579 2136 1577 c 0
 2154 1577 2154 1577 2163 1576 c 1
 2163 1550 l 2
 2163 1394 2163 1394 2247.5 1252.5 c 0
 2332 1111 2332 1111 2479 1041 c 1
 2451 977 2451 977 2398 927 c 1
 2257 1053 2257 1053 2057 1053 c 2
 2023 1053 l 1
 1983 1246 1983 1246 1811 1394 c 1
EndSplineSet
EndChar

StartChar: uniF024
Encoding: 53 61476 53
Width: 2325
Flags: W
LayerCount: 2
Fore
SplineSet
0 527 m 0
 0 314 0 314 148.5 161 c 0
 297 8 297 8 511 -2 c 0
 530 -2 530 -2 530 16 c 2
 530 159 l 2
 530 177 530 177 511 177 c 0
 374 184 374 184 278 286 c 0
 182 388 182 388 182 527 c 0
 182 660 182 660 272 758 c 0
 362 856 362 856 496 872 c 1
 552 875 l 2
 573 875 573 875 573 894 c 2
 581 952 l 1
 598 1125 598 1125 727.5 1242 c 0
 857 1359 857 1359 1032 1359 c 0
 1205 1359 1205 1359 1336 1242 c 0
 1467 1125 1467 1125 1485 952 c 1
 1493 890 l 2
 1493 872 1493 872 1511 872 c 2
 1683 872 l 2
 1825 872 1825 872 1929 769.5 c 0
 2033 667 2033 667 2033 527 c 0
 2033 388 2033 388 1937 286 c 0
 1841 184 1841 184 1704 177 c 0
 1683 177 1683 177 1683 159 c 2
 1683 16 l 2
 1683 -2 1683 -2 1704 -2 c 0
 1917 5 1917 5 2065 159 c 0
 2213 313 2213 313 2213 527 c 0
 2213 664 2213 664 2144 784 c 1
 2270 903 2270 903 2309 1063 c 1
 2323 1136 l 2
 2326 1138 2326 1138 2326 1143 c 0
 2326 1155 2326 1155 2309 1160 c 2
 2249 1178 l 2
 2158 1205 2158 1205 2093.5 1268.5 c 0
 2029 1332 2029 1332 2002 1401.5 c 0
 1975 1471 1975 1471 1975 1542 c 0
 1974 1581 1974 1581 1983 1626 c 2
 1998 1688 l 2
 2003 1702 2003 1702 1983 1711 c 2
 1898 1738 l 2
 1831 1758 1831 1758 1758 1758 c 0
 1702 1758 1702 1758 1642.5 1744.5 c 0
 1583 1731 1583 1731 1518 1701.5 c 0
 1453 1672 1453 1672 1391.5 1616.5 c 0
 1330 1561 1330 1561 1285 1486 c 1
 1165 1538 1165 1538 1032 1538 c 0
 806 1538 806 1538 631 1398 c 0
 456 1258 456 1258 407 1040 c 1
 230 999 230 999 115 855.5 c 0
 0 712 0 712 0 527 c 0
584 -223 m 0
 598 -257 598 -257 633 -271 c 0
 664 -287 664 -287 699 -273.5 c 0
 734 -260 734 -260 747 -226 c 0
 763 -191 763 -191 749.5 -157 c 0
 736 -123 736 -123 702 -110 c 0
 670 -94 670 -94 636 -108 c 0
 602 -122 602 -122 586 -157 c 1
 570 -182 570 -182 584 -223 c 0
651 79 m 0
 651 55 651 55 668 31 c 0
 685 7 685 7 717 -3 c 0
 758 -19 758 -19 788.5 -2.5 c 0
 819 14 819 14 831 58 c 2
 925 400 l 2
 936 440 936 440 916.5 471.5 c 0
 897 503 897 503 859 511 c 0
 824 522 824 522 792 504 c 0
 760 486 760 486 749 450 c 2
 655 107 l 2
 655 104 655 104 653 94 c 0
 651 84 651 84 651 79 c 0
850 -518 m 0
 850 -538 850 -538 856 -549 c 0
 870 -584 870 -584 904 -597 c 0
 919 -605 919 -605 939 -605 c 0
 949 -605 949 -605 971 -599 c 0
 1007 -586 1007 -586 1022.5 -551 c 0
 1038 -516 1038 -516 1022 -481 c 0
 1006 -446 1006 -446 974.5 -432 c 0
 943 -418 943 -418 909 -432 c 0
 878 -445 878 -445 864 -470 c 0
 850 -495 850 -495 850 -518 c 0
929 -235 m 0
 929 -296 929 -296 997 -318 c 0
 1012 -323 1012 -323 1022 -323 c 0
 1040 -323 1040 -323 1059 -314 c 0
 1096 -301 1096 -301 1109 -253 c 2
 1285 400 l 2
 1295 438 1295 438 1277.5 469 c 0
 1260 500 1260 500 1224 511 c 0
 1187 522 1187 522 1154.5 504 c 0
 1122 486 1122 486 1112 450 c 2
 933 -208 l 2
 929 -226 929 -226 929 -235 c 0
1296 -191 m 0
 1296 -211 1296 -211 1303 -224 c 0
 1316 -256 1316 -256 1350 -271 c 0
 1369 -279 1369 -279 1387 -279 c 0
 1397 -279 1397 -279 1419 -273 c 0
 1454 -259 1454 -259 1467 -226 c 0
 1480 -191 1480 -191 1467.5 -158.5 c 0
 1455 -126 1455 -126 1423 -110 c 0
 1388 -94 1388 -94 1353.5 -107.5 c 0
 1319 -121 1319 -121 1303 -157 c 0
 1296 -170 1296 -170 1296 -191 c 0
1373 82 m 0
 1373 56 1373 56 1389.5 33 c 0
 1406 10 1406 10 1438 0 c 1
 1465 -3 1465 -3 1467 -3 c 0
 1532 -3 1532 -3 1549 62 c 2
 1642 400 l 2
 1652 438 1652 438 1634.5 469 c 0
 1617 500 1617 500 1581 511 c 0
 1544 522 1544 522 1512.5 504 c 0
 1481 486 1481 486 1470 450 c 2
 1376 111 l 2
 1373 97 1373 97 1373 82 c 0
1442 1389 m 1
 1492 1481 1492 1481 1580.5 1529 c 0
 1669 1577 1669 1577 1768 1576 c 0
 1786 1576 1786 1576 1795 1574 c 1
 1795 1541 l 2
 1795 1385 1795 1385 1878.5 1247.5 c 0
 1962 1110 1962 1110 2110 1040 c 1
 2079 970 2079 970 2030 926 c 1
 1889 1051 1889 1051 1683 1051 c 2
 1649 1051 l 1
 1608 1251 1608 1251 1442 1389 c 1
EndSplineSet
EndChar

StartChar: uniF025
Encoding: 54 61477 54
Width: 2320
Flags: W
LayerCount: 2
Fore
SplineSet
0 527 m 0
 0 314 0 314 148.5 161 c 0
 297 8 297 8 511 -2 c 0
 529 -2 529 -2 529 16 c 2
 529 162 l 2
 529 181 529 181 511 181 c 0
 372 192 372 192 277 291.5 c 0
 182 391 182 391 182 527 c 0
 182 661 182 661 272.5 760.5 c 0
 363 860 363 860 496 871 c 1
 552 879 l 2
 573 879 573 879 573 897 c 2
 581 952 l 1
 598 1125 598 1125 727 1241.5 c 0
 856 1358 856 1358 1031 1358 c 0
 1205 1358 1205 1358 1335 1242 c 0
 1465 1126 1465 1126 1483 952 c 1
 1491 890 l 2
 1491 871 1491 871 1510 871 c 2
 1682 871 l 2
 1827 871 1827 871 1929.5 770 c 0
 2032 669 2032 669 2032 527 c 0
 2032 391 2032 391 1937 291.5 c 0
 1842 192 1842 192 1703 181 c 0
 1682 181 1682 181 1682 162 c 2
 1682 16 l 2
 1682 -2 1682 -2 1703 -2 c 0
 1916 5 1916 5 2063.5 159 c 0
 2211 313 2211 313 2211 527 c 0
 2211 670 2211 670 2138 791 c 1
 2266 907 2266 907 2303 1066 c 2
 2319 1143 l 2
 2320 1144 2320 1144 2320 1150 c 0
 2320 1162 2320 1162 2303 1167 c 2
 2241 1185 l 2
 2150 1211 2150 1211 2086 1273 c 0
 2022 1335 2022 1335 1995 1404.5 c 0
 1968 1474 1968 1474 1968 1545 c 0
 1968 1584 1968 1584 1978 1629 c 2
 1993 1695 l 2
 1998 1710 1998 1710 1978 1719 c 2
 1894 1745 l 1
 1824 1762 1824 1762 1761 1762 c 0
 1703 1762 1703 1762 1642 1748 c 0
 1581 1734 1581 1734 1515 1704.5 c 0
 1449 1675 1449 1675 1387 1619.5 c 0
 1325 1564 1325 1564 1280 1489 c 1
 1167 1537 1167 1537 1031 1537 c 0
 805 1537 805 1537 630.5 1397.5 c 0
 456 1258 456 1258 406 1040 c 1
 230 998 230 998 115 854.5 c 0
 0 711 0 711 0 527 c 0
818 31 m 2
 810 8 810 8 833 8 c 2
 1063 8 l 1
 923 -434 l 1
 955 -434 l 1
 1400 162 l 2
 1406 169 1406 169 1403 176.5 c 0
 1400 184 1400 184 1389 184 c 2
 1154 184 l 1
 1400 633 l 2
 1411 656 1411 656 1385 656 c 2
 1071 656 l 2
 1058 656 1058 656 1048 641 c 1
 818 31 l 2
1437 1391 m 1
 1490 1482 1490 1482 1578.5 1530 c 0
 1667 1578 1667 1578 1762 1578 c 0
 1782 1578 1782 1578 1791 1576 c 1
 1791 1543 l 2
 1791 1389 1791 1389 1874 1252 c 0
 1957 1115 1957 1115 2105 1043 c 1
 2080 984 2080 984 2025 929 c 1
 1878 1055 1878 1055 1682 1055 c 2
 1648 1055 l 1
 1603 1255 1603 1255 1437 1391 c 1
EndSplineSet
EndChar

StartChar: uniF026
Encoding: 55 61478 55
Width: 2332
Flags: W
LayerCount: 2
Fore
SplineSet
0 525 m 0
 0 313 0 313 149 159 c 0
 298 5 298 5 512 -2 c 0
 531 -2 531 -2 531 16 c 2
 531 159 l 2
 531 177 531 177 512 177 c 0
 376 184 376 184 279 287 c 0
 182 390 182 390 182 525 c 0
 182 661 182 661 272.5 760.5 c 0
 363 860 363 860 497 871 c 1
 554 878 l 2
 575 878 575 878 575 897 c 2
 582 951 l 1
 599 1127 599 1127 728.5 1244.5 c 0
 858 1362 858 1362 1034 1362 c 0
 1208 1362 1208 1362 1339.5 1245 c 0
 1471 1128 1471 1128 1489 955 c 1
 1497 894 l 2
 1497 874 1497 874 1515 874 c 2
 1688 874 l 2
 1833 874 1833 874 1936.5 771 c 0
 2040 668 2040 668 2040 525 c 0
 2040 437 2040 437 1996 358.5 c 0
 1952 280 1952 280 1875.5 231 c 0
 1799 182 1799 182 1709 177 c 0
 1688 177 1688 177 1688 159 c 2
 1688 16 l 2
 1688 -2 1688 -2 1709 -2 c 0
 1850 2 1850 2 1967 74 c 0
 2084 146 2084 146 2151.5 265.5 c 0
 2219 385 2219 385 2219 525 c 0
 2219 666 2219 666 2146 793 c 1
 2279 912 2279 912 2315 1073 c 2
 2330 1146 l 2
 2333 1149 2333 1149 2333 1154 c 0
 2333 1163 2333 1163 2315 1171 c 2
 2256 1190 l 2
 2164 1217 2164 1217 2099 1280.5 c 0
 2034 1344 2034 1344 2006.5 1413.5 c 0
 1979 1483 1979 1483 1979 1551 c 0
 1976 1585 1976 1585 1989 1639 c 2
 2003 1701 l 2
 2010 1717 2010 1717 1989 1726 c 2
 1904 1752 l 2
 1839 1770 1839 1770 1766 1770 c 0
 1708 1770 1708 1770 1646.5 1756 c 0
 1585 1742 1585 1742 1519.5 1712 c 0
 1454 1682 1454 1682 1392 1625.5 c 0
 1330 1569 1330 1569 1285 1494 c 1
 1155 1543 1155 1543 1034 1543 c 0
 808 1543 808 1543 632.5 1402.5 c 0
 457 1262 457 1262 407 1043 c 1
 227 997 227 997 113.5 854 c 0
 0 711 0 711 0 525 c 0
577 -227 m 0
 577 -254 577 -254 594.5 -281 c 0
 612 -308 612 -308 645 -318 c 0
 682 -329 682 -329 713 -314 c 0
 744 -299 744 -299 755 -254 c 2
 770 -189 l 2
 778 -153 778 -153 760 -121.5 c 0
 742 -90 742 -90 705 -79 c 0
 669 -68 669 -68 636.5 -87 c 0
 604 -106 604 -106 594 -144 c 2
 579 -207 l 2
 577 -213 577 -213 577 -227 c 0
658 82 m 0
 658 48 658 48 685 21 c 0
 710 -6 710 -6 745 -6 c 0
 783 -6 783 -6 809 19.5 c 0
 835 45 835 45 835 82 c 0
 835 119 835 119 809 144.5 c 0
 783 170 783 170 745 170 c 0
 708 170 708 170 683 145 c 0
 658 120 658 120 658 82 c 0
723 325 m 0
 721 300 721 300 737.5 276.5 c 0
 754 253 754 253 789 242 c 0
 822 232 822 232 855 249.5 c 0
 888 267 888 267 899 304 c 2
 929 400 l 2
 941 439 941 439 922 469.5 c 0
 903 500 903 500 864 511 c 0
 829 522 829 522 796.5 504 c 0
 764 486 764 486 753 451 c 2
 727 353 l 2
 727 350 727 350 725 340.5 c 0
 723 331 723 331 723 325 c 0
847 -560 m 0
 847 -588 847 -588 863.5 -613 c 0
 880 -638 880 -638 915 -648 c 0
 928 -651 928 -651 942 -651 c 0
 1010 -651 1010 -651 1026 -586 c 2
 1041 -523 l 2
 1051 -482 1051 -482 1032 -450 c 0
 1013 -418 1013 -418 976 -411 c 1
 942 -400 942 -400 909 -418.5 c 0
 876 -437 876 -437 865 -473 c 2
 850 -536 l 2
 847 -550 847 -550 847 -560 c 0
930 -250 m 0
 930 -285 930 -285 957 -312 c 0
 983 -338 983 -338 1018 -338 c 0
 1056 -338 1056 -338 1081 -313 c 0
 1106 -288 1106 -288 1106 -250 c 0
 1106 -213 1106 -213 1081 -188 c 0
 1056 -163 1056 -163 1018 -163 c 0
 980 -163 980 -163 955 -188 c 0
 930 -213 930 -213 930 -250 c 0
997 -8 m 0
 995 -32 995 -32 1011 -58 c 0
 1027 -84 1027 -84 1059 -90 c 0
 1096 -100 1096 -100 1127 -84 c 0
 1158 -68 1158 -68 1171 -24 c 2
 1200 72 l 2
 1211 107 1211 107 1192.5 139 c 0
 1174 171 1174 171 1136 182 c 0
 1101 193 1101 193 1068 173.5 c 0
 1035 154 1035 154 1024 117 c 2
 1000 21 l 2
 997 8 997 8 997 -8 c 0
1291 -237 m 0
 1291 -263 1291 -263 1307.5 -288 c 0
 1324 -313 1324 -313 1357 -323 c 0
 1362 -323 1362 -323 1371.5 -325 c 0
 1381 -327 1381 -327 1386 -327 c 0
 1451 -327 1451 -327 1467 -257 c 2
 1482 -193 l 2
 1493 -159 1493 -159 1475 -126 c 0
 1457 -93 1457 -93 1421 -82 c 0
 1381 -72 1381 -72 1348.5 -90.5 c 0
 1316 -109 1316 -109 1305 -147 c 1
 1295 -210 l 2
 1295 -214 1295 -214 1293 -223 c 0
 1291 -232 1291 -232 1291 -237 c 0
1370 78 m 0
 1370 42 1370 42 1397 17 c 0
 1421 -9 1421 -9 1458 -9 c 0
 1496 -9 1496 -9 1521 16 c 0
 1546 41 1546 41 1546 78 c 0
 1546 116 1546 116 1521 141 c 0
 1496 166 1496 166 1458 166 c 0
 1420 166 1420 166 1395 141 c 0
 1370 116 1370 116 1370 78 c 0
1435 325 m 0
 1435 298 1435 298 1452.5 273.5 c 0
 1470 249 1470 249 1505 239 c 0
 1508 239 1508 239 1518 237 c 0
 1528 235 1528 235 1533 235 c 0
 1549 235 1549 235 1571 245 c 0
 1605 263 1605 263 1615 301 c 2
 1641 397 l 2
 1651 433 1651 433 1633 464.5 c 0
 1615 496 1615 496 1579 507 c 0
 1542 518 1542 518 1511 501 c 0
 1480 484 1480 484 1469 447 c 2
 1439 350 l 2
 1439 346 1439 346 1437 337.5 c 0
 1435 329 1435 329 1435 325 c 0
1442 1397 m 1
 1493 1489 1493 1489 1582 1539.5 c 0
 1671 1590 1671 1590 1766 1589 c 0
 1781 1589 1781 1589 1798 1586 c 1
 1798 1552 l 2
 1796 1395 1796 1395 1880.5 1257.5 c 0
 1965 1120 1965 1120 2117 1051 c 1
 2086 986 2086 986 2032 933 c 1
 1884 1055 1884 1055 1688 1055 c 2
 1655 1055 l 1
 1605 1263 1605 1263 1442 1397 c 1
EndSplineSet
EndChar

StartChar: uniF027
Encoding: 56 61479 56
Width: 2333
Flags: W
LayerCount: 2
Fore
SplineSet
0 525 m 0
 0 346 0 346 106.5 204.5 c 0
 213 63 213 63 381 16 c 0
 395 13 395 13 407 24 c 2
 527 174 l 1
 387 174 387 174 284.5 278 c 0
 182 382 182 382 182 525 c 0
 182 659 182 659 272 756.5 c 0
 362 854 362 854 497 866 c 1
 550 873 l 2
 570 873 570 873 570 893 c 2
 578 950 l 1
 598 1124 598 1124 728 1241 c 0
 858 1358 858 1358 1033 1358 c 0
 1207 1358 1207 1358 1338 1240.5 c 0
 1469 1123 1469 1123 1488 950 c 2
 1495 888 l 2
 1495 870 1495 870 1514 870 c 2
 1687 870 l 2
 1828 870 1828 870 1930.5 768 c 0
 2033 666 2033 666 2033 525 c 0
 2033 389 2033 389 1943 288.5 c 0
 1853 188 1853 188 1722 177 c 0
 1650 168 1650 168 1630 147 c 2
 1381 -163 l 2
 1356 -191 1356 -191 1361 -230 c 0
 1365 -268 1365 -268 1394.5 -293 c 0
 1424 -318 1424 -318 1455 -318 c 0
 1491 -318 1491 -318 1523 -278 c 2
 1741 -2 l 1
 1840 8 1840 8 1928.5 53.5 c 0
 2017 99 2017 99 2080 169 c 0
 2143 239 2143 239 2180 332 c 0
 2217 425 2217 425 2217 525 c 0
 2217 664 2217 664 2144 785 c 1
 2274 903 2274 903 2313 1065 c 1
 2313 1075 l 1
 2334 1157 l 1
 2253 1185 l 1
 2161 1212 2161 1212 2096.5 1274 c 0
 2032 1336 2032 1336 2004.5 1405 c 0
 1977 1474 1977 1474 1977 1545 c 0
 1977 1586 1977 1586 1986 1630 c 2
 2006 1713 l 1
 1917 1738 l 2
 1916 1738 1916 1738 1914 1739.5 c 0
 1912 1741 1912 1741 1910 1742 c 0
 1908 1743 1908 1743 1905.5 1744 c 0
 1903 1745 1903 1745 1902 1745 c 0
 1832 1762 1832 1762 1769 1762 c 0
 1708 1761 1708 1761 1646.5 1747 c 0
 1585 1733 1585 1733 1518.5 1703 c 0
 1452 1673 1452 1673 1390 1617 c 0
 1328 1561 1328 1561 1283 1485 c 1
 1163 1537 1163 1537 1033 1537 c 0
 807 1537 807 1537 632 1397 c 0
 457 1257 457 1257 407 1039 c 1
 226 995 226 995 113 852.5 c 0
 0 710 0 710 0 525 c 0
395 -327 m 0
 395 -348 395 -348 402 -360 c 0
 416 -395 416 -395 448 -409 c 0
 483 -425 483 -425 519 -412 c 0
 555 -399 555 -399 568 -365 c 0
 584 -330 584 -330 569.5 -293.5 c 0
 555 -257 555 -257 521 -245 c 0
 486 -229 486 -229 450.5 -242.5 c 0
 415 -256 415 -256 402 -291 c 0
 395 -306 395 -306 395 -327 c 0
592 -66 m 2
 592 -78 l 2
 595 -114 595 -114 627 -137 c 1
 648 -161 648 -161 685 -160 c 0
 722 -159 722 -159 755 -126 c 1
 1003 185 l 2
 1025 213 1025 213 1021 251.5 c 0
 1017 290 1017 290 989 313 c 0
 961 336 961 336 922 332 c 0
 883 328 883 328 861 296 c 2
 613 -9 l 2
 592 -33 592 -33 592 -66 c 2
653 -622 m 0
 667 -656 667 -656 702 -670 c 0
 719 -678 719 -678 737 -678 c 0
 747 -678 747 -678 769 -672 c 0
 803 -658 803 -658 816 -625 c 0
 829 -590 829 -590 817 -556 c 0
 805 -522 805 -522 770 -505 c 0
 735 -492 735 -492 703 -505.5 c 0
 671 -519 671 -519 655 -552 c 0
 638 -582 638 -582 653 -622 c 0
823 -338 m 2
 823 -347 l 1
 827 -383 827 -383 857 -408.5 c 0
 887 -434 887 -434 917 -434 c 0
 952 -434 952 -434 981 -398 c 2
 1441 174 l 2
 1464 201 1464 201 1461 240 c 0
 1458 279 1458 279 1430 302 c 0
 1398 325 1398 325 1359.5 321.5 c 0
 1321 318 1321 318 1299 290 c 2
 843 -282 l 2
 823 -307 823 -307 823 -338 c 2
1197 -456 m 0
 1197 -474 1197 -474 1205 -491 c 0
 1218 -527 1218 -527 1255 -541 c 0
 1291 -555 1291 -555 1320 -543 c 0
 1355 -529 1355 -529 1369 -494 c 0
 1385 -459 1385 -459 1372.5 -425.5 c 0
 1360 -392 1360 -392 1325 -376 c 0
 1290 -363 1290 -363 1255.5 -376 c 0
 1221 -389 1221 -389 1205 -421 c 0
 1197 -440 1197 -440 1197 -456 c 0
1441 1391 m 1
 1491 1483 1491 1483 1579.5 1531.5 c 0
 1668 1580 1668 1580 1767 1578 c 0
 1786 1578 1786 1578 1795 1577 c 1
 1795 1545 l 2
 1795 1390 1795 1390 1880.5 1251.5 c 0
 1966 1113 1966 1113 2114 1042 c 1
 2074 967 2074 967 2030 923 c 1
 1888 1049 1888 1049 1687 1049 c 2
 1653 1049 l 1
 1605 1254 1605 1254 1441 1391 c 1
EndSplineSet
EndChar

StartChar: uniF028
Encoding: 57 61480 57
Width: 2331
Flags: W
LayerCount: 2
Fore
SplineSet
0 528 m 0
 0 315 0 315 149 161.5 c 0
 298 8 298 8 512 -2 c 0
 531 -2 531 -2 531 16 c 2
 531 159 l 2
 531 177 531 177 512 177 c 0
 375 185 375 185 278.5 287 c 0
 182 389 182 389 182 528 c 0
 182 661 182 661 272.5 759.5 c 0
 363 858 363 858 497 874 c 1
 554 878 l 2
 575 878 575 878 575 896 c 2
 582 954 l 2
 599 1127 599 1127 729 1244.5 c 0
 859 1362 859 1362 1034 1362 c 0
 1208 1362 1208 1362 1339 1244.5 c 0
 1470 1127 1470 1127 1488 954 c 1
 1496 893 l 2
 1496 874 1496 874 1514 874 c 2
 1687 874 l 2
 1830 874 1830 874 1934.5 771.5 c 0
 2039 669 2039 669 2039 528 c 0
 2039 389 2039 389 1942.5 287 c 0
 1846 185 1846 185 1709 177 c 0
 1687 177 1687 177 1687 159 c 2
 1687 16 l 2
 1687 -2 1687 -2 1709 -2 c 0
 1922 5 1922 5 2070 159.5 c 0
 2218 314 2218 314 2218 528 c 0
 2218 669 2218 669 2145 790 c 1
 2274 907 2274 907 2314 1069 c 1
 2329 1146 l 2
 2331 1147 2331 1147 2331 1153 c 0
 2331 1165 2331 1165 2314 1170 c 2
 2254 1189 l 2
 2163 1215 2163 1215 2098 1277.5 c 0
 2033 1340 2033 1340 2005.5 1409 c 0
 1978 1478 1978 1478 1978 1546 c 0
 1975 1582 1975 1582 1987 1634 c 2
 2002 1699 l 2
 2009 1715 2009 1715 1987 1725 c 2
 1903 1751 l 1
 1831 1767 1831 1767 1768 1767 c 0
 1708 1767 1708 1767 1646 1753 c 0
 1584 1739 1584 1739 1518 1709.5 c 0
 1452 1680 1452 1680 1390 1624.5 c 0
 1328 1569 1328 1569 1283 1494 c 1
 1151 1542 1151 1542 1034 1542 c 0
 808 1542 808 1542 632.5 1401.5 c 0
 457 1261 457 1261 407 1042 c 1
 230 1001 230 1001 115 857 c 0
 0 713 0 713 0 528 c 0
593 -201 m 0
 593 -228 593 -228 610.5 -253.5 c 0
 628 -279 628 -279 663 -289 c 0
 700 -300 700 -300 731.5 -284.5 c 0
 763 -269 763 -269 774 -225 c 2
 927 401 l 2
 937 441 937 441 918 473 c 0
 899 505 899 505 862 512 c 1
 827 523 827 523 794.5 505 c 0
 762 487 762 487 751 451 c 2
 597 -178 l 2
 597 -180 597 -180 595 -188 c 0
 593 -196 593 -196 593 -201 c 0
871 -529 m 0
 871 -554 871 -554 887.5 -578 c 0
 904 -602 904 -602 935 -611 c 0
 953 -615 953 -615 961 -615 c 0
 1031 -615 1031 -615 1048 -552 c 2
 1288 401 l 2
 1298 440 1298 440 1280.5 470.5 c 0
 1263 501 1263 501 1227 512 c 0
 1190 523 1190 523 1156.5 504.5 c 0
 1123 486 1123 486 1115 451 c 2
 874 -501 l 2
 874 -503 874 -503 872.5 -513.5 c 0
 871 -524 871 -524 871 -529 c 0
1315 -210 m 0
 1315 -267 1315 -267 1382 -289 c 0
 1404 -295 1404 -295 1414 -295 c 0
 1432 -295 1432 -295 1451 -287 c 0
 1484 -274 1484 -274 1493 -225 c 2
 1646 401 l 2
 1656 439 1656 439 1638 470 c 0
 1620 501 1620 501 1584 512 c 0
 1547 523 1547 523 1514 505 c 0
 1481 487 1481 487 1473 451 c 2
 1320 -178 l 2
 1315 -206 1315 -206 1315 -210 c 0
1441 1395 m 1
 1492 1488 1492 1488 1580.5 1536.5 c 0
 1669 1585 1669 1585 1768 1583 c 0
 1787 1583 1787 1583 1797 1582 c 1
 1797 1550 l 2
 1795 1395 1795 1395 1879 1257 c 0
 1963 1119 1963 1119 2115 1047 c 1
 2079 974 2079 974 2031 933 c 1
 1884 1054 1884 1054 1687 1054 c 2
 1654 1054 l 1
 1610 1257 1610 1257 1441 1395 c 1
EndSplineSet
EndChar

StartChar: uniF029
Encoding: 58 61481 58
Width: 2331
Flags: W
LayerCount: 2
Fore
SplineSet
0 527 m 0
 0 314 0 314 148.5 161 c 0
 297 8 297 8 511 -2 c 0
 529 -2 529 -2 529 16 c 2
 529 162 l 2
 529 181 529 181 511 181 c 0
 372 192 372 192 277 291.5 c 0
 182 391 182 391 182 527 c 0
 182 659 182 659 272 757 c 0
 362 855 362 855 496 871 c 2
 552 879 l 2
 573 879 573 879 573 897 c 2
 581 952 l 1
 598 1125 598 1125 727 1241.5 c 0
 856 1358 856 1358 1031 1358 c 0
 1205 1358 1205 1358 1335 1242 c 0
 1465 1126 1465 1126 1483 952 c 1
 1491 890 l 2
 1491 871 1491 871 1510 871 c 2
 1682 871 l 2
 1826 871 1826 871 1929 770 c 0
 2032 669 2032 669 2032 527 c 0
 2032 391 2032 391 1937 291.5 c 0
 1842 192 1842 192 1703 181 c 0
 1682 181 1682 181 1682 162 c 2
 1682 16 l 2
 1682 -2 1682 -2 1703 -2 c 0
 1916 5 1916 5 2063.5 159 c 0
 2211 313 2211 313 2211 527 c 0
 2211 666 2211 666 2142 786 c 1
 2272 903 2272 903 2311 1065 c 1
 2311 1079 l 1
 2331 1163 l 1
 2250 1185 l 2
 2120 1224 2120 1224 2048 1329.5 c 0
 1976 1435 1976 1435 1976 1546 c 0
 1976 1588 1976 1588 1985 1629 c 2
 2006 1714 l 1
 1915 1741 l 1
 1901 1745 l 1
 1826 1760 1826 1760 1768 1760 c 0
 1708 1760 1708 1760 1646 1746 c 0
 1584 1732 1584 1732 1517.5 1702 c 0
 1451 1672 1451 1672 1389.5 1616.5 c 0
 1328 1561 1328 1561 1283 1485 c 1
 1164 1537 1164 1537 1031 1537 c 0
 805 1537 805 1537 631.5 1397 c 0
 458 1257 458 1257 411 1039 c 1
 231 998 231 998 115.5 855 c 0
 0 712 0 712 0 527 c 0
576 -195 m 0
 576 -219 576 -219 592 -242.5 c 0
 608 -266 608 -266 640 -278 c 0
 675 -290 675 -290 708 -272.5 c 0
 741 -255 741 -255 752 -218 c 2
 782 -105 l 2
 793 -72 793 -72 774.5 -39 c 0
 756 -6 756 -6 720 5 c 0
 683 15 683 15 650.5 -4 c 0
 618 -23 618 -23 606 -61 c 2
 581 -167 l 2
 576 -192 576 -192 576 -195 c 0
714 310 m 0
 714 292 714 292 725 272 c 0
 737 244 737 244 782 231 c 0
 821 221 821 221 852 237.5 c 0
 883 254 883 254 895 293 c 2
 925 403 l 2
 936 440 936 440 917.5 471.5 c 0
 899 503 899 503 863 513 c 0
 824 523 824 523 792 505.5 c 0
 760 488 760 488 749 450 c 2
 720 342 l 2
 714 320 714 320 714 310 c 0
848 -528 m 0
 848 -555 848 -555 864.5 -580.5 c 0
 881 -606 881 -606 913 -616 c 0
 930 -621 930 -621 937 -621 c 0
 951 -621 951 -621 977 -610 c 0
 1009 -597 1009 -597 1023 -551 c 2
 1055 -439 l 2
 1066 -405 1066 -405 1047.5 -372 c 0
 1029 -339 1029 -339 993 -328 c 0
 954 -318 954 -318 921.5 -336.5 c 0
 889 -355 889 -355 878 -393 c 2
 851 -501 l 2
 848 -514 848 -514 848 -528 c 0
990 -19 m 2
 990 -43 990 -43 1006 -66.5 c 0
 1022 -90 1022 -90 1055 -102 c 0
 1091 -113 1091 -113 1123 -96 c 0
 1155 -79 1155 -79 1166 -40 c 2
 1195 71 l 2
 1206 105 1206 105 1188.5 137.5 c 0
 1171 170 1171 170 1136 181 c 0
 1097 191 1097 191 1063.5 172 c 0
 1030 153 1030 153 1019 115 c 2
 993 8 l 1
 990 -19 l 2
1289 -207 m 0
 1289 -267 1289 -267 1357 -287 c 0
 1371 -290 1371 -290 1383 -290 c 0
 1407 -290 1407 -290 1422 -283 c 0
 1456 -270 1456 -270 1469 -222 c 2
 1498 -113 l 2
 1508 -73 1508 -73 1489.5 -41.5 c 0
 1471 -10 1471 -10 1433 -2 c 0
 1396 9 1396 9 1364.5 -9.5 c 0
 1333 -28 1333 -28 1322 -64 c 2
 1293 -175 l 2
 1293 -179 1293 -179 1291 -190.5 c 0
 1289 -202 1289 -202 1289 -207 c 0
1437 307 m 0
 1437 282 1437 282 1453.5 258 c 0
 1470 234 1470 234 1503 224 c 0
 1526 219 1526 219 1528 219 c 0
 1542 219 1542 219 1568 230 c 0
 1601 243 1601 243 1615 289 c 2
 1645 400 l 2
 1655 435 1655 435 1636 467 c 0
 1617 499 1617 499 1579 510 c 0
 1544 521 1544 521 1512 502.5 c 0
 1480 484 1480 484 1469 447 c 2
 1441 334 l 2
 1437 316 1437 316 1437 307 c 0
1441 1391 m 1
 1492 1481 1492 1481 1582.5 1531 c 0
 1673 1581 1673 1581 1776 1581 c 2
 1798 1581 l 1
 1797 1567 1797 1567 1797 1541 c 0
 1797 1389 1797 1389 1880.5 1252 c 0
 1964 1115 1964 1115 2112 1043 c 1
 2077 974 2077 974 2029 926 c 1
 1880 1055 1880 1055 1682 1055 c 2
 1648 1055 l 1
 1608 1244 1608 1244 1441 1391 c 1
EndSplineSet
EndChar

StartChar: uniF02A
Encoding: 59 61482 59
Width: 2331
Flags: W
LayerCount: 2
Fore
SplineSet
0 525 m 0
 0 313 0 313 149 159 c 0
 298 5 298 5 512 -2 c 0
 531 -2 531 -2 531 16 c 2
 531 159 l 2
 531 177 531 177 512 177 c 0
 376 184 376 184 279 286.5 c 0
 182 389 182 389 182 525 c 0
 182 661 182 661 272.5 760 c 0
 363 859 363 859 497 870 c 1
 554 878 l 2
 575 878 575 878 575 896 c 2
 582 951 l 1
 599 1126 599 1126 728.5 1244 c 0
 858 1362 858 1362 1034 1362 c 0
 1208 1362 1208 1362 1339 1244.5 c 0
 1470 1127 1470 1127 1488 954 c 1
 1496 893 l 2
 1496 874 1496 874 1514 874 c 2
 1687 874 l 2
 1832 874 1832 874 1935.5 771 c 0
 2039 668 2039 668 2039 525 c 0
 2039 389 2039 389 1942 286.5 c 0
 1845 184 1845 184 1709 177 c 0
 1687 177 1687 177 1687 159 c 2
 1687 16 l 2
 1687 -2 1687 -2 1709 -2 c 0
 1849 2 1849 2 1966 74 c 0
 2083 146 2083 146 2150.5 266 c 0
 2218 386 2218 386 2218 525 c 0
 2218 671 2218 671 2149 790 c 1
 2267 896 2267 896 2311 1065 c 1
 2329 1142 l 2
 2331 1144 2331 1144 2331 1150 c 0
 2331 1162 2331 1162 2314 1167 c 2
 2249 1185 l 2
 2179 1206 2179 1206 2124.5 1246 c 0
 2070 1286 2070 1286 2038.5 1335.5 c 0
 2007 1385 2007 1385 1991.5 1436.5 c 0
 1976 1488 1976 1488 1976 1538 c 0
 1976 1581 1976 1581 1987 1630 c 2
 1999 1696 l 2
 2003 1711 2003 1711 1984 1720 c 2
 1899 1746 l 1
 1829 1763 1829 1763 1766 1763 c 0
 1707 1763 1707 1763 1646 1749 c 0
 1585 1735 1585 1735 1520 1705 c 0
 1455 1675 1455 1675 1394 1619.5 c 0
 1333 1564 1333 1564 1288 1489 c 1
 1159 1542 1159 1542 1034 1542 c 0
 808 1542 808 1542 632.5 1401.5 c 0
 457 1261 457 1261 407 1042 c 1
 227 997 227 997 113.5 854 c 0
 0 711 0 711 0 525 c 0
681 89 m 0
 681 51 681 51 706.5 24.5 c 0
 732 -2 732 -2 769 -2 c 0
 807 -2 807 -2 832.5 24.5 c 0
 858 51 858 51 858 89 c 0
 858 125 858 125 832.5 151 c 0
 807 177 807 177 769 177 c 0
 732 177 732 177 706.5 151 c 0
 681 125 681 125 681 89 c 0
681 -299 m 0
 681 -335 681 -335 707 -361 c 0
 733 -387 733 -387 769 -387 c 0
 807 -387 807 -387 832.5 -362 c 0
 858 -337 858 -337 858 -299 c 0
 858 -261 858 -261 832.5 -236 c 0
 807 -211 807 -211 769 -211 c 0
 731 -211 731 -211 706 -236 c 0
 681 -261 681 -261 681 -299 c 0
1023 -118 m 0
 1023 -157 1023 -157 1049 -181 c 0
 1075 -207 1075 -207 1111 -207 c 0
 1149 -207 1149 -207 1176 -181 c 0
 1203 -155 1203 -155 1203 -118 c 0
 1203 -80 1203 -80 1176 -52.5 c 0
 1149 -25 1149 -25 1111 -25 c 0
 1076 -25 1076 -25 1049.5 -52.5 c 0
 1023 -80 1023 -80 1023 -118 c 0
1023 270 m 0
 1023 232 1023 232 1049 208 c 0
 1075 182 1075 182 1111 182 c 0
 1150 182 1150 182 1176.5 207 c 0
 1203 232 1203 232 1203 270 c 0
 1203 307 1203 307 1176 333.5 c 0
 1149 360 1149 360 1111 360 c 0
 1075 360 1075 360 1049 333.5 c 0
 1023 307 1023 307 1023 270 c 0
1023 -510 m 0
 1023 -545 1023 -545 1049 -571 c 0
 1076 -598 1076 -598 1111 -598 c 0
 1149 -598 1149 -598 1176 -572.5 c 0
 1203 -547 1203 -547 1203 -510 c 0
 1203 -472 1203 -472 1176 -444.5 c 0
 1149 -417 1149 -417 1111 -417 c 0
 1076 -417 1076 -417 1049.5 -444.5 c 0
 1023 -472 1023 -472 1023 -510 c 0
1368 89 m 0
 1368 51 1368 51 1394.5 24.5 c 0
 1421 -2 1421 -2 1458 -2 c 0
 1495 -2 1495 -2 1520.5 24.5 c 0
 1546 51 1546 51 1546 89 c 0
 1546 125 1546 125 1520.5 151 c 0
 1495 177 1495 177 1458 177 c 0
 1421 177 1421 177 1394.5 151 c 0
 1368 125 1368 125 1368 89 c 0
1368 -299 m 0
 1368 -335 1368 -335 1394 -361 c 0
 1420 -387 1420 -387 1458 -387 c 0
 1496 -387 1496 -387 1521 -361.5 c 0
 1546 -336 1546 -336 1546 -299 c 0
 1546 -261 1546 -261 1521 -236 c 0
 1496 -211 1496 -211 1458 -211 c 0
 1420 -211 1420 -211 1394 -236 c 0
 1368 -261 1368 -261 1368 -299 c 0
1441 1395 m 1
 1491 1482 1491 1482 1579.5 1529.5 c 0
 1668 1577 1668 1577 1762 1579 c 0
 1786 1579 1786 1579 1797 1577 c 1
 1797 1544 l 2
 1797 1389 1797 1389 1880.5 1251.5 c 0
 1964 1114 1964 1114 2112 1042 c 1
 2087 984 2087 984 2031 928 c 1
 1889 1054 1889 1054 1687 1054 c 2
 1654 1054 l 1
 1610 1251 1610 1251 1441 1395 c 1
EndSplineSet
EndChar

StartChar: uniF02B
Encoding: 60 61483 60
Width: 2323
Flags: W
LayerCount: 2
Fore
SplineSet
0 529 m 0
 0 316 0 316 148.5 163 c 0
 297 10 297 10 511 -1 c 0
 530 -1 530 -1 530 18 c 2
 530 160 l 2
 530 179 530 179 511 179 c 0
 374 186 374 186 278 288 c 0
 182 390 182 390 182 529 c 0
 182 662 182 662 272 760 c 0
 362 858 362 858 496 874 c 1
 552 878 l 2
 573 878 573 878 573 897 c 2
 581 955 l 1
 598 1128 598 1128 727.5 1244.5 c 0
 857 1361 857 1361 1032 1361 c 0
 1206 1361 1206 1361 1337 1244 c 0
 1468 1127 1468 1127 1486 955 c 2
 1493 894 l 2
 1493 874 1493 874 1512 874 c 2
 1685 874 l 2
 1827 874 1827 874 1930.5 771.5 c 0
 2034 669 2034 669 2034 529 c 0
 2034 390 2034 390 1938 288 c 0
 1842 186 1842 186 1705 179 c 0
 1685 179 1685 179 1685 160 c 2
 1685 18 l 2
 1685 -1 1685 -1 1705 -1 c 0
 1845 4 1845 4 1962.5 76 c 0
 2080 148 2080 148 2147.5 268.5 c 0
 2215 389 2215 389 2215 529 c 0
 2215 668 2215 668 2142 790 c 1
 2267 909 2267 909 2306 1065 c 1
 2321 1143 l 2
 2323 1144 2323 1144 2323 1150 c 0
 2323 1162 2323 1162 2306 1167 c 2
 2245 1185 l 2
 2154 1211 2154 1211 2089 1272.5 c 0
 2024 1334 2024 1334 1996.5 1402 c 0
 1969 1470 1969 1470 1969 1539 c 0
 1969 1585 1969 1585 1981 1630 c 2
 1995 1695 l 2
 1999 1711 1999 1711 1981 1720 c 2
 1896 1746 l 1
 1824 1762 1824 1762 1761 1762 c 0
 1703 1762 1703 1762 1642 1748 c 0
 1581 1734 1581 1734 1515.5 1705 c 0
 1450 1676 1450 1676 1388 1621 c 0
 1326 1566 1326 1566 1281 1493 c 1
 1151 1542 1151 1542 1032 1542 c 0
 806 1542 806 1542 631 1401.5 c 0
 456 1261 456 1261 406 1043 c 1
 229 1001 229 1001 114.5 857.5 c 0
 0 714 0 714 0 529 c 0
633 435 m 0
 633 374 633 374 677.5 331 c 0
 722 288 722 288 786 288 c 0
 850 288 850 288 893 330.5 c 0
 936 373 936 373 936 435 c 0
 936 476 936 476 899 544 c 0
 862 612 862 612 830 649 c 0
 813 668 813 668 786 695 c 1
 749 651 l 2
 706 604 706 604 669.5 540.5 c 0
 633 477 633 477 633 435 c 0
952 10 m 0
 952 -95 952 -95 1025 -167 c 0
 1098 -239 1098 -239 1201 -239 c 0
 1306 -239 1306 -239 1378.5 -166 c 0
 1451 -93 1451 -93 1451 10 c 0
 1451 98 1451 98 1366 223 c 1
 1295 316 1295 316 1229 382 c 0
 1216 391 1216 391 1201 406 c 1
 1176 382 l 2
 1113 324 1113 324 1040 224 c 0
 1002 171 1002 171 977 113 c 0
 952 55 952 55 952 10 c 0
1109 721 m 0
 1109 680 1109 680 1139.5 651 c 0
 1170 622 1170 622 1214 622 c 0
 1255 622 1255 622 1284 651 c 0
 1313 680 1313 680 1313 721 c 0
 1313 789 1313 789 1214 894 c 1
 1187 865 l 2
 1158 833 1158 833 1133.5 790.5 c 0
 1109 748 1109 748 1109 721 c 0
1435 1395 m 1
 1491 1486 1491 1486 1578 1532.5 c 0
 1665 1579 1665 1579 1761 1579 c 0
 1780 1579 1780 1579 1790 1577 c 1
 1790 1545 l 2
 1790 1391 1790 1391 1874 1253 c 0
 1958 1115 1958 1115 2107 1043 c 1
 2082 983 2082 983 2027 933 c 1
 1879 1055 1879 1055 1685 1055 c 2
 1650 1055 l 1
 1601 1265 1601 1265 1435 1395 c 1
EndSplineSet
EndChar

StartChar: uniF02C
Encoding: 61 61484 61
Width: 2328
Flags: W
LayerCount: 2
Fore
SplineSet
0 529 m 0
 0 352 0 352 106 212.5 c 0
 212 73 212 73 381 22 c 1
 312 -159 l 2
 305 -181 305 -181 327 -181 c 2
 553 -181 l 1
 415 -627 l 1
 445 -627 l 1
 896 -27 l 2
 902 -20 902 -20 898 -12.5 c 0
 894 -5 894 -5 883 -5 c 2
 651 -5 l 1
 915 490 l 2
 926 513 926 513 901 513 c 2
 585 513 l 2
 571 513 571 513 561 497 c 2
 447 190 l 1
 333 219 333 219 257.5 314.5 c 0
 182 410 182 410 182 529 c 0
 182 662 182 662 272.5 760 c 0
 363 858 363 858 497 874 c 2
 553 882 l 2
 574 882 574 882 574 901 c 2
 582 955 l 1
 599 1128 599 1128 728.5 1245 c 0
 858 1362 858 1362 1033 1362 c 0
 1207 1362 1207 1362 1338 1244.5 c 0
 1469 1127 1469 1127 1487 955 c 1
 1495 894 l 2
 1495 874 1495 874 1513 874 c 2
 1686 874 l 2
 1831 874 1831 874 1934 772.5 c 0
 2037 671 2037 671 2037 529 c 0
 2037 393 2037 393 1941 293 c 0
 1845 193 1845 193 1706 183 c 0
 1686 183 1686 183 1686 163 c 2
 1686 18 l 2
 1686 -1 1686 -1 1706 -1 c 0
 1919 6 1919 6 2067.5 160.5 c 0
 2216 315 2216 315 2216 529 c 0
 2216 668 2216 668 2146 790 c 1
 2268 908 2268 908 2307 1070 c 1
 2327 1143 l 2
 2328 1144 2328 1144 2328 1150 c 0
 2328 1163 2328 1163 2312 1167 c 2
 2246 1185 l 2
 2154 1212 2154 1212 2090 1274.5 c 0
 2026 1337 2026 1337 1999.5 1404.5 c 0
 1973 1472 1973 1472 1974 1539 c 0
 1974 1583 1974 1583 1985 1630 c 2
 1997 1695 l 2
 2001 1711 2001 1711 1982 1720 c 2
 1897 1746 l 1
 1822 1761 1822 1761 1765 1761 c 0
 1706 1762 1706 1762 1644.5 1748.5 c 0
 1583 1735 1583 1735 1518 1705.5 c 0
 1453 1676 1453 1676 1392.5 1621.5 c 0
 1332 1567 1332 1567 1287 1493 c 1
 1151 1542 1151 1542 1033 1542 c 0
 807 1542 807 1542 632 1401.5 c 0
 457 1261 457 1261 407 1043 c 1
 230 1001 230 1001 115 857.5 c 0
 0 714 0 714 0 529 c 0
872 -523 m 2
 872 -548 872 -548 888.5 -573 c 0
 905 -598 905 -598 937 -608 c 0
 962 -613 962 -613 966 -613 c 0
 981 -613 981 -613 1005 -602 c 0
 1038 -586 1038 -586 1050 -546 c 2
 1080 -434 l 2
 1090 -399 1090 -399 1071.5 -366.5 c 0
 1053 -334 1053 -334 1015 -323 c 0
 980 -313 980 -313 947.5 -332 c 0
 915 -351 915 -351 904 -389 c 2
 875 -496 l 1
 872 -523 l 2
1015 -16 m 0
 1015 -85 1015 -85 1080 -96 c 0
 1102 -101 1102 -101 1109 -101 c 0
 1169 -101 1169 -101 1191 -34 c 2
 1223 75 l 2
 1233 110 1233 110 1214 142.5 c 0
 1195 175 1195 175 1157 186 c 0
 1121 197 1121 197 1088.5 178.5 c 0
 1056 160 1056 160 1045 122 c 2
 1018 14 l 2
 1015 0 1015 0 1015 -16 c 0
1314 -194 m 0
 1316 -221 1316 -221 1333 -245.5 c 0
 1350 -270 1350 -270 1384 -282 c 0
 1410 -288 1410 -288 1419 -288 c 0
 1474 -288 1474 -288 1495 -216 c 2
 1521 -107 l 2
 1532 -70 1532 -70 1514.5 -37 c 0
 1497 -4 1497 -4 1461 7 c 0
 1421 17 1421 17 1388.5 -2 c 0
 1356 -21 1356 -21 1349 -59 c 2
 1318 -169 l 2
 1318 -173 1318 -173 1316 -181.5 c 0
 1314 -190 1314 -190 1314 -194 c 0
1440 1395 m 1
 1493 1484 1493 1484 1583 1532.5 c 0
 1673 1581 1673 1581 1771 1581 c 2
 1794 1581 l 1
 1794 1547 l 2
 1794 1445 1794 1445 1830 1349 c 0
 1866 1253 1866 1253 1938.5 1172 c 0
 2011 1091 2011 1091 2110 1043 c 1
 2083 983 2083 983 2029 933 c 1
 1883 1058 1883 1058 1686 1058 c 2
 1651 1058 l 1
 1606 1259 1606 1259 1440 1395 c 1
1461 318 m 0
 1461 249 1461 249 1530 230 c 0
 1552 226 1552 226 1562 226 c 0
 1620 226 1620 226 1641 295 c 2
 1671 406 l 2
 1672 414 1672 414 1672 429 c 0
 1674 456 1674 456 1657 481.5 c 0
 1640 507 1640 507 1605 517 c 0
 1603 517 1603 517 1594.5 518.5 c 0
 1586 520 1586 520 1581 520 c 0
 1555 520 1555 520 1530 503.5 c 0
 1505 487 1505 487 1495 453 c 2
 1464 344 l 2
 1464 343 1464 343 1462.5 333 c 0
 1461 323 1461 323 1461 318 c 0
EndSplineSet
EndChar

StartChar: uniF02D
Encoding: 62 61485 62
Width: 2330
Flags: W
LayerCount: 2
Fore
SplineSet
0 531 m 0
 0 353 0 353 106 213.5 c 0
 212 74 212 74 381 23 c 1
 311 -157 l 1
 307 -179 307 -179 327 -179 c 2
 553 -179 l 1
 449 -553 l 1
 480 -553 l 1
 897 -26 l 2
 903 -18 903 -18 898.5 -10.5 c 0
 894 -3 894 -3 883 -3 c 2
 651 -3 l 1
 915 491 l 2
 926 514 926 514 901 514 c 2
 585 514 l 2
 571 514 571 514 561 499 c 1
 447 192 l 1
 332 221 332 221 257 316.5 c 0
 182 412 182 412 182 531 c 0
 182 664 182 664 272.5 762.5 c 0
 363 861 363 861 497 877 c 2
 553 885 l 2
 574 885 574 885 574 903 c 2
 582 958 l 1
 599 1131 599 1131 728.5 1248 c 0
 858 1365 858 1365 1033 1365 c 0
 1206 1365 1206 1365 1337.5 1247.5 c 0
 1469 1130 1469 1130 1488 958 c 2
 1495 895 l 2
 1495 877 1495 877 1514 877 c 2
 1687 877 l 2
 1832 877 1832 877 1935 775.5 c 0
 2038 674 2038 674 2038 531 c 0
 2038 395 2038 395 1942 295 c 0
 1846 195 1846 195 1707 184 c 0
 1687 184 1687 184 1687 166 c 2
 1687 19 l 2
 1687 0 1687 0 1707 0 c 0
 1847 5 1847 5 1964.5 77 c 0
 2082 149 2082 149 2149.5 269.5 c 0
 2217 390 2217 390 2217 531 c 0
 2217 670 2217 670 2147 792 c 1
 2274 913 2274 913 2313 1072 c 1
 2328 1149 l 2
 2330 1151 2330 1151 2330 1157 c 0
 2330 1168 2330 1168 2313 1173 c 2
 2253 1192 l 2
 2162 1218 2162 1218 2097 1279.5 c 0
 2032 1341 2032 1341 2004.5 1411 c 0
 1977 1481 1977 1481 1977 1552 c 0
 1977 1594 1977 1594 1986 1637 c 2
 2001 1702 l 2
 2008 1718 2008 1718 1986 1727 c 0
 1952 1741 1952 1741 1889.5 1755 c 0
 1827 1769 1827 1769 1767 1769 c 0
 1709 1769 1709 1769 1648 1755 c 0
 1587 1741 1587 1741 1521.5 1711.5 c 0
 1456 1682 1456 1682 1394 1626.5 c 0
 1332 1571 1332 1571 1287 1496 c 1
 1155 1544 1155 1544 1033 1544 c 0
 807 1544 807 1544 632 1404 c 0
 457 1264 457 1264 407 1046 c 1
 230 1004 230 1004 115 860 c 0
 0 716 0 716 0 531 c 0
864 -517 m 0
 864 -543 864 -543 879.5 -566.5 c 0
 895 -590 895 -590 927 -599 c 0
 944 -602 944 -602 959 -602 c 0
 1024 -602 1024 -602 1040 -535 c 2
 1287 403 l 2
 1297 441 1297 441 1279.5 472.5 c 0
 1262 504 1262 504 1226 514 c 0
 1189 525 1189 525 1156.5 507.5 c 0
 1124 490 1124 490 1114 455 c 2
 867 -488 l 2
 864 -502 864 -502 864 -517 c 0
1309 -195 m 0
 1309 -221 1309 -221 1324.5 -244 c 0
 1340 -267 1340 -267 1374 -277 c 0
 1379 -277 1379 -277 1390.5 -278.5 c 0
 1402 -280 1402 -280 1408 -280 c 0
 1469 -280 1469 -280 1485 -213 c 2
 1645 403 l 2
 1655 442 1655 442 1637 473 c 0
 1619 504 1619 504 1583 514 c 0
 1546 525 1546 525 1514 508 c 0
 1482 491 1482 491 1472 455 c 2
 1312 -166 l 2
 1309 -182 1309 -182 1309 -195 c 0
1441 1398 m 1
 1494 1489 1494 1489 1582.5 1537 c 0
 1671 1585 1671 1585 1770 1585 c 0
 1790 1585 1790 1585 1799 1584 c 1
 1799 1550 l 2
 1799 1396 1799 1396 1882.5 1259 c 0
 1966 1122 1966 1122 2114 1049 c 1
 2085 982 2085 982 2030 935 c 1
 1883 1061 1883 1061 1687 1061 c 2
 1653 1061 l 1
 1608 1260 1608 1260 1441 1398 c 1
EndSplineSet
EndChar

StartChar: uniF02E
Encoding: 63 61486 63
Width: 1512
Flags: W
LayerCount: 2
Fore
SplineSet
0 786 m 0
 0 939 0 939 60 1079 c 0
 120 1219 120 1219 221.5 1320.5 c 0
 323 1422 323 1422 463.5 1482.5 c 0
 604 1543 604 1543 757 1543 c 2
 879 1543 l 1
 904 1536 904 1536 904 1513 c 2
 909 1419 l 1
 915 1216 915 1216 1055 1073 c 0
 1195 930 1195 930 1395 922 c 1
 1483 915 l 2
 1509 915 1509 915 1509 890 c 2
 1509 786 l 2
 1510 581 1510 581 1409.5 406.5 c 0
 1309 232 1309 232 1135.5 130.5 c 0
 962 29 962 29 757 29 c 0
 601 29 601 29 460.5 89 c 0
 320 149 320 149 219.5 250.5 c 0
 119 352 119 352 59.5 492 c 0
 0 632 0 632 0 786 c 0
195 786 m 0
 195 664 195 664 243.5 556 c 0
 292 448 292 448 370.5 375 c 0
 449 302 449 302 550.5 259.5 c 0
 652 217 652 217 757 217 c 0
 850 217 850 217 944.5 253.5 c 0
 1039 290 1039 290 1120 355.5 c 0
 1201 421 1201 421 1259.5 523 c 0
 1318 625 1318 625 1335 746 c 1
 1074 800 1074 800 916.5 969.5 c 0
 759 1139 759 1139 735 1368 c 1
 584 1360 584 1360 458.5 1275 c 0
 333 1190 333 1190 264 1059.5 c 0
 195 929 195 929 195 786 c 0
EndSplineSet
EndChar

StartChar: uniF02F
Encoding: 64 61487 64
Width: 2548
Flags: W
LayerCount: 2
Fore
SplineSet
0 93 m 0
 0 55 0 55 29 29 c 0
 58 0 58 0 94 0 c 2
 721 0 l 2
 763 0 763 0 794.5 -30 c 0
 826 -60 826 -60 826 -103 c 0
 826 -144 826 -144 794 -175.5 c 0
 762 -207 762 -207 721 -207 c 0
 681 -207 681 -207 649 -175 c 0
 619 -147 619 -147 583 -147 c 0
 546 -147 546 -147 520 -174 c 0
 494 -201 494 -201 494 -239 c 0
 494 -277 494 -277 520 -303 c 0
 603 -386 603 -386 721 -386 c 0
 840 -386 840 -386 923 -303.5 c 0
 1006 -221 1006 -221 1006 -103 c 0
 1006 16 1006 16 922.5 100 c 0
 839 184 839 184 721 184 c 2
 94 184 l 2
 56 184 56 184 28 157 c 0
 0 130 0 130 0 93 c 0
0 414 m 0
 0 378 0 378 29 352 c 0
 53 326 53 326 94 326 c 2
 1266 326 l 2
 1384 326 1384 326 1467.5 409 c 0
 1551 492 1551 492 1551 610 c 0
 1551 728 1551 728 1467.5 810.5 c 0
 1384 893 1384 893 1266 893 c 0
 1144 893 1144 893 1064 813 c 0
 1040 786 1040 786 1040 746 c 0
 1040 708 1040 708 1064 683.5 c 0
 1088 659 1088 659 1128 659 c 0
 1168 659 1168 659 1193 683 c 0
 1223 713 1223 713 1266 713 c 0
 1307 713 1307 713 1338 683 c 0
 1369 653 1369 653 1369 610 c 0
 1369 567 1369 567 1338 536 c 0
 1307 505 1307 505 1266 505 c 2
 94 505 l 2
 56 505 56 505 28 478 c 0
 0 451 0 451 0 414 c 0
283 664 m 0
 283 651 283 651 301 651 c 2
 454 651 l 2
 467 651 467 651 477 666 c 0
 513 753 513 753 588.5 810 c 0
 664 867 664 867 758 874 c 1
 814 881 l 2
 834 881 834 881 834 901 c 2
 841 954 l 1
 858 1127 858 1127 988 1243.5 c 0
 1118 1360 1118 1360 1293 1360 c 0
 1468 1360 1468 1360 1597 1244.5 c 0
 1726 1129 1726 1129 1745 954 c 2
 1752 893 l 2
 1752 874 1752 874 1771 874 c 2
 1945 874 l 2
 2089 874 2089 874 2191 773 c 0
 2293 672 2293 672 2293 530 c 0
 2293 387 2293 387 2191 285.5 c 0
 2089 184 2089 184 1945 184 c 2
 1208 184 l 2
 1190 184 1190 184 1190 165 c 2
 1190 19 l 2
 1190 0 1190 0 1208 0 c 2
 1945 0 l 2
 2088 0 2088 0 2209.5 71 c 0
 2331 142 2331 142 2401.5 264 c 0
 2472 386 2472 386 2472 530 c 0
 2472 649 2472 649 2427 746 c 1
 2549 906 2549 906 2549 1101 c 0
 2549 1215 2549 1215 2504.5 1318.5 c 0
 2460 1422 2460 1422 2385 1496.5 c 0
 2310 1571 2310 1571 2206.5 1615 c 0
 2103 1659 2103 1659 1990 1659 c 0
 1743 1659 1743 1659 1576 1474 c 1
 1451 1539 1451 1539 1293 1539 c 0
 1067 1539 1067 1539 893.5 1399.5 c 0
 720 1260 720 1260 673 1042 c 1
 537 1010 537 1010 432 911 c 0
 327 812 327 812 286 678 c 1
 286 674 l 2
 283 666 283 666 283 664 c 0
1726 1371 m 1
 1841 1480 1841 1480 1990 1480 c 0
 2146 1480 2146 1480 2257.5 1368 c 0
 2369 1256 2369 1256 2369 1101 c 0
 2369 1004 2369 1004 2315 904 c 1
 2162 1057 2162 1057 1945 1057 c 2
 1910 1057 l 1
 1873 1228 1873 1228 1726 1371 c 1
EndSplineSet
EndChar

StartChar: uniF030
Encoding: 65 61488 65
Width: 2681
Flags: W
LayerCount: 2
Fore
SplineSet
0 91 m 0
 0 51 0 51 29 27 c 1
 56 -1 56 -1 94 -1 c 2
 1112 -1 l 2
 1149 -1 1149 -1 1174.5 26 c 0
 1200 53 1200 53 1200 91 c 0
 1200 129 1200 129 1174.5 156 c 0
 1149 183 1149 183 1112 183 c 2
 94 183 l 2
 56 183 56 183 28 155.5 c 0
 0 128 0 128 0 91 c 0
281 414 m 0
 281 378 281 378 310 352 c 0
 336 326 336 326 374 326 c 2
 1393 326 l 2
 1431 326 1431 326 1456 351 c 0
 1481 376 1481 376 1481 414 c 0
 1481 452 1481 452 1455.5 478.5 c 0
 1430 505 1430 505 1393 505 c 2
 374 505 l 2
 336 505 336 505 308.5 478 c 0
 281 451 281 451 281 414 c 0
403 663 m 2
 403 651 403 651 424 651 c 2
 576 651 l 2
 590 651 590 651 600 666 c 0
 636 753 636 753 712 810 c 0
 788 867 788 867 881 874 c 1
 939 882 l 2
 958 882 958 882 958 901 c 2
 966 955 l 1
 983 1128 983 1128 1113 1245 c 0
 1243 1362 1243 1362 1419 1362 c 0
 1595 1362 1595 1362 1725 1246 c 0
 1855 1130 1855 1130 1873 955 c 1
 1881 894 l 2
 1881 874 1881 874 1899 874 c 2
 2072 874 l 2
 2218 874 2218 874 2320.5 773 c 0
 2423 672 2423 672 2423 529 c 0
 2423 387 2423 387 2320.5 285 c 0
 2218 183 2218 183 2072 183 c 2
 1335 183 l 2
 1317 183 1317 183 1317 165 c 2
 1317 18 l 2
 1317 -1 1317 -1 1335 -1 c 2
 2072 -1 l 2
 2217 -1 2217 -1 2339.5 70 c 0
 2462 141 2462 141 2533.5 263 c 0
 2605 385 2605 385 2605 529 c 0
 2605 642 2605 642 2558 743 c 1
 2681 904 2681 904 2681 1094 c 0
 2681 1246 2681 1246 2605.5 1375.5 c 0
 2530 1505 2530 1505 2401 1580 c 0
 2272 1655 2272 1655 2119 1655 c 0
 1875 1655 1875 1655 1709 1477 c 1
 1573 1542 1573 1542 1419 1542 c 0
 1270 1542 1270 1542 1138.5 1479 c 0
 1007 1416 1007 1416 917.5 1302 c 0
 828 1188 828 1188 797 1043 c 1
 657 1011 657 1011 552.5 914.5 c 0
 448 818 448 818 407 683 c 1
 403 663 l 2
469 -239 m 0
 469 -276 469 -276 497 -301 c 0
 523 -327 523 -327 561 -327 c 2
 1581 -327 l 2
 1619 -327 1619 -327 1645.5 -302 c 0
 1672 -277 1672 -277 1672 -239 c 0
 1672 -201 1672 -201 1645 -174 c 0
 1618 -147 1618 -147 1581 -147 c 2
 561 -147 l 2
 524 -147 524 -147 496.5 -174.5 c 0
 469 -202 469 -202 469 -239 c 0
1856 1369 m 1
 1964 1473 1964 1473 2119 1473 c 0
 2277 1473 2277 1473 2388 1362.5 c 0
 2499 1252 2499 1252 2499 1094 c 0
 2499 993 2499 993 2447 905 c 1
 2290 1058 2290 1058 2072 1058 c 2
 2038 1058 l 1
 1999 1233 1999 1233 1856 1369 c 1
EndSplineSet
EndChar

StartChar: uniF031
Encoding: 66 61489 66
Width: 2282
Flags: W
LayerCount: 2
Fore
SplineSet
0 529 m 0
 0 386 0 386 70 264.5 c 0
 140 143 140 143 261 72 c 0
 382 1 382 1 525 1 c 2
 1678 1 l 2
 1821 1 1821 1 1942.5 72 c 0
 2064 143 2064 143 2135 264.5 c 0
 2206 386 2206 386 2206 529 c 0
 2206 631 2206 631 2161 742 c 1
 2282 890 2282 890 2282 1094 c 0
 2282 1246 2282 1246 2208 1374.5 c 0
 2134 1503 2134 1503 2005.5 1578 c 0
 1877 1653 1877 1653 1725 1653 c 0
 1486 1653 1486 1653 1312 1467 c 1
 1190 1536 1190 1536 1025 1536 c 0
 800 1536 800 1536 627.5 1397 c 0
 455 1258 455 1258 406 1040 c 1
 227 1000 227 1000 113.5 857 c 0
 0 714 0 714 0 529 c 0
182 529 m 0
 182 662 182 662 271 759 c 0
 360 856 360 856 495 872 c 1
 568 875 l 1
 575 952 l 1
 597 1125 597 1125 725 1241.5 c 0
 853 1358 853 1358 1025 1358 c 0
 1200 1358 1200 1358 1330 1241 c 0
 1460 1124 1460 1124 1477 952 c 1
 1488 872 l 1
 1678 872 l 2
 1819 872 1819 872 1921 770.5 c 0
 2023 669 2023 669 2023 529 c 0
 2023 385 2023 385 1921.5 282 c 0
 1820 179 1820 179 1678 179 c 2
 525 179 l 2
 386 179 386 179 284 283 c 0
 182 387 182 387 182 529 c 0
1465 1365 m 1
 1575 1471 1575 1471 1725 1471 c 0
 1883 1471 1883 1471 1993.5 1361.5 c 0
 2104 1252 2104 1252 2104 1094 c 0
 2104 995 2104 995 2049 898 c 1
 1896 1051 1896 1051 1678 1051 c 2
 1645 1051 l 1
 1601 1229 1601 1229 1465 1365 c 1
EndSplineSet
EndChar

StartChar: uniF032
Encoding: 67 61490 67
Width: 2294
Flags: W
LayerCount: 2
Fore
SplineSet
0 529 m 0
 0 316 0 316 148.5 163 c 0
 297 10 297 10 511 -1 c 0
 530 -1 530 -1 530 18 c 2
 530 160 l 2
 530 179 530 179 511 179 c 0
 374 186 374 186 278 288 c 0
 182 390 182 390 182 529 c 0
 182 662 182 662 272 760 c 0
 362 858 362 858 496 874 c 2
 552 882 l 2
 573 882 573 882 573 901 c 2
 581 955 l 1
 598 1128 598 1128 727.5 1244.5 c 0
 857 1361 857 1361 1032 1361 c 0
 1206 1361 1206 1361 1337 1244 c 0
 1468 1127 1468 1127 1486 955 c 2
 1493 893 l 2
 1493 874 1493 874 1512 874 c 2
 1685 874 l 2
 1830 874 1830 874 1932 773 c 0
 2034 672 2034 672 2034 529 c 0
 2034 390 2034 390 1938 288 c 0
 1842 186 1842 186 1705 179 c 0
 1685 179 1685 179 1685 160 c 2
 1685 18 l 2
 1685 -1 1685 -1 1705 -1 c 0
 1845 4 1845 4 1962.5 76 c 0
 2080 148 2080 148 2147.5 268.5 c 0
 2215 389 2215 389 2215 529 c 0
 2215 647 2215 647 2169 743 c 1
 2295 896 2295 896 2295 1097 c 0
 2295 1248 2295 1248 2219.5 1377 c 0
 2144 1506 2144 1506 2015 1581.5 c 0
 1886 1657 1886 1657 1735 1657 c 0
 1486 1657 1486 1657 1321 1472 c 1
 1190 1542 1190 1542 1032 1542 c 0
 806 1542 806 1542 631 1401.5 c 0
 456 1261 456 1261 406 1043 c 1
 230 1001 230 1001 115 857.5 c 0
 0 714 0 714 0 529 c 0
573 -215 m 0
 587 -250 587 -250 622 -264 c 0
 654 -280 654 -280 688.5 -266.5 c 0
 723 -253 723 -253 736 -219 c 0
 750 -184 750 -184 737 -149.5 c 0
 724 -115 724 -115 690 -99 c 0
 658 -86 658 -86 624.5 -100 c 0
 591 -114 591 -114 575 -146 c 0
 559 -173 559 -173 573 -215 c 0
640 87 m 2
 640 62 640 62 656.5 38 c 0
 673 14 673 14 706 5 c 0
 742 -6 742 -6 775 11 c 0
 808 28 808 28 821 70 c 2
 926 402 l 2
 938 441 938 441 918 473 c 0
 898 505 898 505 859 513 c 0
 824 524 824 524 792.5 506.5 c 0
 761 489 761 489 750 453 c 2
 643 114 l 1
 640 87 l 2
839 -511 m 0
 839 -522 839 -522 845 -542 c 0
 860 -578 860 -578 894 -590 c 0
 907 -598 907 -598 929 -598 c 0
 939 -598 939 -598 961 -592 c 0
 996 -579 996 -579 1011.5 -543.5 c 0
 1027 -508 1027 -508 1011 -473 c 0
 995 -438 995 -438 963 -424 c 0
 931 -410 931 -410 897 -423 c 0
 866 -436 866 -436 852.5 -461.5 c 0
 839 -487 839 -487 839 -511 c 0
918 -226 m 0
 918 -254 918 -254 934 -277 c 0
 950 -300 950 -300 985 -307 c 0
 988 -307 988 -307 997 -309 c 0
 1006 -311 1006 -311 1011 -311 c 0
 1080 -306 1080 -306 1097 -245 c 2
 1285 402 l 2
 1296 441 1296 441 1278.5 471.5 c 0
 1261 502 1261 502 1225 513 c 0
 1188 524 1188 524 1156 506.5 c 0
 1124 489 1124 489 1113 453 c 2
 921 -194 l 2
 921 -198 921 -198 920 -204.5 c 0
 919 -211 919 -211 918.5 -216.5 c 0
 918 -222 918 -222 918 -226 c 0
1285 -183 m 0
 1285 -199 1285 -199 1290 -217 c 0
 1303 -251 1303 -251 1339 -264 c 0
 1354 -271 1354 -271 1377 -271 c 0
 1396 -271 1396 -271 1408 -265 c 0
 1444 -251 1444 -251 1457 -219 c 0
 1470 -184 1470 -184 1457.5 -150 c 0
 1445 -116 1445 -116 1413 -99 c 1
 1378 -86 1378 -86 1343.5 -100 c 0
 1309 -114 1309 -114 1293 -146 c 0
 1285 -163 1285 -163 1285 -183 c 0
1361 88 m 0
 1361 31 1361 31 1427 8 c 0
 1449 2 1449 2 1459 2 c 0
 1478 2 1478 2 1495 11 c 0
 1523 25 1523 25 1538 70 c 2
 1643 402 l 2
 1655 439 1655 439 1636.5 470.5 c 0
 1618 502 1618 502 1582 513 c 0
 1545 524 1545 524 1514 506.5 c 0
 1483 489 1483 489 1471 453 c 2
 1366 119 l 2
 1361 91 1361 91 1361 88 c 0
1471 1369 m 1
 1581 1475 1581 1475 1735 1475 c 0
 1891 1475 1891 1475 2001.5 1364 c 0
 2112 1253 2112 1253 2112 1097 c 0
 2112 998 2112 998 2057 901 c 1
 1900 1058 1900 1058 1685 1058 c 2
 1650 1058 l 1
 1601 1243 1601 1243 1471 1369 c 1
EndSplineSet
EndChar

StartChar: uniF033
Encoding: 68 61491 68
Width: 2285
Flags: W
LayerCount: 2
Fore
SplineSet
0 525 m 0
 0 420 0 420 40 324.5 c 0
 80 229 80 229 148.5 159.5 c 0
 217 90 217 90 311 47 c 0
 405 4 405 4 510 -1 c 0
 529 -1 529 -1 529 17 c 2
 529 160 l 2
 529 178 529 178 510 178 c 0
 371 188 371 188 276 288 c 0
 181 388 181 388 181 525 c 0
 181 659 181 659 271.5 758 c 0
 362 857 362 857 495 869 c 2
 551 875 l 2
 571 875 571 875 571 894 c 2
 579 949 l 1
 590 1063 590 1063 653 1156 c 0
 716 1249 716 1249 815 1301.5 c 0
 914 1354 914 1354 1030 1354 c 0
 1204 1354 1204 1354 1333.5 1239 c 0
 1463 1124 1463 1124 1482 952 c 2
 1489 890 l 2
 1489 872 1489 872 1509 872 c 2
 1680 872 l 2
 1824 872 1824 872 1927 769.5 c 0
 2030 667 2030 667 2030 525 c 0
 2030 388 2030 388 1935 288 c 0
 1840 188 1840 188 1701 178 c 0
 1680 178 1680 178 1680 160 c 2
 1680 17 l 2
 1680 -1 1680 -1 1701 -1 c 0
 1915 9 1915 9 2062 160.5 c 0
 2209 312 2209 312 2209 525 c 0
 2209 627 2209 627 2159 745 c 1
 2286 904 2286 904 2286 1094 c 0
 2286 1246 2286 1246 2210.5 1375 c 0
 2135 1504 2135 1504 2006.5 1579 c 0
 1878 1654 1878 1654 1727 1654 c 0
 1473 1654 1473 1654 1314 1469 c 1
 1184 1537 1184 1537 1030 1537 c 0
 805 1537 805 1537 630 1396.5 c 0
 455 1256 455 1256 406 1037 c 1
 227 996 227 996 113.5 853 c 0
 0 710 0 710 0 525 c 0
816 32 m 1
 812 10 812 10 831 10 c 2
 1062 10 l 1
 921 -435 l 1
 952 -435 l 1
 1398 160 l 2
 1404 167 1404 167 1400.5 174.5 c 0
 1397 182 1397 182 1386 182 c 2
 1153 182 l 1
 1398 634 l 2
 1410 657 1410 657 1383 657 c 2
 1069 657 l 2
 1057 657 1057 657 1047 642 c 1
 816 32 l 1
1463 1366 m 1
 1570 1472 1570 1472 1727 1472 c 0
 1884 1472 1884 1472 1993.5 1362 c 0
 2103 1252 2103 1252 2103 1094 c 0
 2103 999 2103 999 2048 902 c 1
 1893 1051 1893 1051 1680 1051 c 2
 1647 1051 l 1
 1600 1241 1600 1241 1463 1366 c 1
EndSplineSet
EndChar

StartChar: uniF034
Encoding: 69 61492 69
Width: 2307
Flags: W
LayerCount: 2
Fore
SplineSet
0 527 m 0
 0 388 0 388 68 268 c 0
 136 148 136 148 254 75.5 c 0
 372 3 372 3 513 -1 c 0
 533 -1 533 -1 533 17 c 2
 533 160 l 2
 533 179 533 179 513 179 c 0
 376 186 376 186 279 288.5 c 0
 182 391 182 391 182 527 c 0
 182 663 182 663 273 762.5 c 0
 364 862 364 862 498 873 c 1
 554 881 l 2
 575 881 575 881 575 899 c 2
 583 954 l 1
 600 1130 600 1130 730.5 1248.5 c 0
 861 1367 861 1367 1037 1367 c 0
 1211 1367 1211 1367 1342 1249.5 c 0
 1473 1132 1473 1132 1491 958 c 1
 1499 896 l 2
 1499 878 1499 878 1518 878 c 2
 1691 878 l 2
 1835 878 1835 878 1938.5 774.5 c 0
 2042 671 2042 671 2042 527 c 0
 2042 391 2042 391 1945 288.5 c 0
 1848 186 1848 186 1712 179 c 0
 1691 179 1691 179 1691 160 c 2
 1691 17 l 2
 1691 -1 1691 -1 1712 -1 c 0
 1853 3 1853 3 1970.5 75.5 c 0
 2088 148 2088 148 2155.5 268 c 0
 2223 388 2223 388 2223 527 c 0
 2223 643 2223 643 2178 742 c 1
 2307 901 2307 901 2307 1101 c 0
 2307 1254 2307 1254 2231.5 1383.5 c 0
 2156 1513 2156 1513 2026.5 1588.5 c 0
 1897 1664 1897 1664 1745 1664 c 0
 1626 1664 1626 1664 1516 1614.5 c 0
 1406 1565 1406 1565 1326 1478 c 1
 1185 1547 1185 1547 1037 1547 c 0
 810 1547 810 1547 634 1406.5 c 0
 458 1266 458 1266 408 1047 c 1
 228 1001 228 1001 114 857 c 0
 0 713 0 713 0 527 c 0
569 -227 m 0
 569 -254 569 -254 586.5 -281 c 0
 604 -308 604 -308 637 -318 c 0
 674 -329 674 -329 705 -314 c 0
 736 -299 736 -299 747 -254 c 2
 762 -189 l 2
 770 -153 770 -153 752 -121.5 c 0
 734 -90 734 -90 697 -79 c 0
 661 -68 661 -68 628.5 -87 c 0
 596 -106 596 -106 586 -144 c 2
 571 -207 l 2
 569 -213 569 -213 569 -227 c 0
650 82 m 0
 650 48 650 48 677 21 c 0
 702 -6 702 -6 737 -6 c 0
 775 -6 775 -6 801 19.5 c 0
 827 45 827 45 827 82 c 0
 827 119 827 119 801 144.5 c 0
 775 170 775 170 737 170 c 0
 700 170 700 170 675 145 c 0
 650 120 650 120 650 82 c 0
715 325 m 0
 713 300 713 300 729.5 276.5 c 0
 746 253 746 253 781 242 c 0
 814 232 814 232 847 249.5 c 0
 880 267 880 267 891 304 c 2
 921 400 l 2
 933 439 933 439 914 469.5 c 0
 895 500 895 500 856 511 c 0
 821 522 821 522 788.5 504 c 0
 756 486 756 486 745 451 c 2
 719 353 l 2
 719 350 719 350 717 340.5 c 0
 715 331 715 331 715 325 c 0
839 -560 m 0
 839 -588 839 -588 855.5 -613 c 0
 872 -638 872 -638 907 -648 c 0
 920 -651 920 -651 934 -651 c 0
 1002 -651 1002 -651 1018 -586 c 2
 1033 -523 l 2
 1043 -482 1043 -482 1024 -450 c 0
 1005 -418 1005 -418 968 -411 c 1
 934 -400 934 -400 901 -418.5 c 0
 868 -437 868 -437 857 -473 c 2
 842 -536 l 2
 839 -550 839 -550 839 -560 c 0
922 -250 m 0
 922 -285 922 -285 949 -312 c 0
 975 -338 975 -338 1010 -338 c 0
 1048 -338 1048 -338 1073 -313 c 0
 1098 -288 1098 -288 1098 -250 c 0
 1098 -213 1098 -213 1073 -188 c 0
 1048 -163 1048 -163 1010 -163 c 0
 972 -163 972 -163 947 -188 c 0
 922 -213 922 -213 922 -250 c 0
989 -8 m 0
 987 -32 987 -32 1003 -58 c 0
 1019 -84 1019 -84 1051 -90 c 0
 1088 -100 1088 -100 1119 -84 c 0
 1150 -68 1150 -68 1163 -24 c 2
 1192 72 l 2
 1203 107 1203 107 1184.5 139 c 0
 1166 171 1166 171 1128 182 c 0
 1093 193 1093 193 1060 173.5 c 0
 1027 154 1027 154 1016 117 c 2
 992 21 l 2
 989 8 989 8 989 -8 c 0
1283 -237 m 0
 1283 -263 1283 -263 1299.5 -288 c 0
 1316 -313 1316 -313 1349 -323 c 0
 1354 -323 1354 -323 1363.5 -325 c 0
 1373 -327 1373 -327 1378 -327 c 0
 1443 -327 1443 -327 1459 -257 c 2
 1474 -193 l 2
 1485 -159 1485 -159 1467 -126 c 0
 1449 -93 1449 -93 1413 -82 c 0
 1373 -72 1373 -72 1340.5 -90.5 c 0
 1308 -109 1308 -109 1297 -147 c 1
 1287 -210 l 2
 1287 -214 1287 -214 1285 -223 c 0
 1283 -232 1283 -232 1283 -237 c 0
1362 78 m 0
 1362 42 1362 42 1389 17 c 0
 1413 -9 1413 -9 1450 -9 c 0
 1488 -9 1488 -9 1513 16 c 0
 1538 41 1538 41 1538 78 c 0
 1538 116 1538 116 1513 141 c 0
 1488 166 1488 166 1450 166 c 0
 1412 166 1412 166 1387 141 c 0
 1362 116 1362 116 1362 78 c 0
1427 325 m 0
 1427 298 1427 298 1444.5 273.5 c 0
 1462 249 1462 249 1497 239 c 0
 1500 239 1500 239 1510 237 c 0
 1520 235 1520 235 1525 235 c 0
 1541 235 1541 235 1563 245 c 0
 1597 263 1597 263 1607 301 c 2
 1633 397 l 2
 1643 433 1643 433 1625 464.5 c 0
 1607 496 1607 496 1571 507 c 0
 1534 518 1534 518 1503 501 c 0
 1472 484 1472 484 1461 447 c 2
 1431 350 l 2
 1431 346 1431 346 1429 337.5 c 0
 1427 329 1427 329 1427 325 c 0
1477 1370 m 1
 1588 1481 1588 1481 1745 1481 c 0
 1902 1481 1902 1481 2012.5 1369.5 c 0
 2123 1258 2123 1258 2123 1101 c 0
 2123 994 2123 994 2069 904 c 1
 1915 1058 1915 1058 1691 1058 c 2
 1657 1058 l 1
 1612 1245 1612 1245 1477 1370 c 1
EndSplineSet
EndChar

StartChar: uniF035
Encoding: 70 61493 70
Width: 2323
Flags: W
LayerCount: 2
Fore
SplineSet
0 515 m 0
 0 334 0 334 106.5 194 c 0
 213 54 213 54 386 2 c 0
 402 0 402 0 413 10 c 2
 534 166 l 1
 391 166 391 166 287.5 268.5 c 0
 184 371 184 371 184 515 c 0
 184 653 184 653 275.5 754 c 0
 367 855 367 855 504 866 c 1
 560 874 l 2
 577 874 577 874 577 889 c 2
 585 949 l 1
 604 1125 604 1125 735.5 1243 c 0
 867 1361 867 1361 1043 1361 c 0
 1221 1361 1221 1361 1353.5 1244 c 0
 1486 1127 1486 1127 1503 952 c 1
 1511 889 l 2
 1515 871 1515 871 1533 871 c 2
 1707 871 l 2
 1851 871 1851 871 1955 766 c 0
 2059 661 2059 661 2059 515 c 0
 2059 380 2059 380 1968 279.5 c 0
 1877 179 1877 179 1744 166 c 1
 1668 166 1668 166 1647 136 c 1
 1414 -120 l 2
 1389 -149 1389 -149 1393.5 -186.5 c 0
 1398 -224 1398 -224 1427 -254 c 1
 1448 -282 1448 -282 1489.5 -278.5 c 0
 1531 -275 1531 -275 1554 -238 c 1
 1763 -16 l 1
 1895 -3 1895 -3 2006 71.5 c 0
 2117 146 2117 146 2181.5 263.5 c 0
 2246 381 2246 381 2246 515 c 0
 2246 616 2246 616 2200 737 c 1
 2323 893 2323 893 2323 1091 c 0
 2323 1247 2323 1247 2247 1377.5 c 0
 2171 1508 2171 1508 2040 1583.5 c 0
 1909 1659 1909 1659 1755 1659 c 0
 1504 1659 1504 1659 1339 1477 c 1
 1200 1546 1200 1546 1043 1546 c 0
 814 1546 814 1546 638.5 1404 c 0
 463 1262 463 1262 413 1038 c 1
 230 997 230 997 115 851.5 c 0
 0 706 0 706 0 515 c 0
405 -285 m 0
 405 -308 405 -308 410 -319 c 0
 423 -353 423 -353 457 -366 c 0
 493 -382 493 -382 529.5 -368.5 c 0
 566 -355 566 -355 578 -320 c 0
 594 -285 594 -285 580 -248.5 c 0
 566 -212 566 -212 531 -199 c 0
 495 -186 495 -186 461 -199.5 c 0
 427 -213 427 -213 411 -247 c 0
 405 -260 405 -260 405 -285 c 0
601 -24 m 0
 601 -61 601 -61 635 -95 c 0
 703 -153 703 -153 769 -79 c 2
 1003 181 l 2
 1027 209 1027 209 1022.5 246.5 c 0
 1018 284 1018 284 989 307 c 0
 960 329 960 329 922 324 c 0
 884 319 884 319 859 293 c 2
 624 39 l 1
 601 5 601 5 601 -24 c 0
670 -550 m 0
 670 -569 670 -569 678 -584 c 0
 692 -620 692 -620 722 -633 c 0
 741 -641 741 -641 761 -641 c 0
 773 -641 773 -641 795 -635 c 0
 829 -620 829 -620 842 -587 c 0
 858 -555 858 -555 844.5 -519 c 0
 831 -483 831 -483 797 -470 c 0
 761 -453 761 -453 727 -467 c 0
 693 -481 693 -481 675 -518 c 0
 670 -533 670 -533 670 -550 c 0
848 -295 m 2
 848 -309 l 2
 851 -348 851 -348 882 -373 c 1
 905 -402 905 -402 945.5 -398.5 c 0
 986 -395 986 -395 1009 -358 c 1
 1459 166 l 2
 1484 195 1484 195 1480 234 c 0
 1476 273 1476 273 1443 295 c 0
 1415 318 1415 318 1378.5 315 c 0
 1342 312 1342 312 1317 283 c 2
 867 -242 l 2
 848 -262 848 -262 848 -295 c 2
1235 -384 m 1
 1224 -420 1224 -420 1235 -450 c 0
 1249 -485 1249 -485 1283 -502 c 0
 1300 -510 1300 -510 1321 -510 c 0
 1331 -510 1331 -510 1353 -504 c 0
 1389 -490 1389 -490 1402 -455 c 0
 1418 -419 1418 -419 1405 -385 c 0
 1392 -351 1392 -351 1358 -338 c 0
 1322 -321 1322 -321 1287.5 -334.5 c 0
 1253 -348 1253 -348 1235 -384 c 1
1491 1368 m 1
 1600 1477 1600 1477 1755 1477 c 0
 1916 1477 1916 1477 2028.5 1364.5 c 0
 2141 1252 2141 1252 2141 1091 c 0
 2141 991 2141 991 2086 897 c 1
 1930 1053 1930 1053 1707 1053 c 2
 1673 1053 l 1
 1633 1235 1633 1235 1491 1368 c 1
EndSplineSet
EndChar

StartChar: uniF036
Encoding: 71 61494 71
Width: 2291
Flags: W
LayerCount: 2
Fore
SplineSet
0 525 m 0
 0 420 0 420 40 324.5 c 0
 80 229 80 229 148.5 159.5 c 0
 217 90 217 90 311.5 47 c 0
 406 4 406 4 511 -1 c 0
 529 -1 529 -1 529 17 c 2
 529 160 l 2
 529 178 529 178 511 178 c 0
 372 188 372 188 277 288 c 0
 182 388 182 388 182 525 c 0
 182 659 182 659 272.5 758.5 c 0
 363 858 363 858 496 869 c 2
 552 875 l 2
 573 875 573 875 573 895 c 2
 579 949 l 2
 596 1123 596 1123 725.5 1238.5 c 0
 855 1354 855 1354 1031 1354 c 0
 1206 1354 1206 1354 1335.5 1239.5 c 0
 1465 1125 1465 1125 1483 953 c 2
 1490 891 l 2
 1490 872 1490 872 1510 872 c 2
 1681 872 l 2
 1825 872 1825 872 1928 769.5 c 0
 2031 667 2031 667 2031 525 c 0
 2031 388 2031 388 1936 288 c 0
 1841 188 1841 188 1702 178 c 0
 1681 178 1681 178 1681 160 c 2
 1681 17 l 2
 1681 -1 1681 -1 1702 -1 c 0
 1916 9 1916 9 2063.5 160.5 c 0
 2211 312 2211 312 2211 525 c 0
 2211 640 2211 640 2166 737 c 1
 2291 888 2291 888 2291 1095 c 0
 2291 1245 2291 1245 2216 1374 c 0
 2141 1503 2141 1503 2012 1578.5 c 0
 1883 1654 1883 1654 1733 1654 c 0
 1484 1654 1484 1654 1319 1469 c 1
 1178 1538 1178 1538 1031 1538 c 0
 805 1538 805 1538 630.5 1397.5 c 0
 456 1257 456 1257 406 1037 c 1
 230 996 230 996 115 852.5 c 0
 0 709 0 709 0 525 c 0
585 -187 m 0
 585 -251 585 -251 654 -270 c 0
 687 -281 687 -281 721 -263.5 c 0
 755 -246 755 -246 765 -210 c 2
 925 401 l 2
 935 436 935 436 915.5 468 c 0
 896 500 896 500 858 511 c 0
 823 522 823 522 791 503.5 c 0
 759 485 759 485 749 448 c 2
 589 -160 l 2
 585 -178 585 -178 585 -187 c 0
862 -513 m 0
 862 -532 862 -532 871 -552 c 0
 887 -585 887 -585 925 -598 c 0
 929 -598 929 -598 935.5 -599 c 0
 942 -600 942 -600 947.5 -600.5 c 0
 953 -601 953 -601 957 -601 c 0
 1026 -601 1026 -601 1038 -531 c 1
 1283 401 l 2
 1294 436 1294 436 1276.5 468 c 0
 1259 500 1259 500 1223 511 c 0
 1184 522 1184 522 1151 503.5 c 0
 1118 485 1118 485 1111 448 c 2
 865 -485 l 2
 862 -500 862 -500 862 -513 c 0
1305 -186 m 0
 1305 -211 1305 -211 1322 -236 c 0
 1339 -261 1339 -261 1370 -270 c 0
 1380 -273 1380 -273 1394 -273 c 0
 1421 -273 1421 -273 1446 -258.5 c 0
 1471 -244 1471 -244 1480 -210 c 2
 1640 401 l 2
 1652 434 1652 434 1633 467 c 0
 1614 500 1614 500 1578 511 c 0
 1539 522 1539 522 1507.5 503.5 c 0
 1476 485 1476 485 1469 448 c 2
 1309 -160 l 2
 1305 -178 1305 -178 1305 -186 c 0
1469 1362 m 1
 1576 1469 1576 1469 1733 1469 c 0
 1889 1469 1889 1469 1999 1360 c 0
 2109 1251 2109 1251 2109 1095 c 0
 2109 995 2109 995 2054 898 c 1
 1901 1051 1901 1051 1681 1051 c 2
 1648 1051 l 1
 1603 1238 1603 1238 1469 1362 c 1
EndSplineSet
EndChar

StartChar: uniF037
Encoding: 72 61495 72
Width: 2293
Flags: W
LayerCount: 2
Fore
SplineSet
0 526 m 0
 0 421 0 421 40 325.5 c 0
 80 230 80 230 148.5 160 c 0
 217 90 217 90 312 47 c 0
 407 4 407 4 512 -1 c 0
 531 -1 531 -1 531 17 c 2
 531 160 l 2
 531 178 531 178 512 178 c 0
 376 185 376 185 279.5 287.5 c 0
 183 390 183 390 183 526 c 0
 183 662 183 662 273 761 c 0
 363 860 363 860 497 871 c 1
 554 878 l 2
 570 878 570 878 570 894 c 2
 578 951 l 1
 596 1126 596 1126 727 1242.5 c 0
 858 1359 858 1359 1034 1359 c 0
 1208 1359 1208 1359 1338.5 1243.5 c 0
 1469 1128 1469 1128 1488 955 c 2
 1495 894 l 2
 1495 874 1495 874 1514 874 c 2
 1687 874 l 2
 1829 874 1829 874 1931 772 c 0
 2033 670 2033 670 2033 526 c 0
 2033 390 2033 390 1938 287.5 c 0
 1843 185 1843 185 1707 178 c 0
 1687 178 1687 178 1687 160 c 2
 1687 17 l 2
 1687 -1 1687 -1 1707 -1 c 0
 1921 9 1921 9 2069 161 c 0
 2217 313 2217 313 2217 526 c 0
 2217 629 2217 629 2173 739 c 1
 2294 898 2294 898 2294 1090 c 0
 2294 1241 2294 1241 2218.5 1370.5 c 0
 2143 1500 2143 1500 2014 1575.5 c 0
 1885 1651 1885 1651 1734 1651 c 0
 1489 1651 1489 1651 1322 1473 c 1
 1183 1542 1183 1542 1034 1542 c 0
 807 1542 807 1542 632 1401 c 0
 457 1260 457 1260 408 1040 c 1
 227 998 227 998 113.5 856.5 c 0
 0 715 0 715 0 526 c 0
575 -194 m 0
 575 -221 575 -221 590.5 -245.5 c 0
 606 -270 606 -270 642 -282 c 0
 660 -291 660 -291 681.5 -289.5 c 0
 703 -288 703 -288 724.5 -268.5 c 0
 746 -249 746 -249 754 -217 c 2
 784 -109 l 2
 794 -69 794 -69 775.5 -37 c 0
 757 -5 757 -5 719 2 c 1
 685 13 685 13 652 -5.5 c 0
 619 -24 619 -24 608 -59 c 2
 578 -170 l 2
 575 -184 575 -184 575 -194 c 0
715 315 m 0
 716 284 716 284 733 259.5 c 0
 750 235 750 235 784 230 c 0
 812 225 812 225 816 225 c 0
 876 225 876 225 897 295 c 2
 927 402 l 2
 937 439 937 439 918.5 472.5 c 0
 900 506 900 506 862 517 c 0
 826 527 826 527 794 508.5 c 0
 762 490 762 490 751 453 c 2
 719 341 l 2
 715 321 715 321 715 315 c 0
847 -528 m 0
 847 -556 847 -556 863.5 -581 c 0
 880 -606 880 -606 915 -616 c 0
 937 -621 937 -621 945 -621 c 0
 959 -621 959 -621 985 -610 c 0
 1012 -597 1012 -597 1026 -551 c 2
 1058 -443 l 2
 1068 -403 1068 -403 1049 -370.5 c 0
 1030 -338 1030 -338 993 -331 c 1
 958 -320 958 -320 924.5 -338.5 c 0
 891 -357 891 -357 880 -393 c 2
 850 -504 l 2
 847 -518 847 -518 847 -528 c 0
989 -16 m 0
 989 -43 989 -43 1006 -68.5 c 0
 1023 -94 1023 -94 1058 -104 c 0
 1094 -115 1094 -115 1125.5 -99 c 0
 1157 -83 1157 -83 1169 -39 c 2
 1199 69 l 2
 1210 109 1210 109 1191.5 140 c 0
 1173 171 1173 171 1135 178 c 1
 1100 190 1100 190 1067 171.5 c 0
 1034 153 1034 153 1023 117 c 2
 993 6 l 2
 989 -8 989 -8 989 -16 c 0
1293 -202 m 0
 1291 -227 1291 -227 1307.5 -251.5 c 0
 1324 -276 1324 -276 1357 -287 c 1
 1384 -290 l 2
 1402 -291 1402 -291 1424 -282 c 0
 1458 -269 1458 -269 1469 -224 c 2
 1499 -112 l 2
 1510 -75 1510 -75 1491.5 -43.5 c 0
 1473 -12 1473 -12 1437 -1 c 0
 1397 9 1397 9 1365.5 -10 c 0
 1334 -29 1334 -29 1327 -67 c 2
 1296 -174 l 1
 1293 -201 1293 -201 1293 -202 c 0
1437 310 m 0
 1437 282 1437 282 1454.5 257 c 0
 1472 232 1472 232 1506 225 c 2
 1533 222 l 1
 1602 222 1602 222 1619 288 c 2
 1649 398 l 2
 1659 438 1659 438 1640 470 c 0
 1621 502 1621 502 1583 509 c 1
 1546 520 1546 520 1514.5 501.5 c 0
 1483 483 1483 483 1473 445 c 2
 1441 336 l 2
 1437 318 1437 318 1437 310 c 0
1473 1366 m 1
 1580 1469 1580 1469 1734 1469 c 0
 1890 1469 1890 1469 2000 1357.5 c 0
 2110 1246 2110 1246 2110 1090 c 0
 2110 988 2110 988 2059 901 c 1
 1905 1055 1905 1055 1687 1055 c 2
 1653 1055 l 1
 1614 1230 1614 1230 1473 1366 c 1
EndSplineSet
EndChar

StartChar: uniF038
Encoding: 73 61496 73
Width: 2297
Flags: W
LayerCount: 2
Fore
SplineSet
0 529 m 0
 0 316 0 316 149 162.5 c 0
 298 9 298 9 512 -1 c 0
 531 -1 531 -1 531 17 c 2
 531 160 l 2
 531 178 531 178 512 178 c 0
 375 186 375 186 278.5 288 c 0
 182 390 182 390 182 529 c 0
 182 662 182 662 272.5 760 c 0
 363 858 363 858 497 874 c 1
 553 878 l 2
 574 878 574 878 574 897 c 2
 582 955 l 1
 599 1128 599 1128 728.5 1245 c 0
 858 1362 858 1362 1033 1362 c 0
 1207 1362 1207 1362 1338 1245 c 0
 1469 1128 1469 1128 1487 955 c 1
 1495 894 l 2
 1495 874 1495 874 1513 874 c 2
 1686 874 l 2
 1831 874 1831 874 1934 772.5 c 0
 2037 671 2037 671 2037 529 c 0
 2037 391 2037 391 1940 288.5 c 0
 1843 186 1843 186 1706 178 c 0
 1686 178 1686 178 1686 160 c 2
 1686 17 l 2
 1686 -1 1686 -1 1706 -1 c 0
 1920 6 1920 6 2068.5 160.5 c 0
 2217 315 2217 315 2217 529 c 0
 2217 643 2217 643 2171 743 c 1
 2297 897 2297 897 2297 1097 c 0
 2297 1249 2297 1249 2221.5 1378.5 c 0
 2146 1508 2146 1508 2017 1583 c 0
 1888 1658 1888 1658 1737 1658 c 0
 1489 1658 1489 1658 1322 1473 c 1
 1193 1542 1193 1542 1033 1542 c 0
 807 1542 807 1542 632 1401.5 c 0
 457 1261 457 1261 407 1043 c 1
 230 1001 230 1001 115 857.5 c 0
 0 714 0 714 0 529 c 0
681 90 m 0
 681 55 681 55 707 29 c 0
 734 2 734 2 769 2 c 0
 806 2 806 2 831.5 27 c 0
 857 52 857 52 857 90 c 0
 857 128 857 128 832 153 c 0
 807 178 807 178 769 178 c 0
 731 178 731 178 706 153 c 0
 681 128 681 128 681 90 c 0
681 -297 m 0
 681 -335 681 -335 707 -359 c 0
 733 -385 733 -385 769 -385 c 0
 807 -385 807 -385 832 -360 c 0
 857 -335 857 -335 857 -297 c 0
 857 -259 857 -259 831.5 -232.5 c 0
 806 -206 806 -206 769 -206 c 0
 732 -206 732 -206 706.5 -232.5 c 0
 681 -259 681 -259 681 -297 c 0
1022 -112 m 0
 1022 -149 1022 -149 1049 -177.5 c 0
 1076 -206 1076 -206 1111 -206 c 0
 1148 -206 1148 -206 1175 -178 c 0
 1202 -150 1202 -150 1202 -112 c 0
 1202 -77 1202 -77 1175 -50.5 c 0
 1148 -24 1148 -24 1111 -24 c 0
 1076 -24 1076 -24 1049 -50.5 c 0
 1022 -77 1022 -77 1022 -112 c 0
1022 271 m 0
 1022 235 1022 235 1048 209 c 0
 1074 183 1074 183 1111 183 c 0
 1149 183 1149 183 1175.5 208.5 c 0
 1202 234 1202 234 1202 271 c 0
 1202 308 1202 308 1175.5 334.5 c 0
 1149 361 1149 361 1111 361 c 0
 1075 361 1075 361 1048.5 334.5 c 0
 1022 308 1022 308 1022 271 c 0
1022 -504 m 0
 1022 -541 1022 -541 1048.5 -568 c 0
 1075 -595 1075 -595 1111 -595 c 0
 1148 -595 1148 -595 1175 -568.5 c 0
 1202 -542 1202 -542 1202 -504 c 0
 1202 -469 1202 -469 1175 -442.5 c 0
 1148 -416 1148 -416 1111 -416 c 0
 1076 -416 1076 -416 1049 -442.5 c 0
 1022 -469 1022 -469 1022 -504 c 0
1367 90 m 0
 1367 57 1367 57 1393 29 c 0
 1420 2 1420 2 1457 2 c 0
 1494 2 1494 2 1519.5 27 c 0
 1545 52 1545 52 1545 90 c 0
 1545 128 1545 128 1520 153 c 0
 1495 178 1495 178 1457 178 c 0
 1419 178 1419 178 1393 153 c 0
 1367 128 1367 128 1367 90 c 0
1367 -297 m 0
 1367 -333 1367 -333 1393 -359 c 0
 1419 -385 1419 -385 1457 -385 c 0
 1495 -385 1495 -385 1520 -360 c 0
 1545 -335 1545 -335 1545 -297 c 0
 1545 -259 1545 -259 1519.5 -232.5 c 0
 1494 -206 1494 -206 1457 -206 c 0
 1420 -206 1420 -206 1393.5 -232.5 c 0
 1367 -259 1367 -259 1367 -297 c 0
1472 1369 m 1
 1580 1477 1580 1477 1737 1477 c 0
 1894 1477 1894 1477 2003.5 1366 c 0
 2113 1255 2113 1255 2113 1097 c 0
 2113 1003 2113 1003 2059 901 c 1
 1905 1055 1905 1055 1686 1055 c 2
 1653 1055 l 1
 1606 1241 1606 1241 1472 1369 c 1
EndSplineSet
EndChar

StartChar: uniF039
Encoding: 74 61497 74
Width: 2296
Flags: W
LayerCount: 2
Fore
SplineSet
-2 529 m 0
 -2 316 -2 316 146.5 162.5 c 0
 295 9 295 9 510 -1 c 0
 528 -1 528 -1 528 17 c 2
 528 163 l 2
 528 183 528 183 510 183 c 0
 370 193 370 193 274.5 293 c 0
 179 393 179 393 179 529 c 0
 179 664 179 664 270 763.5 c 0
 361 863 361 863 495 874 c 1
 551 881 l 2
 571 881 571 881 571 901 c 2
 578 954 l 1
 595 1127 595 1127 725 1244 c 0
 855 1361 855 1361 1031 1361 c 0
 1206 1361 1206 1361 1336 1244.5 c 0
 1466 1128 1466 1128 1485 954 c 2
 1491 893 l 2
 1491 874 1491 874 1511 874 c 2
 1682 874 l 2
 1827 874 1827 874 1930 772.5 c 0
 2033 671 2033 671 2033 529 c 0
 2033 393 2033 393 1938 293 c 0
 1843 193 1843 193 1704 183 c 0
 1682 183 1682 183 1682 163 c 2
 1682 17 l 2
 1682 -1 1682 -1 1704 -1 c 0
 1917 6 1917 6 2065.5 160.5 c 0
 2214 315 2214 315 2214 529 c 0
 2214 647 2214 647 2168 743 c 1
 2294 896 2294 896 2294 1101 c 0
 2294 1252 2294 1252 2218.5 1381.5 c 0
 2143 1511 2143 1511 2014 1586.5 c 0
 1885 1662 1885 1662 1734 1662 c 0
 1490 1662 1490 1662 1315 1475 c 1
 1183 1542 1183 1542 1031 1542 c 0
 805 1542 805 1542 629.5 1402 c 0
 454 1262 454 1262 405 1043 c 1
 228 1001 228 1001 113 857.5 c 0
 -2 714 -2 714 -2 529 c 0
631 435 m 0
 631 375 631 375 676.5 331 c 0
 722 287 722 287 785 287 c 0
 848 287 848 287 891.5 330 c 0
 935 373 935 373 935 435 c 0
 935 476 935 476 897.5 544 c 0
 860 612 860 612 827 651 c 0
 824 655 824 655 807.5 672.5 c 0
 791 690 791 690 785 698 c 1
 747 655 l 2
 703 607 703 607 667 542.5 c 0
 631 478 631 478 631 435 c 0
950 10 m 0
 950 -91 950 -91 1023.5 -165 c 0
 1097 -239 1097 -239 1199 -239 c 0
 1302 -239 1302 -239 1376 -165 c 0
 1450 -91 1450 -91 1450 10 c 0
 1450 53 1450 53 1425 113 c 0
 1400 173 1400 173 1365 224 c 0
 1291 319 1291 319 1227 383 c 0
 1218 390 1218 390 1199 409 c 1
 1137 347 l 2
 1066 279 1066 279 1008 180.5 c 0
 950 82 950 82 950 10 c 0
1107 725 m 0
 1107 682 1107 682 1137 653.5 c 0
 1167 625 1167 625 1213 625 c 0
 1254 625 1254 625 1283 653.5 c 0
 1312 682 1312 682 1312 725 c 0
 1312 790 1312 790 1213 897 c 1
 1186 869 l 2
 1156 837 1156 837 1131.5 794.5 c 0
 1107 752 1107 752 1107 725 c 0
1469 1369 m 1
 1576 1475 1576 1475 1734 1475 c 0
 1890 1475 1890 1475 2000 1366 c 0
 2110 1257 2110 1257 2110 1101 c 0
 2110 1000 2110 1000 2056 904 c 1
 1896 1058 1896 1058 1682 1058 c 2
 1649 1058 l 1
 1604 1246 1604 1246 1469 1369 c 1
EndSplineSet
EndChar

StartChar: uniF03A
Encoding: 75 61498 75
Width: 2294
Flags: W
LayerCount: 2
Fore
SplineSet
0 533 m 0
 0 357 0 357 106.5 215.5 c 0
 213 74 213 74 381 24 c 1
 312 -153 l 2
 305 -175 305 -175 327 -175 c 2
 553 -175 l 1
 431 -611 l 1
 462 -611 l 1
 897 -25 l 2
 903 -18 903 -18 898.5 -10 c 0
 894 -2 894 -2 883 -2 c 2
 651 -2 l 1
 915 496 l 2
 927 519 927 519 901 519 c 2
 585 519 l 2
 570 519 570 519 565 504 c 2
 447 192 l 1
 333 221 333 221 257.5 317 c 0
 182 413 182 413 182 533 c 0
 182 667 182 667 272.5 766.5 c 0
 363 866 363 866 497 878 c 1
 553 885 l 2
 574 885 574 885 574 903 c 2
 582 958 l 1
 599 1132 599 1132 728.5 1248.5 c 0
 858 1365 858 1365 1034 1365 c 0
 1209 1365 1209 1365 1339 1248.5 c 0
 1469 1132 1469 1132 1488 958 c 2
 1495 896 l 2
 1495 878 1495 878 1514 878 c 2
 1687 878 l 2
 1832 878 1832 878 1935 776.5 c 0
 2038 675 2038 675 2038 533 c 0
 2038 396 2038 396 1942 295.5 c 0
 1846 195 1846 195 1707 185 c 0
 1687 185 1687 185 1687 166 c 2
 1687 19 l 2
 1687 1 1687 1 1707 1 c 0
 1920 8 1920 8 2068.5 163 c 0
 2217 318 2217 318 2217 533 c 0
 2217 649 2217 649 2173 746 c 1
 2295 906 2295 906 2295 1097 c 0
 2295 1211 2295 1211 2250 1314.5 c 0
 2205 1418 2205 1418 2130 1493 c 0
 2055 1568 2055 1568 1951 1612.5 c 0
 1847 1657 1847 1657 1734 1657 c 0
 1616 1657 1616 1657 1508 1609 c 0
 1400 1561 1400 1561 1322 1475 c 1
 1191 1545 1191 1545 1034 1545 c 0
 807 1545 807 1545 632 1405.5 c 0
 457 1266 457 1266 407 1046 c 1
 230 1005 230 1005 115 861 c 0
 0 717 0 717 0 533 c 0
872 -520 m 0
 872 -548 872 -548 889 -574.5 c 0
 906 -601 906 -601 938 -607 c 0
 941 -607 941 -607 946.5 -608 c 0
 952 -609 952 -609 956.5 -609.5 c 0
 961 -610 961 -610 965 -610 c 0
 1033 -605 1033 -605 1050 -545 c 2
 1081 -432 l 2
 1091 -397 1091 -397 1071.5 -364.5 c 0
 1052 -332 1052 -332 1015 -321 c 0
 980 -311 980 -311 947.5 -330 c 0
 915 -349 915 -349 904 -387 c 2
 877 -494 l 2
 872 -519 872 -519 872 -520 c 0
1015 -11 m 0
 1015 -35 1015 -35 1031.5 -59 c 0
 1048 -83 1048 -83 1081 -95 c 0
 1116 -107 1116 -107 1148 -89.5 c 0
 1180 -72 1180 -72 1191 -33 c 2
 1223 78 l 2
 1233 118 1233 118 1214.5 150 c 0
 1196 182 1196 182 1158 189 c 1
 1122 200 1122 200 1089.5 181.5 c 0
 1057 163 1057 163 1045 125 c 2
 1018 16 l 2
 1018 13 1018 13 1017 7.5 c 0
 1016 2 1016 2 1015.5 -2.5 c 0
 1015 -7 1015 -7 1015 -11 c 0
1317 -184 m 0
 1317 -214 1317 -214 1334 -239.5 c 0
 1351 -265 1351 -265 1384 -274 c 0
 1409 -279 1409 -279 1413 -279 c 0
 1476 -279 1476 -279 1495 -215 c 1
 1521 -102 l 2
 1532 -67 1532 -67 1515 -35 c 0
 1498 -3 1498 -3 1462 9 c 0
 1422 19 1422 19 1389 -0.5 c 0
 1356 -20 1356 -20 1349 -57 c 2
 1319 -163 l 2
 1317 -171 1317 -171 1317 -184 c 0
1462 322 m 0
 1462 296 1462 296 1479 271.5 c 0
 1496 247 1496 247 1531 235 c 1
 1558 232 1558 232 1559 232 c 0
 1578 232 1578 232 1599 241 c 0
 1630 257 1630 257 1641 297 c 2
 1672 408 l 2
 1682 443 1682 443 1662.5 475.5 c 0
 1643 508 1643 508 1606 519 c 0
 1570 530 1570 530 1538 511.5 c 0
 1506 493 1506 493 1495 455 c 2
 1465 346 l 2
 1462 332 1462 332 1462 322 c 0
1473 1373 m 1
 1579 1475 1579 1475 1734 1475 c 0
 1891 1475 1891 1475 2001 1364.5 c 0
 2111 1254 2111 1254 2111 1097 c 0
 2111 996 2111 996 2059 907 c 1
 1901 1061 1901 1061 1687 1061 c 2
 1653 1061 l 1
 1604 1246 1604 1246 1473 1373 c 1
EndSplineSet
EndChar

StartChar: uniF03B
Encoding: 76 61499 76
Width: 2288
Flags: W
LayerCount: 2
Fore
SplineSet
0 529 m 0
 0 351 0 351 106 211 c 0
 212 71 212 71 379 24 c 1
 311 -155 l 2
 303 -178 303 -178 326 -178 c 2
 552 -178 l 1
 441 -625 l 1
 471 -625 l 1
 894 -25 l 2
 900 -18 900 -18 895.5 -10 c 0
 891 -2 891 -2 880 -2 c 2
 648 -2 l 1
 912 490 l 2
 923 513 923 513 897 513 c 2
 583 513 l 2
 569 513 569 513 559 498 c 1
 445 192 l 1
 331 220 331 220 256.5 314 c 0
 182 408 182 408 182 529 c 0
 182 662 182 662 271.5 759.5 c 0
 361 857 361 857 495 873 c 1
 552 877 l 2
 571 877 571 877 571 896 c 2
 579 953 l 1
 590 1066 590 1066 653 1159.5 c 0
 716 1253 716 1253 815.5 1306 c 0
 915 1359 915 1359 1030 1359 c 0
 1203 1359 1203 1359 1333 1242 c 0
 1463 1125 1463 1125 1481 953 c 1
 1489 893 l 2
 1489 873 1489 873 1507 873 c 2
 1680 873 l 2
 1822 873 1822 873 1925.5 771 c 0
 2029 669 2029 669 2029 529 c 0
 2029 391 2029 391 1933 289.5 c 0
 1837 188 1837 188 1701 181 c 0
 1680 181 1680 181 1680 162 c 2
 1680 19 l 2
 1680 1 1680 1 1701 1 c 0
 1840 5 1840 5 1957 77.5 c 0
 2074 150 2074 150 2141 270 c 0
 2208 390 2208 390 2208 529 c 0
 2208 646 2208 646 2163 743 c 1
 2288 891 2288 891 2288 1096 c 0
 2288 1209 2288 1209 2243.5 1312 c 0
 2199 1415 2199 1415 2124 1490 c 0
 2049 1565 2049 1565 1946 1609.5 c 0
 1843 1654 1843 1654 1730 1654 c 0
 1483 1654 1483 1654 1318 1469 c 1
 1189 1538 1189 1538 1030 1538 c 0
 805 1538 805 1538 630 1398.5 c 0
 455 1259 455 1259 406 1041 c 1
 230 1000 230 1000 115 856.5 c 0
 0 713 0 713 0 529 c 0
846 -525 m 0
 846 -551 846 -551 861.5 -574 c 0
 877 -597 877 -597 910 -607 c 1
 937 -610 l 1
 1004 -610 1004 -610 1022 -546 c 2
 1281 402 l 2
 1291 439 1291 439 1274 470.5 c 0
 1257 502 1257 502 1222 513 c 0
 1185 524 1185 524 1152.5 506.5 c 0
 1120 489 1120 489 1110 453 c 2
 849 -496 l 1
 846 -523 846 -523 846 -525 c 0
1288 -201 m 0
 1288 -265 1288 -265 1354 -286 c 1
 1381 -289 1381 -289 1382 -289 c 0
 1400 -289 1400 -289 1419 -281 c 0
 1451 -267 1451 -267 1464 -222 c 2
 1639 402 l 2
 1649 439 1649 439 1631 470.5 c 0
 1613 502 1613 502 1577 513 c 0
 1540 524 1540 524 1508 506.5 c 0
 1476 489 1476 489 1466 453 c 2
 1293 -175 l 2
 1288 -198 1288 -198 1288 -201 c 0
1466 1367 m 1
 1574 1469 1574 1469 1730 1469 c 0
 1885 1469 1885 1469 1995 1360 c 0
 2105 1251 2105 1251 2105 1096 c 0
 2105 995 2105 995 2051 899 c 1
 1897 1053 1897 1053 1680 1053 c 2
 1646 1053 l 1
 1601 1236 1601 1236 1466 1367 c 1
EndSplineSet
EndChar

StartChar: uniF03C
Encoding: 77 61500 77
Width: 1120
Flags: W
LayerCount: 2
Fore
SplineSet
0 1160 m 0
 0 1240 0 1240 57 1297 c 0
 114 1354 114 1354 194 1354 c 0
 273 1354 273 1354 329.5 1297 c 0
 386 1240 386 1240 386 1160 c 0
 386 1080 386 1080 329.5 1023 c 0
 273 966 273 966 194 966 c 0
 114 966 114 966 57 1023 c 0
 0 1080 0 1080 0 1160 c 0
94 1160 m 0
 94 1118 94 1118 123 1089 c 0
 153 1059 153 1059 194 1059 c 0
 235 1059 235 1059 265 1089 c 0
 295 1119 295 1119 295 1160 c 0
 295 1201 295 1201 265 1231 c 0
 235 1261 235 1261 194 1261 c 0
 152 1261 152 1261 123 1231.5 c 0
 94 1202 94 1202 94 1160 c 0
509 688 m 2
 509 565 509 565 577 469 c 0
 613 419 613 419 676 389.5 c 0
 739 360 739 360 819 360 c 0
 1053 360 1053 360 1112 538 c 0
 1118 561 1118 561 1105.5 581.5 c 0
 1093 602 1093 602 1070 606 c 0
 1047 612 1047 612 1027 599 c 0
 1007 586 1007 586 1002 563 c 0
 1002 562 1002 562 1000.5 557.5 c 2
 998 550 l 1
 980 520 980 520 950 502 c 0
 900 472 900 472 819 472 c 0
 769 472 769 472 730 489 c 0
 666 516 666 516 639 584 c 0
 621 628 621 628 621 688 c 2
 621 1032 l 2
 621 1056 621 1056 624 1080 c 0
 630 1141 630 1141 672 1191 c 0
 719 1247 719 1247 819 1247 c 0
 902 1247 902 1247 950 1218 c 0
 982 1199 982 1199 998 1170 c 0
 999 1167 999 1167 1000.5 1161.5 c 0
 1002 1156 1002 1156 1002 1155 c 0
 1008 1133 1008 1133 1027 1122.5 c 0
 1046 1112 1046 1112 1070 1117 c 0
 1093 1122 1093 1122 1105.5 1141.5 c 0
 1118 1161 1118 1161 1112 1184 c 1
 1112 1185 l 1
 1103 1210 l 2
 1095 1228 1095 1228 1073.5 1256 c 0
 1052 1284 1052 1284 1025 1303 c 0
 992 1327 992 1327 937.5 1343 c 0
 883 1359 883 1359 819 1359 c 0
 738 1359 738 1359 675.5 1330.5 c 0
 613 1302 613 1302 578 1253 c 0
 509 1158 509 1158 509 1032 c 2
 509 688 l 2
EndSplineSet
EndChar

StartChar: uniF03D
Encoding: 78 61501 78
Width: 2216
Flags: W
LayerCount: 2
Fore
SplineSet
0 531 m 0
 0 317 0 317 149 164 c 0
 298 11 298 11 512 1 c 0
 530 1 530 1 530 19 c 2
 530 162 l 2
 530 181 530 181 512 181 c 0
 375 188 375 188 278.5 290 c 0
 182 392 182 392 182 531 c 0
 182 664 182 664 272.5 762.5 c 0
 363 861 363 861 497 877 c 1
 553 880 l 2
 574 880 574 880 574 898 c 2
 582 957 l 1
 598 1130 598 1130 727.5 1246.5 c 0
 857 1363 857 1363 1033 1363 c 0
 1207 1363 1207 1363 1338 1246.5 c 0
 1469 1130 1469 1130 1487 957 c 1
 1495 895 l 2
 1495 877 1495 877 1513 877 c 2
 1686 877 l 2
 1828 877 1828 877 1932.5 774 c 0
 2037 671 2037 671 2037 531 c 0
 2037 392 2037 392 1940 290 c 0
 1843 188 1843 188 1706 181 c 0
 1686 181 1686 181 1686 162 c 2
 1686 19 l 2
 1686 1 1686 1 1706 1 c 0
 1846 5 1846 5 1963.5 77.5 c 0
 2081 150 2081 150 2148.5 270 c 0
 2216 390 2216 390 2216 531 c 0
 2216 675 2216 675 2145 796 c 0
 2074 917 2074 917 1952 986.5 c 0
 1830 1056 1830 1056 1686 1056 c 2
 1651 1056 l 1
 1599 1270 1599 1270 1426.5 1407 c 0
 1254 1544 1254 1544 1033 1544 c 0
 807 1544 807 1544 632 1404 c 0
 457 1264 457 1264 407 1045 c 1
 231 1004 231 1004 115.5 859.5 c 0
 0 715 0 715 0 531 c 0
743 368 m 0
 743 330 743 330 769 304 c 2
 1045 26 l 2
 1065 1 1065 1 1106 1 c 0
 1151 1 1151 1 1171 26 c 2
 1448 304 l 2
 1474 332 1474 332 1474 368 c 0
 1474 405 1474 405 1448 430 c 0
 1422 455 1422 455 1384 455 c 0
 1346 455 1346 455 1318 430 c 2
 1198 312 l 1
 1198 737 l 2
 1198 775 1198 775 1171 800 c 0
 1144 825 1144 825 1106 825 c 0
 1068 825 1068 825 1043 800 c 0
 1018 775 1018 775 1018 737 c 2
 1018 312 l 1
 901 430 l 2
 873 455 873 455 834 455 c 0
 794 455 794 455 768.5 430.5 c 0
 743 406 743 406 743 368 c 0
EndSplineSet
EndChar

StartChar: uniF03E
Encoding: 79 61502 79
Width: 2212
Flags: W
LayerCount: 2
Fore
SplineSet
0 527 m 0
 0 422 0 422 40 326.5 c 0
 80 231 80 231 148.5 161.5 c 0
 217 92 217 92 311.5 49 c 0
 406 6 406 6 511 1 c 0
 529 1 529 1 529 19 c 2
 529 161 l 2
 529 181 529 181 511 181 c 0
 372 191 372 191 277 291 c 0
 182 391 182 391 182 527 c 0
 182 661 182 661 272.5 760.5 c 0
 363 860 363 860 496 871 c 1
 552 879 l 2
 573 879 573 879 573 897 c 2
 581 952 l 1
 592 1066 592 1066 654.5 1159.5 c 0
 717 1253 717 1253 816.5 1305.5 c 0
 916 1358 916 1358 1031 1358 c 0
 1206 1358 1206 1358 1336.5 1243 c 0
 1467 1128 1467 1128 1485 955 c 2
 1491 894 l 2
 1491 875 1491 875 1511 875 c 2
 1683 875 l 2
 1827 875 1827 875 1930 772 c 0
 2033 669 2033 669 2033 527 c 0
 2033 391 2033 391 1938 291 c 0
 1843 191 1843 191 1704 181 c 0
 1683 181 1683 181 1683 161 c 2
 1683 19 l 2
 1683 1 1683 1 1704 1 c 0
 1918 11 1918 11 2065.5 162.5 c 0
 2213 314 2213 314 2213 527 c 0
 2213 670 2213 670 2141.5 791.5 c 0
 2070 913 2070 913 1948 984 c 0
 1826 1055 1826 1055 1683 1055 c 2
 1649 1055 l 1
 1596 1268 1596 1268 1423.5 1405 c 0
 1251 1542 1251 1542 1031 1542 c 0
 806 1542 806 1542 631 1400.5 c 0
 456 1259 456 1259 406 1040 c 1
 229 998 229 998 114.5 854.5 c 0
 0 711 0 711 0 527 c 0
664 392 m 0
 664 273 664 273 723.5 171.5 c 0
 783 70 783 70 884.5 10 c 0
 986 -50 986 -50 1104 -50 c 0
 1288 -50 1288 -50 1419 80.5 c 0
 1550 211 1550 211 1550 392 c 0
 1550 429 1550 429 1523 456 c 0
 1496 483 1496 483 1458 483 c 0
 1420 483 1420 483 1392.5 456 c 0
 1365 429 1365 429 1365 392 c 0
 1365 285 1365 285 1288.5 208 c 0
 1212 131 1212 131 1104 131 c 0
 998 131 998 131 921.5 208 c 0
 845 285 845 285 845 392 c 0
 845 488 845 488 902 563 c 0
 959 638 959 638 1042 645 c 1
 998 603 l 2
 974 579 974 579 974 542 c 0
 974 502 974 502 998 472 c 0
 1020 448 1020 448 1054.5 447 c 0
 1089 446 1089 446 1129 472 c 1
 1323 671 l 2
 1350 698 1350 698 1350 733 c 0
 1350 773 1350 773 1323 798 c 2
 1129 993 l 2
 1099 1021 1099 1021 1063 1021 c 0
 1026 1021 1026 1021 1000 994 c 0
 974 967 974 967 974 929 c 0
 974 891 974 891 998 867 c 2
 1035 829 l 1
 875 802 875 802 769.5 680 c 0
 664 558 664 558 664 392 c 0
EndSplineSet
EndChar

StartChar: uniF040
Encoding: 80 61504 80
Width: 2211
Flags: W
LayerCount: 2
Fore
SplineSet
0 530 m 0
 0 317 0 317 148.5 164 c 0
 297 11 297 11 511 1 c 0
 529 1 529 1 529 19 c 2
 529 161 l 2
 529 181 529 181 511 181 c 0
 374 188 374 188 278 289.5 c 0
 182 391 182 391 182 530 c 0
 182 662 182 662 272 760 c 0
 362 858 362 858 496 874 c 1
 552 874 l 2
 573 874 573 874 573 893 c 2
 579 954 l 2
 596 1127 596 1127 726 1244 c 0
 856 1361 856 1361 1031 1361 c 0
 1204 1361 1204 1361 1334.5 1244 c 0
 1465 1127 1465 1127 1483 954 c 1
 1491 893 l 2
 1491 874 1491 874 1510 874 c 2
 1682 874 l 2
 1824 874 1824 874 1928 771.5 c 0
 2032 669 2032 669 2032 530 c 0
 2032 392 2032 392 1935.5 290 c 0
 1839 188 1839 188 1703 181 c 0
 1682 181 1682 181 1682 161 c 2
 1682 19 l 2
 1682 1 1682 1 1703 1 c 0
 1842 5 1842 5 1959 77 c 0
 2076 149 2076 149 2143.5 269.5 c 0
 2211 390 2211 390 2211 530 c 0
 2211 637 2211 637 2169 734 c 0
 2127 831 2127 831 2056 901 c 0
 1985 971 1985 971 1887 1012.5 c 0
 1789 1054 1789 1054 1682 1054 c 2
 1648 1054 l 1
 1595 1268 1595 1268 1423 1404.5 c 0
 1251 1541 1251 1541 1031 1541 c 0
 805 1541 805 1541 630 1400.5 c 0
 455 1260 455 1260 406 1042 c 1
 229 1001 229 1001 114.5 857.5 c 0
 0 714 0 714 0 530 c 0
741 463 m 0
 741 423 741 423 767 395 c 0
 791 371 791 371 832 371 c 0
 871 371 871 371 898 395 c 2
 1016 517 l 1
 1016 93 l 2
 1016 55 1016 55 1041 28 c 0
 1066 1 1066 1 1104 1 c 0
 1141 1 1141 1 1168 28 c 0
 1195 55 1195 55 1195 93 c 2
 1195 513 l 1
 1315 395 l 1
 1379 346 1379 346 1445 395 c 0
 1471 419 1471 419 1471 461 c 0
 1471 499 1471 499 1445 527 c 2
 1169 801 l 2
 1143 827 1143 827 1105 827 c 0
 1066 827 1066 827 1042 801 c 2
 767 527 l 2
 741 501 741 501 741 463 c 0
EndSplineSet
EndChar

StartChar: uniF041
Encoding: 81 61505 81
Width: 2216
Flags: W
LayerCount: 2
Fore
SplineSet
0 530 m 0
 0 714 0 714 115 858 c 0
 230 1002 230 1002 407 1043 c 1
 457 1262 457 1262 632 1402.5 c 0
 807 1543 807 1543 1033 1543 c 0
 1254 1543 1254 1543 1426.5 1406 c 0
 1599 1269 1599 1269 1651 1055 c 1
 1686 1055 l 2
 1830 1055 1830 1055 1952 985.5 c 0
 2074 916 2074 916 2145 795 c 0
 2216 674 2216 674 2216 530 c 0
 2216 389 2216 389 2148.5 269 c 0
 2081 149 2081 149 1963.5 76.5 c 0
 1846 4 1846 4 1706 0 c 1
 512 0 l 1
 298 10 298 10 149 163 c 0
 0 316 0 316 0 530 c 0
182 530 m 0
 182 391 182 391 278.5 288.5 c 0
 375 186 375 186 512 179 c 1
 1706 179 l 1
 1843 186 1843 186 1940 288.5 c 0
 2037 391 2037 391 2037 530 c 0
 2037 670 2037 670 1933 772.5 c 0
 1829 875 1829 875 1686 875 c 2
 1513 875 l 2
 1495 875 1495 875 1495 894 c 2
 1487 955 l 1
 1469 1128 1469 1128 1338 1245 c 0
 1207 1362 1207 1362 1033 1362 c 0
 858 1362 858 1362 728.5 1245 c 0
 599 1128 599 1128 582 955 c 1
 574 894 l 2
 574 875 574 875 553 875 c 2
 497 875 l 1
 363 859 363 859 272.5 761 c 0
 182 663 182 663 182 530 c 0
EndSplineSet
EndChar

StartChar: uniF042
Encoding: 82 61506 82
Width: 386
Flags: W
LayerCount: 2
Fore
SplineSet
0 1349 m 0
 0 1429 0 1429 57 1486 c 0
 114 1543 114 1543 194 1543 c 0
 273 1543 273 1543 329.5 1486 c 0
 386 1429 386 1429 386 1349 c 0
 386 1269 386 1269 329.5 1211.5 c 0
 273 1154 273 1154 194 1154 c 0
 115 1154 115 1154 57.5 1211.5 c 0
 0 1269 0 1269 0 1349 c 0
94 1349 m 0
 94 1307 94 1307 123 1278 c 0
 153 1248 153 1248 194 1248 c 0
 235 1248 235 1248 265 1278 c 0
 295 1308 295 1308 295 1349 c 0
 295 1390 295 1390 265 1419.5 c 0
 235 1449 235 1449 194 1449 c 0
 152 1449 152 1449 123 1420 c 0
 94 1391 94 1391 94 1349 c 0
EndSplineSet
EndChar

StartChar: uniF043
Encoding: 83 61507 83
Width: 677
Flags: W
LayerCount: 2
Fore
SplineSet
0 542 m 2
 0 511 0 511 20.5 490.5 c 0
 41 470 41 470 71 470 c 2
 377 470 l 2
 407 470 407 470 427.5 490.5 c 0
 448 511 448 511 448 542 c 0
 448 572 448 572 427.5 591.5 c 0
 407 611 407 611 377 611 c 2
 245 611 l 1
 659 1025 l 2
 678 1047 678 1047 678 1078 c 0
 678 1107 678 1107 659 1127 c 0
 639 1146 639 1146 606 1146 c 0
 574 1146 574 1146 555 1127 c 2
 143 714 l 1
 143 847 l 2
 143 878 143 878 122.5 898.5 c 0
 102 919 102 919 71 919 c 0
 41 919 41 919 20.5 898 c 0
 0 877 0 877 0 847 c 2
 0 542 l 2
EndSplineSet
EndChar

